<svg width="31" height="35" viewBox="0 0 31 35" fill="none" xmlns="http://www.w3.org/2000/svg">
<path d="M2.95625 31.8652C-1.03798 27.7439 -0.963539 21.0978 3.051 16.9915L17.39 2.32425C20.4194 -0.774613 25.3437 -0.774886 28.3734 2.32425C31.3737 5.39317 31.3773 10.3448 28.3734 13.4173L15.874 26.1904C13.8331 28.2779 10.4987 28.2488 8.49239 26.1222C6.55954 24.0734 6.62154 20.8262 8.59165 18.8109L18.4178 8.7734C18.8404 8.34178 19.5329 8.3344 19.9645 8.75693L21.5273 10.2867C21.959 10.7093 21.9663 11.4018 21.5438 11.8334L11.7186 21.87C11.3815 22.2149 11.3607 22.7879 11.6743 23.1204C11.9732 23.4372 12.443 23.4425 12.7467 23.1317L25.2462 10.3587C26.5869 8.9873 26.5869 6.75448 25.2454 5.3823C23.9337 4.04061 21.8304 4.03993 20.5181 5.3823L6.17898 20.0495C3.80261 22.4803 3.76597 26.4151 6.09756 28.8209C8.42246 31.2198 12.1805 31.2228 14.5097 28.8404L26.2716 16.8092C26.6939 16.3773 27.3864 16.3695 27.8183 16.7917L29.3822 18.3205C29.8141 18.7428 29.822 19.4353 29.3997 19.8672L17.6378 31.8983C13.5652 36.064 6.97762 36.0146 2.95625 31.8652Z" fill="#1C1B1F"/>
</svg>
