<svg width="26" height="25" viewBox="0 0 26 25" fill="none" xmlns="http://www.w3.org/2000/svg">
<path d="M12.5 8.33929C10.1964 8.33929 8.33929 10.2143 8.33929 12.5C8.33929 14.7857 10.2143 16.6607 12.5 16.6607C14.7857 16.6607 16.6607 14.7857 16.6607 12.5C16.6607 10.2143 14.7857 8.33929 12.5 8.33929ZM25 12.5C25 10.7679 25 9.07143 24.9107 7.33929C24.8214 5.33929 24.3571 3.55357 22.8929 2.10714C21.4286 0.642857 19.6607 0.178571 17.6607 0.0892856C15.9286 -8.648e-08 14.2321 0 12.5 0C10.7679 0 9.07143 -8.648e-08 7.33929 0.0892856C5.33929 0.178571 3.55357 0.642857 2.10714 2.10714C0.642857 3.57143 0.178571 5.33929 0.0892856 7.33929C-8.648e-08 9.07143 0 10.7679 0 12.5C0 14.2321 -8.648e-08 15.9286 0.0892856 17.6607C0.178571 19.6607 0.642857 21.4464 2.10714 22.8929C3.57143 24.3571 5.33929 24.8214 7.33929 24.9107C9.07143 25 10.7679 25 12.5 25C14.2321 25 15.9286 25 17.6607 24.9107C19.6607 24.8214 21.4464 24.3571 22.8929 22.8929C24.3571 21.4286 24.8214 19.6607 24.9107 17.6607C25.0179 15.9464 25 14.2321 25 12.5ZM12.5 18.9107C8.94643 18.9107 6.08929 16.0536 6.08929 12.5C6.08929 8.94643 8.94643 6.08929 12.5 6.08929C16.0536 6.08929 18.9107 8.94643 18.9107 12.5C18.9107 16.0536 16.0536 18.9107 12.5 18.9107ZM19.1786 7.32143C18.3571 7.32143 17.6786 6.66071 17.6786 5.82143C17.6786 4.98214 18.3393 4.32143 19.1786 4.32143C20.0179 4.32143 20.6786 4.98214 20.6786 5.82143C20.6831 6.01703 20.6474 6.21147 20.5737 6.39271C20.4999 6.57394 20.3898 6.73809 20.25 6.875C20.1131 7.01477 19.9489 7.12494 19.7677 7.19866C19.5865 7.27238 19.392 7.30809 19.1964 7.30357L19.1786 7.32143Z" fill="#1C1B1F"/>
</svg>
