<svg width="40" height="20" viewBox="0 0 40 20" fill="none" xmlns="http://www.w3.org/2000/svg">
<path d="M18 20H10C7.23333 20 4.87467 19.0247 2.924 17.074C0.973334 15.1233 -0.00133197 12.7653 1.36612e-06 10C1.36612e-06 7.23333 0.975335 4.87467 2.926 2.924C4.87667 0.973334 7.23467 -0.00133197 10 1.36612e-06H18V4H10C8.33333 4 6.91667 4.58333 5.75 5.75C4.58333 6.91667 4 8.33333 4 10C4 11.6667 4.58333 13.0833 5.75 14.25C6.91667 15.4167 8.33333 16 10 16H18V20ZM12 12V8H28V12H12ZM22 20V16H30C31.6667 16 33.0833 15.4167 34.25 14.25C35.4167 13.0833 36 11.6667 36 10C36 8.33333 35.4167 6.91667 34.25 5.75C33.0833 4.58333 31.6667 4 30 4H22V1.36612e-06H30C32.7667 1.36612e-06 35.1253 0.975335 37.076 2.926C39.0267 4.87667 40.0013 7.23467 40 10C40 12.7667 39.0247 15.1253 37.074 17.076C35.1233 19.0267 32.7653 20.0013 30 20H22Z" fill="#1C1B1F"/>
</svg>
