<svg width="366" height="80" viewBox="0 0 366 80" fill="none" xmlns="http://www.w3.org/2000/svg">
<rect y="2.05481" width="25.34" height="25.34" fill="#007FFF"/>
<rect x="28.236" y="2.05481" width="25.34" height="25.34" fill="#CECEBF"/>
<rect x="0.00192261" y="33.213" width="25.3382" height="25.3382" fill="#DA241C"/>
<rect x="28.2359" y="33.213" width="25.3382" height="25.3382" fill="#007FFF"/>
<path d="M63.5132 26.0426V25.0545H65.0114V4.71789H63.5132V3.72974H69.9521C70.579 3.72974 71.1899 3.82006 71.7849 4.00069C72.3906 4.18132 72.9377 4.47351 73.4265 4.87726C73.9153 5.2704 74.3031 5.79634 74.59 6.4551C74.8875 7.10324 75.0362 7.8895 75.0362 8.81389C75.0362 9.72765 74.8981 10.5139 74.6218 11.1727C74.3562 11.8314 74.0109 12.3786 73.5859 12.8143C73.1715 13.2393 72.7359 13.5687 72.279 13.8024C71.8221 14.0255 71.3971 14.1637 71.004 14.2168C71.3971 14.2274 71.8434 14.3284 72.3427 14.5196C72.8527 14.7109 73.3468 15.019 73.825 15.444C74.3137 15.8584 74.7122 16.4162 75.0203 17.1175C75.339 17.8187 75.4984 18.6847 75.4984 19.7153C75.4984 21.171 75.2487 22.3663 74.7493 23.3013C74.2606 24.2257 73.6284 24.9163 72.8527 25.3732C72.0877 25.8195 71.2749 26.0426 70.4143 26.0426H63.5132ZM68.7727 25.0545H69.5536C69.883 25.0545 70.1965 24.8579 70.494 24.4648C70.7915 24.0716 71.0358 23.4819 71.2271 22.6957C71.4183 21.9094 71.514 20.9266 71.514 19.7472C71.514 18.4297 71.413 17.4097 71.2112 16.6871C71.0199 15.9646 70.7702 15.4599 70.4621 15.1731C70.154 14.8755 69.8352 14.7268 69.5058 14.7268H68.7727V25.0545ZM68.7727 13.7546H69.5058C69.8671 13.7546 70.1752 13.5952 70.4302 13.2765C70.6958 12.9577 70.8924 12.4371 71.0199 11.7146C71.158 10.992 71.2271 10.0252 71.2271 8.81389C71.2271 7.7195 71.1368 6.88011 70.9562 6.29572C70.7862 5.70071 70.563 5.29164 70.2868 5.06852C70.0105 4.83476 69.7236 4.71789 69.4261 4.71789H68.7727V13.7546ZM89.2166 26.3135C88.2603 26.3135 87.5537 26.101 87.0969 25.676C86.64 25.251 86.3425 24.6666 86.2044 23.9229C86.0662 23.1685 85.9972 22.3025 85.9972 21.325C85.9972 20.73 86.0131 20.1563 86.045 19.6037C86.0769 19.0406 86.0928 18.5572 86.0928 18.1534C86.0928 17.3459 86.0343 16.719 85.9175 16.2728C85.8006 15.8265 85.5987 15.5131 85.3118 15.3324C85.025 15.1412 84.6159 15.0456 84.0846 15.0456H83.3993V25.0545H84.9771V26.0426H77.9645V25.0545H79.6221V4.71789H77.9645V3.72974H85.0728C86.0078 3.72974 86.8525 3.91037 87.6069 4.27163C88.3613 4.62226 88.9616 5.18008 89.4078 5.94509C89.8541 6.69948 90.0772 7.68762 90.0772 8.90952C90.0772 9.84453 89.9338 10.652 89.6469 11.3321C89.3707 12.0121 89.0041 12.5752 88.5472 13.0215C88.1009 13.4677 87.6122 13.813 87.0809 14.0574C86.5497 14.3018 86.0343 14.4612 85.535 14.5355C86.725 14.5887 87.6334 14.8012 88.2603 15.1731C88.8872 15.5449 89.3175 16.1134 89.5513 16.8784C89.7957 17.6328 89.9178 18.6209 89.9178 19.8428C89.9178 20.3741 89.9019 20.9 89.87 21.4207C89.8382 21.9413 89.8222 22.43 89.8222 22.8869C89.8222 23.2057 89.8328 23.5404 89.8541 23.891C89.886 24.231 89.9444 24.5179 90.0294 24.7516C90.1144 24.9748 90.2313 25.0863 90.38 25.0863C90.5075 25.0863 90.6032 25.0385 90.6669 24.9429C90.7307 24.8366 90.7679 24.7198 90.7785 24.5923H91.7029C91.6498 24.996 91.5116 25.3254 91.2885 25.5804C91.0654 25.8354 90.7732 26.0214 90.4119 26.1382C90.0613 26.2551 89.6628 26.3135 89.2166 26.3135ZM83.3993 14.0733H84.2121C84.669 14.0733 85.0409 13.8502 85.3278 13.404C85.6147 12.9577 85.8272 12.3521 85.9653 11.5871C86.114 10.8114 86.1884 9.94016 86.1884 8.97327C86.1884 8.0595 86.1194 7.28918 85.9812 6.66229C85.8537 6.02478 85.6465 5.54134 85.3597 5.21196C85.0728 4.88258 84.7062 4.71789 84.2599 4.71789H83.3993V14.0733ZM94.3799 26.0426V25.0545H95.9259V4.71789H94.3799V3.72974H101.297V4.71789H99.7191V25.0545H101.297V26.0426H94.3799ZM106.521 26.0426V25.0545H108.29V4.71789H107.828C107.18 4.71789 106.68 4.88258 106.33 5.21196C105.99 5.53071 105.751 6.01416 105.613 6.66229C105.485 7.2998 105.421 8.09669 105.421 9.05295H104.433V3.72974H115.94V9.05295H114.952C114.952 8.09669 114.888 7.2998 114.761 6.66229C114.633 6.01416 114.394 5.53071 114.044 5.21196C113.704 4.88258 113.21 4.71789 112.561 4.71789H112.099V25.0545H113.916V26.0426H106.521ZM119.108 26.0426V25.0545H120.654V4.71789H119.108V3.72974H126.025V4.71789H124.447V25.0545H126.025V26.0426H119.108ZM134.102 26.4729C133.55 26.4729 133.093 26.4092 132.732 26.2817C132.381 26.1542 132.089 26.0054 131.855 25.8354C131.632 25.6654 131.441 25.5167 131.281 25.3892C131.133 25.2617 130.984 25.1979 130.835 25.1979C130.559 25.1979 130.421 25.4795 130.421 26.0426H129.496V20.5919H130.484C130.495 20.8256 130.553 21.1444 130.66 21.5482C130.766 21.9413 130.915 22.361 131.106 22.8072C131.308 23.2535 131.552 23.6785 131.839 24.0823C132.126 24.4754 132.455 24.7995 132.827 25.0545C133.199 25.3095 133.619 25.437 134.086 25.437C134.533 25.437 134.889 25.3413 135.154 25.1501C135.42 24.9588 135.611 24.6773 135.728 24.3054C135.845 23.9229 135.903 23.4607 135.903 22.9188C135.903 22.2707 135.76 21.6119 135.473 20.9425C135.186 20.2731 134.793 19.5772 134.294 18.8547C133.794 18.1215 133.22 17.3406 132.572 16.5118C131.754 15.4493 131.117 14.4771 130.66 13.5952C130.213 12.7133 129.9 11.8846 129.719 11.1089C129.549 10.3227 129.464 9.5364 129.464 8.75014C129.464 7.56012 129.666 6.56667 130.07 5.76978C130.474 4.97289 130.994 4.37788 131.632 3.98475C132.28 3.58099 132.955 3.37911 133.656 3.37911C134.262 3.37911 134.734 3.47474 135.074 3.66599C135.425 3.84662 135.707 4.03256 135.919 4.22382C136.132 4.40444 136.328 4.49476 136.509 4.49476C136.647 4.49476 136.748 4.44163 136.812 4.33538C136.886 4.22913 136.923 4.02725 136.923 3.72974H137.864V9.14858H136.875C136.854 8.80858 136.769 8.37294 136.62 7.84169C136.482 7.31043 136.286 6.78448 136.031 6.26385C135.776 5.73259 135.452 5.29165 135.059 4.94101C134.676 4.57976 134.224 4.39913 133.704 4.39913C133.151 4.39913 132.721 4.60632 132.413 5.0207C132.105 5.42446 131.951 6.02478 131.951 6.82167C131.951 7.40605 132.078 8.017 132.333 8.65451C132.588 9.2814 132.96 9.95078 133.449 10.6627C133.948 11.3746 134.554 12.1555 135.266 13.0055C135.988 13.8555 136.589 14.6896 137.067 15.5077C137.555 16.3153 137.917 17.1493 138.15 18.01C138.395 18.8706 138.517 19.7791 138.517 20.7353C138.517 21.8403 138.384 22.7647 138.119 23.5085C137.853 24.2416 137.502 24.826 137.067 25.2617C136.642 25.6867 136.169 25.9948 135.648 26.186C135.128 26.3773 134.612 26.4729 134.102 26.4729ZM141.621 26.0426V25.0545H143.119V4.71789H141.621V3.72974H147.964V4.71789H146.928V14.0733H149.924V4.71789H148.92V3.72974H155.168V4.71789H153.638V25.0545H155.168V26.0426H148.92V25.0545H149.924V15.0456H146.928V25.0545H147.964V26.0426H141.621Z" fill="#007FFF"/>
<path d="M81.3604 49.8948H72.8401L71.8262 52.2428C71.4942 53.0255 71.3282 53.6717 71.3282 54.1817C71.3282 54.8576 71.6009 55.3556 72.1464 55.6758C72.4666 55.8656 73.2552 56.0079 74.5122 56.1027V56.7609H66.4899V56.1027C67.3556 55.9723 68.0671 55.6165 68.6245 55.0355C69.1818 54.4425 69.8696 53.227 70.6878 51.389L79.3148 32.1427H79.6528L88.351 51.9226C89.1811 53.7963 89.8629 54.9762 90.3966 55.4624C90.7998 55.83 91.369 56.0434 92.1042 56.1027V56.7609H80.4355V56.1027H80.9157C81.8526 56.1027 82.5107 55.9723 82.8902 55.7114C83.1511 55.5217 83.2815 55.2489 83.2815 54.8932C83.2815 54.6797 83.2459 54.4603 83.1748 54.235C83.1511 54.1283 82.9732 53.6836 82.6411 52.9009L81.3604 49.8948ZM80.7556 48.5785L77.1625 40.2717L73.4627 48.5785H80.7556ZM97.0278 32.6408H109.479V33.2989H108.857C107.92 33.2989 107.274 33.3997 106.918 33.6013C106.574 33.791 106.325 34.0579 106.171 34.4018C106.028 34.7457 105.957 35.6054 105.957 36.981V48.792C105.957 50.9502 106.117 52.3792 106.437 53.0788C106.77 53.7785 107.309 54.3595 108.056 54.822C108.803 55.2845 109.746 55.5157 110.884 55.5157C112.189 55.5157 113.298 55.2252 114.211 54.6441C115.136 54.0512 115.823 53.2389 116.274 52.2072C116.737 51.1755 116.968 49.379 116.968 46.8176V36.981C116.968 35.9019 116.855 35.1311 116.63 34.6686C116.405 34.2061 116.12 33.8859 115.776 33.708C115.242 33.4353 114.489 33.2989 113.517 33.2989V32.6408H121.859V33.2989H121.361C120.685 33.2989 120.122 33.4353 119.672 33.708C119.221 33.9808 118.895 34.3899 118.693 34.9354C118.539 35.3149 118.462 35.9967 118.462 36.981V46.1416C118.462 48.9758 118.272 51.0214 117.893 52.2784C117.525 53.5354 116.618 54.6916 115.171 55.747C113.725 56.8024 111.75 57.3301 109.248 57.3301C107.161 57.3301 105.548 57.0514 104.41 56.494C102.856 55.7351 101.759 54.7627 101.119 53.5769C100.479 52.391 100.158 50.7961 100.158 48.792V36.981C100.158 35.5935 100.081 34.7338 99.9272 34.4018C99.773 34.0579 99.5062 33.7851 99.1268 33.5835C98.7473 33.3819 98.0476 33.2871 97.0278 33.2989V32.6408ZM150.458 32.0894V40.4496H149.765C149.243 38.2676 148.271 36.5956 146.848 35.4334C145.425 34.2713 143.812 33.6903 142.009 33.6903C140.503 33.6903 139.122 34.1231 137.865 34.9888C136.608 35.8544 135.689 36.9869 135.108 38.3862C134.361 40.1768 133.987 42.169 133.987 44.3629C133.987 46.5211 134.26 48.4896 134.805 50.2684C135.351 52.0353 136.205 53.3753 137.367 54.2884C138.529 55.1896 140.035 55.6402 141.885 55.6402C143.403 55.6402 144.79 55.3082 146.047 54.6441C147.316 53.9801 148.65 52.8357 150.049 51.2111V53.2923C148.697 54.7034 147.286 55.7292 145.816 56.3695C144.357 56.998 142.65 57.3123 140.693 57.3123C138.12 57.3123 135.831 56.7964 133.827 55.7648C131.835 54.7331 130.293 53.2508 129.202 51.3178C128.123 49.3849 127.583 47.3275 127.583 45.1455C127.583 42.845 128.182 40.663 129.38 38.5997C130.59 36.5363 132.214 34.9354 134.254 33.797C136.305 32.6586 138.481 32.0894 140.782 32.0894C142.478 32.0894 144.268 32.457 146.154 33.1922C147.245 33.6191 147.939 33.8326 148.235 33.8326C148.614 33.8326 148.941 33.6962 149.213 33.4234C149.498 33.1388 149.682 32.6941 149.765 32.0894H150.458Z" fill="#DA241C"/>
<path d="M4.60701 76.1364C3.30777 76.1364 2.33112 75.7563 1.67708 74.9962C1.02746 74.2361 0.702651 73.0982 0.702651 71.5824C0.702651 70.5881 0.859533 69.7396 1.1733 69.037C1.49148 68.3299 1.9577 67.793 2.57197 67.4262C3.18624 67.0594 3.91761 66.876 4.7661 66.876C6.08744 66.876 7.07955 67.256 7.74242 68.0161C8.4053 68.7718 8.73674 69.8965 8.73674 71.3902C8.73674 72.2254 8.63731 72.9435 8.43845 73.5445C8.244 74.1411 7.96559 74.6317 7.60322 75.0161C7.24085 75.4006 6.80556 75.6834 6.29735 75.8646C5.79356 76.0458 5.23011 76.1364 4.60701 76.1364ZM2.81061 71.4034C2.81061 72.738 2.9697 73.7324 3.28788 74.3864C3.61048 75.036 4.10101 75.3608 4.75947 75.3608C5.09975 75.3608 5.3892 75.2702 5.62784 75.089C5.86648 74.9034 6.05871 74.6471 6.20455 74.3201C6.3548 73.9887 6.46086 73.5976 6.52273 73.1468C6.58901 72.6961 6.62216 72.2011 6.62216 71.662C6.62216 70.7825 6.55145 70.0467 6.41004 69.4546C6.27304 68.858 6.06313 68.4094 5.7803 68.1089C5.50189 67.804 5.14394 67.6515 4.70644 67.6515C4.06566 67.6515 3.58838 67.9587 3.27462 68.5729C2.96528 69.1828 2.81061 70.1263 2.81061 71.4034ZM10.675 75.5928C10.8827 75.531 11.0263 75.4625 11.1059 75.3873C11.1898 75.3122 11.2495 75.2084 11.2848 75.0758C11.3202 74.9388 11.3379 74.7024 11.3379 74.3665V70.2832H10.5292V69.8258C10.7369 69.7949 10.8805 69.7617 10.96 69.7264C11.044 69.6866 11.1125 69.6358 11.1655 69.5739C11.2186 69.5076 11.2605 69.4236 11.2915 69.322C11.3224 69.2204 11.3445 69.09 11.3578 68.9309C11.4285 68.1354 11.7223 67.5344 12.2394 67.1279C12.7609 66.7169 13.4967 66.5114 14.4468 66.5114C14.8268 66.5114 15.1649 66.5423 15.461 66.6042V67.9565H14.5595C14.4843 67.7134 14.4004 67.5344 14.3076 67.4195C14.2192 67.3046 14.1021 67.2472 13.9563 67.2472C13.7662 67.2472 13.6204 67.3113 13.5188 67.4394C13.4171 67.5632 13.3464 67.7421 13.3066 67.9764C13.2713 68.2062 13.2536 68.531 13.2536 68.9508V69.4546H14.533V70.2832H13.2536V74.3665C13.2536 74.6979 13.2713 74.9322 13.3066 75.0692C13.342 75.2062 13.4039 75.3144 13.4922 75.394C13.585 75.4735 13.7463 75.5398 13.9761 75.5928V76.0303H10.675V75.5928ZM15.7818 75.5928C15.9895 75.531 16.1331 75.4625 16.2127 75.3873C16.2967 75.3122 16.3563 75.2084 16.3917 75.0758C16.427 74.9388 16.4447 74.7024 16.4447 74.3665V70.2832H15.636V69.8258C15.8437 69.7949 15.9873 69.7617 16.0669 69.7264C16.1508 69.6866 16.2193 69.6358 16.2723 69.5739C16.3254 69.5076 16.3674 69.4236 16.3983 69.322C16.4292 69.2204 16.4513 69.09 16.4646 68.9309C16.5353 68.1354 16.8292 67.5344 17.3462 67.1279C17.8677 66.7169 18.6035 66.5114 19.5536 66.5114C19.7701 66.5114 20.0154 66.5313 20.2894 66.5711V67.8504H19.547C19.4939 67.4483 19.3238 67.2472 19.0366 67.2472C18.8598 67.2472 18.7206 67.3157 18.6189 67.4527C18.5217 67.5853 18.4532 67.7753 18.4134 68.0228C18.3781 68.2658 18.3604 68.5752 18.3604 68.9508V69.4546H19.6398V70.2832H18.3604V74.3665C18.3604 74.6979 18.3781 74.9322 18.4134 75.0692C18.4488 75.2062 18.5107 75.3144 18.5991 75.394C18.6919 75.4735 18.8532 75.5398 19.083 75.5928V76.0303H15.7818V75.5928ZM23.4142 66.8097V68.4337H21.5979V66.8097H23.4142ZM20.8953 75.5928C21.1118 75.5354 21.2598 75.4603 21.3394 75.3675C21.4234 75.2747 21.4786 75.1487 21.5051 74.9896C21.536 74.8305 21.5515 74.5411 21.5515 74.1212V71.0389C21.5515 70.8223 21.5405 70.6478 21.5184 70.5152C21.5007 70.3826 21.4631 70.2765 21.4057 70.197C21.3527 70.1175 21.2775 70.0578 21.1803 70.018C21.0875 69.9738 20.966 69.9363 20.8157 69.9053V69.4546L22.6386 69.4015H23.4672V74.1146C23.4672 74.3621 23.4694 74.5543 23.4739 74.6913C23.4827 74.8239 23.4937 74.9277 23.507 75.0029C23.5203 75.0736 23.5379 75.1377 23.56 75.1951C23.5866 75.2526 23.6197 75.3056 23.6595 75.3542C23.6992 75.4028 23.7567 75.447 23.8318 75.4868C23.9069 75.5265 24.0064 75.5619 24.1301 75.5928V76.0303H20.8953V75.5928ZM30.9008 74.3334L31.4112 74.9498C30.9781 75.3741 30.5583 75.679 30.1517 75.8646C29.7496 76.0458 29.3098 76.1364 28.8326 76.1364C27.8736 76.1364 27.1422 75.8558 26.6384 75.2945C26.1347 74.7289 25.8828 73.9091 25.8828 72.8353C25.8828 72.1105 26.0198 71.4852 26.2937 70.9593C26.5722 70.429 26.9699 70.0291 27.4869 69.7595C28.004 69.4855 28.5961 69.3485 29.2634 69.3485C29.6214 69.3485 29.9771 69.375 30.3307 69.4281C30.6886 69.4767 31.0134 69.5452 31.3051 69.6336V71.2311H29.9926C29.9263 70.8157 29.8269 70.513 29.6943 70.3229C29.5617 70.1329 29.3717 70.0379 29.1242 70.0379C28.9607 70.0379 28.8039 70.0799 28.6536 70.1639C28.5078 70.2434 28.3774 70.3848 28.2625 70.5881C28.152 70.787 28.0636 71.0565 27.9973 71.3968C27.9311 71.7327 27.8979 72.1591 27.8979 72.6762C27.8979 73.1932 27.9465 73.6307 28.0437 73.9887C28.141 74.3422 28.2979 74.6162 28.5144 74.8106C28.7309 75.0007 29.016 75.0957 29.3695 75.0957C29.6258 75.0957 29.8667 75.0404 30.092 74.93C30.3218 74.8195 30.5914 74.6206 30.9008 74.3334ZM35.4044 66.8097V68.4337H33.5881V66.8097H35.4044ZM32.8854 75.5928C33.102 75.5354 33.25 75.4603 33.3295 75.3675C33.4135 75.2747 33.4687 75.1487 33.4953 74.9896C33.5262 74.8305 33.5417 74.5411 33.5417 74.1212V71.0389C33.5417 70.8223 33.5306 70.6478 33.5085 70.5152C33.4908 70.3826 33.4533 70.2765 33.3958 70.197C33.3428 70.1175 33.2677 70.0578 33.1705 70.018C33.0776 69.9738 32.9561 69.9363 32.8059 69.9053V69.4546L34.6288 69.4015H35.4574V74.1146C35.4574 74.3621 35.4596 74.5543 35.464 74.6913C35.4729 74.8239 35.4839 74.9277 35.4972 75.0029C35.5104 75.0736 35.5281 75.1377 35.5502 75.1951C35.5767 75.2526 35.6098 75.3056 35.6496 75.3542C35.6894 75.4028 35.7468 75.447 35.822 75.4868C35.8971 75.5265 35.9965 75.5619 36.1203 75.5928V76.0303H32.8854V75.5928ZM41.7574 75.162L41.658 75.1288C41.2956 75.4824 40.942 75.7387 40.5973 75.8978C40.2571 76.0568 39.8947 76.1364 39.5102 76.1364C39.1302 76.1364 38.7987 76.0679 38.5159 75.9309C38.2375 75.7895 38.0254 75.595 37.8795 75.3476C37.7381 75.1001 37.6674 74.8151 37.6674 74.4925C37.6674 73.8428 37.9856 73.3324 38.622 72.9612C39.2628 72.5856 40.2328 72.3491 41.532 72.2519V71.6222C41.532 71.2112 41.4856 70.8952 41.3928 70.6743C41.3 70.4489 41.1807 70.292 41.0348 70.2036C40.889 70.1108 40.7145 70.0644 40.5112 70.0644C40.3079 70.0644 40.1311 70.0998 39.9809 70.1705C39.835 70.2412 39.7025 70.376 39.5831 70.5748C39.4638 70.7693 39.3754 71.0411 39.318 71.3902H38.0651V70.1837C38.4717 70.0026 38.8098 69.8634 39.0794 69.7661C39.3489 69.6689 39.6141 69.5894 39.8748 69.5275C40.14 69.4612 40.3764 69.4148 40.5841 69.3883C40.7918 69.3618 40.9995 69.3485 41.2072 69.3485C41.7419 69.3485 42.1684 69.4192 42.4866 69.5606C42.8092 69.7021 43.05 69.9318 43.2091 70.25C43.3682 70.5682 43.4477 71.0079 43.4477 71.5692V74.1544C43.4477 74.4461 43.4544 74.6714 43.4676 74.8305C43.4809 74.9896 43.5008 75.1089 43.5273 75.1885C43.5582 75.2636 43.5958 75.3255 43.64 75.3741C43.6842 75.4183 43.7372 75.4558 43.7991 75.4868C43.8653 75.5133 43.9869 75.5486 44.1636 75.5928V76.0303H41.6977L41.7574 75.162ZM41.5386 72.9015C40.8537 72.9192 40.3455 73.0474 40.014 73.286C39.687 73.5247 39.5235 73.8738 39.5235 74.3334C39.5235 74.6074 39.5986 74.8173 39.7489 74.9631C39.8991 75.1045 40.1068 75.1752 40.372 75.1752C40.5753 75.1752 40.7675 75.1222 40.9487 75.0161C41.1299 74.9057 41.2735 74.7598 41.3795 74.5786C41.4856 74.3974 41.5386 74.2052 41.5386 74.0019V72.9015ZM48.2629 74.1146C48.2629 74.5344 48.2761 74.8239 48.3026 74.983C48.3292 75.1421 48.3822 75.2702 48.4617 75.3675C48.5457 75.4603 48.7004 75.5354 48.9258 75.5928V76.0303H45.6776V75.5928C45.8102 75.5619 45.9141 75.5265 45.9892 75.4868C46.0643 75.4426 46.1218 75.394 46.1616 75.3409C46.2057 75.2835 46.2433 75.2128 46.2742 75.1288C46.3052 75.0404 46.3251 74.9211 46.3339 74.7709C46.3427 74.6162 46.3472 74.3974 46.3472 74.1146V68.9442C46.3472 68.5641 46.3427 68.2857 46.3339 68.1089C46.3295 67.9277 46.3162 67.7775 46.2941 67.6582C46.2765 67.5344 46.2433 67.4372 46.1947 67.3665C46.1505 67.2914 46.0864 67.2317 46.0025 67.1875C45.9185 67.1433 45.7837 67.1036 45.5981 67.0682V66.6307L47.4343 66.5379H48.2629V74.1146ZM57.8733 76.0303H54.3932V75.5928C54.5567 75.5486 54.6848 75.5022 54.7777 75.4536C54.8749 75.4006 54.9456 75.3299 54.9898 75.2415C55.0384 75.1487 55.0693 75.0338 55.0826 74.8968C55.0958 74.7554 55.1025 74.5786 55.1025 74.3665V68.6525C55.1025 68.4448 55.0958 68.2702 55.0826 68.1288C55.0737 67.9874 55.045 67.8725 54.9964 67.7841C54.9522 67.6957 54.8815 67.625 54.7843 67.572C54.6915 67.5146 54.5611 67.4637 54.3932 67.4195V66.982H58.2578C58.7792 66.982 59.2211 67.0196 59.5835 67.0947C59.9503 67.1654 60.2707 67.2759 60.5447 67.4262C60.7745 67.5499 60.9689 67.7068 61.128 67.8968C61.2871 68.0824 61.4086 68.3012 61.4926 68.5531C61.581 68.8005 61.6252 69.09 61.6252 69.4214C61.6252 69.8545 61.5479 70.2257 61.3932 70.5351C61.2429 70.8444 61.0374 71.1029 60.7767 71.3106C60.5204 71.5139 60.1757 71.7062 59.7426 71.8873V71.9536C60.0696 72.095 60.3392 72.2851 60.5513 72.5237C60.7679 72.7579 60.9623 73.0562 61.1347 73.4186L61.5523 74.3201C61.7379 74.7223 61.9213 75.025 62.1025 75.2283C62.2881 75.4271 62.5068 75.5486 62.7587 75.5928V76.0303H60.2066C59.9503 75.6768 59.6609 75.1509 59.3383 74.4527L58.8212 73.3192C58.6665 72.9833 58.534 72.7447 58.4235 72.6033C58.313 72.4618 58.1981 72.3646 58.0788 72.3116C57.9639 72.2586 57.7849 72.232 57.5419 72.232H57.1574V74.3665C57.1574 74.6979 57.1729 74.93 57.2038 75.0625C57.2347 75.1951 57.2944 75.3012 57.3828 75.3807C57.4711 75.4603 57.6347 75.531 57.8733 75.5928V76.0303ZM57.1574 67.7709V71.4565H57.8136C58.1672 71.4565 58.4588 71.4101 58.6886 71.3173C58.9184 71.22 59.0996 71.0875 59.2322 70.9195C59.3692 70.7472 59.462 70.5461 59.5106 70.3163C59.5636 70.0865 59.5901 69.8346 59.5901 69.5606C59.5901 68.9596 59.4487 68.5089 59.1659 68.2084C58.8831 67.9079 58.4633 67.7576 57.9064 67.7576C57.5264 67.7576 57.2767 67.762 57.1574 67.7709ZM69.7415 74.8239C69.2907 75.3012 68.8444 75.6392 68.4025 75.8381C67.9605 76.037 67.4523 76.1364 66.8778 76.1364C65.8482 76.1364 65.0726 75.8558 64.5511 75.2945C64.0341 74.7289 63.7756 73.8914 63.7756 72.7822C63.7756 72.0663 63.9081 71.4498 64.1733 70.9328C64.4429 70.4113 64.8229 70.018 65.3134 69.7529C65.804 69.4833 66.374 69.3485 67.0237 69.3485C67.4258 69.3485 67.7771 69.3949 68.0776 69.4877C68.3826 69.5805 68.6433 69.7109 68.8598 69.8788C69.0764 70.0423 69.2554 70.2412 69.3968 70.4754C69.5647 70.7538 69.6907 71.072 69.7746 71.43C69.863 71.7967 69.9094 72.2409 69.9138 72.7623H65.7112C65.7156 73.5622 65.857 74.1522 66.1354 74.5322C66.4182 74.9079 66.8469 75.0957 67.4214 75.0957C67.7573 75.0957 68.06 75.0338 68.3295 74.9101C68.5991 74.7819 68.8908 74.5587 69.2045 74.2406L69.7415 74.8239ZM67.9517 72.0464C67.934 71.3703 67.8456 70.8665 67.6865 70.5351C67.5275 70.2036 67.2711 70.0379 66.9176 70.0379C66.5773 70.0379 66.3056 70.2103 66.1023 70.555C65.9034 70.8997 65.7841 71.3968 65.7443 72.0464H67.9517ZM74.1125 77.2169C74.1125 77.5483 74.1302 77.7825 74.1655 77.9195C74.2009 78.0565 74.2628 78.1648 74.3511 78.2443C74.4439 78.3239 74.6052 78.3902 74.835 78.4432V78.8807H71.5339V78.4432C71.7416 78.3813 71.8852 78.3128 71.9648 78.2377C72.0487 78.1626 72.1084 78.0565 72.1437 77.9195C72.1791 77.787 72.1968 77.5527 72.1968 77.2169V71.4167C72.1968 71.1029 72.1924 70.8798 72.1835 70.7472C72.1791 70.6146 72.1636 70.5019 72.1371 70.4091C72.115 70.3163 72.0819 70.2412 72.0377 70.1837C71.9935 70.1219 71.9272 70.0688 71.8388 70.0247C71.7549 69.9805 71.6289 69.9407 71.461 69.9053V69.4546L73.2972 69.4015H74.1125L74.0131 70.3627L74.0926 70.3826C74.4727 70.0158 74.8262 69.7529 75.1532 69.5938C75.4847 69.4303 75.8249 69.3485 76.1741 69.3485C76.9607 69.3485 77.5506 69.6269 77.9439 70.1837C78.3372 70.7361 78.5339 71.5647 78.5339 72.6695C78.5339 73.4341 78.4168 74.0748 78.1826 74.5919C77.9528 75.1045 77.6081 75.4912 77.1485 75.7519C76.6889 76.0082 76.1232 76.1364 75.4515 76.1364C74.9963 76.1364 74.55 76.0789 74.1125 75.964V77.2169ZM74.1125 73.8561C74.1125 74.3997 74.2053 74.8018 74.3909 75.0625C74.5809 75.3188 74.8726 75.447 75.2659 75.447C75.6725 75.447 75.9818 75.2349 76.1939 74.8106C76.4105 74.382 76.5187 73.7721 76.5187 72.9811C76.5187 72.1017 76.4215 71.4498 76.2271 71.0256C76.0371 70.6014 75.7388 70.3892 75.3322 70.3892C75.1333 70.3892 74.9389 70.4401 74.7489 70.5417C74.5633 70.6433 74.4108 70.7892 74.2915 70.9792C74.1722 71.1648 74.1125 71.3747 74.1125 71.6089V73.8561ZM82.8983 70.4025L82.9845 70.4224C83.3071 70.0423 83.6385 69.7683 83.9788 69.6004C84.3191 69.4325 84.6881 69.3485 85.0858 69.3485C85.3554 69.3485 85.6382 69.3772 85.9343 69.4347V71.2642H84.7345C84.6593 71.0079 84.5599 70.8113 84.4362 70.6743C84.3168 70.5373 84.1555 70.4688 83.9523 70.4688C83.855 70.4688 83.7468 70.4997 83.6275 70.5616C83.5126 70.619 83.4043 70.703 83.3026 70.8135C83.2054 70.9195 83.1347 71.03 83.0905 71.1449C83.0508 71.2554 83.0242 71.3681 83.011 71.483C82.9977 71.5979 82.9911 71.7702 82.9911 72V74.1146C82.9911 74.5344 83.0066 74.8283 83.0375 74.9962C83.0684 75.1642 83.1303 75.2967 83.2231 75.394C83.3159 75.4868 83.4728 75.5531 83.6937 75.5928V76.0303H80.4258V75.5928C80.6379 75.5354 80.7837 75.4603 80.8633 75.3675C80.9472 75.2747 81.0025 75.1487 81.029 74.9896C81.0599 74.8305 81.0754 74.5411 81.0754 74.1212V71.3968C81.0754 71.0698 81.0687 70.8289 81.0555 70.6743C81.0466 70.5152 81.0201 70.3892 80.9759 70.2964C80.9362 70.1992 80.8721 70.1219 80.7837 70.0644C80.6997 70.0026 80.5517 69.9495 80.3396 69.9053V69.4546L82.1559 69.4015H82.9911L82.8983 70.4025ZM93.1756 74.8239C92.7248 75.3012 92.2785 75.6392 91.8366 75.8381C91.3946 76.037 90.8864 76.1364 90.3119 76.1364C89.2823 76.1364 88.5067 75.8558 87.9852 75.2945C87.4682 74.7289 87.2097 73.8914 87.2097 72.7822C87.2097 72.0663 87.3422 71.4498 87.6074 70.9328C87.877 70.4113 88.257 70.018 88.7475 69.7529C89.2381 69.4833 89.8081 69.3485 90.4578 69.3485C90.8599 69.3485 91.2112 69.3949 91.5117 69.4877C91.8167 69.5805 92.0774 69.7109 92.2939 69.8788C92.5105 70.0423 92.6895 70.2412 92.8309 70.4754C92.9988 70.7538 93.1247 71.072 93.2087 71.43C93.2971 71.7967 93.3435 72.2409 93.3479 72.7623H89.1453C89.1497 73.5622 89.2911 74.1522 89.5695 74.5322C89.8523 74.9079 90.281 75.0957 90.8555 75.0957C91.1913 75.0957 91.4941 75.0338 91.7636 74.9101C92.0332 74.7819 92.3249 74.5587 92.6386 74.2406L93.1756 74.8239ZM91.3858 72.0464C91.3681 71.3703 91.2797 70.8665 91.1206 70.5351C90.9616 70.2036 90.7052 70.0379 90.3517 70.0379C90.0114 70.0379 89.7396 70.2103 89.5364 70.555C89.3375 70.8997 89.2182 71.3968 89.1784 72.0464H91.3858ZM95.9225 74.2406C96.0286 74.6427 96.1965 74.9454 96.4263 75.1487C96.6561 75.3476 96.9633 75.447 97.3477 75.447C97.6792 75.447 97.9288 75.3719 98.0968 75.2216C98.2691 75.0714 98.3553 74.8526 98.3553 74.5654C98.3553 74.3842 98.3155 74.2295 98.236 74.1014C98.1609 73.9732 98.0327 73.8517 97.8515 73.7368C97.6747 73.6175 97.3698 73.4628 96.9367 73.2728C96.6937 73.1667 96.4639 73.0496 96.2473 72.9214C96.0352 72.7933 95.8496 72.6497 95.6905 72.4906C95.5314 72.3271 95.4055 72.1459 95.3127 71.947C95.2199 71.7481 95.1735 71.5272 95.1735 71.2841C95.1735 70.8864 95.2884 70.5417 95.5182 70.25C95.748 69.9584 96.075 69.7352 96.4992 69.5805C96.9279 69.4259 97.4162 69.3485 97.9642 69.3485C98.2868 69.3485 98.6028 69.3618 98.9121 69.3883C99.2215 69.4148 99.6214 69.4723 100.112 69.5606V71.1051H99.2369C99.1353 70.8223 99.0226 70.6036 98.8989 70.4489C98.7795 70.2942 98.647 70.1882 98.5011 70.1307C98.3553 70.0688 98.1807 70.0379 97.9775 70.0379C97.6858 70.0379 97.4538 70.1042 97.2814 70.2368C97.1091 70.3693 97.0229 70.555 97.0229 70.7936C97.0229 70.9615 97.0538 71.1051 97.1157 71.2245C97.1776 71.3438 97.2881 71.4609 97.4472 71.5758C97.6062 71.6863 97.9134 71.8365 98.3686 72.0265C98.784 72.1989 99.122 72.3801 99.3828 72.5701C99.6435 72.7557 99.8424 72.9723 99.9794 73.2197C100.116 73.4628 100.185 73.7478 100.185 74.0748C100.185 74.4328 100.119 74.7421 99.986 75.0029C99.8534 75.2592 99.6678 75.4713 99.4292 75.6392C99.1905 75.8072 98.9033 75.9331 98.5674 76.0171C98.236 76.0966 97.8692 76.1364 97.467 76.1364C96.7379 76.1364 95.927 76.0325 95.0343 75.8248V74.2406H95.9225ZM107.976 74.8239C107.526 75.3012 107.079 75.6392 106.637 75.8381C106.195 76.037 105.687 76.1364 105.113 76.1364C104.083 76.1364 103.307 75.8558 102.786 75.2945C102.269 74.7289 102.01 73.8914 102.01 72.7822C102.01 72.0663 102.143 71.4498 102.408 70.9328C102.678 70.4113 103.058 70.018 103.548 69.7529C104.039 69.4833 104.609 69.3485 105.259 69.3485C105.661 69.3485 106.012 69.3949 106.312 69.4877C106.617 69.5805 106.878 69.7109 107.095 69.8788C107.311 70.0423 107.49 70.2412 107.632 70.4754C107.8 70.7538 107.926 71.072 108.009 71.43C108.098 71.7967 108.144 72.2409 108.149 72.7623H103.946C103.95 73.5622 104.092 74.1522 104.37 74.5322C104.653 74.9079 105.082 75.0957 105.656 75.0957C105.992 75.0957 106.295 75.0338 106.564 74.9101C106.834 74.7819 107.126 74.5587 107.439 74.2406L107.976 74.8239ZM106.187 72.0464C106.169 71.3703 106.08 70.8665 105.921 70.5351C105.762 70.2036 105.506 70.0379 105.152 70.0379C104.812 70.0379 104.54 70.2103 104.337 70.555C104.138 70.8997 104.019 71.3968 103.979 72.0464H106.187ZM117.074 76.0303H113.859V75.5928C114.062 75.5442 114.203 75.4735 114.283 75.3807C114.362 75.2835 114.416 75.1553 114.442 74.9962C114.473 74.8327 114.488 74.5411 114.488 74.1212V72.3514C114.488 72.0376 114.482 71.7813 114.469 71.5824C114.455 71.3791 114.433 71.2134 114.402 71.0853C114.376 70.9571 114.336 70.851 114.283 70.7671C114.234 70.6787 114.179 70.608 114.117 70.555C114.055 70.4975 113.985 70.4555 113.905 70.429C113.826 70.4025 113.724 70.3892 113.6 70.3892C113.432 70.3892 113.258 70.4423 113.077 70.5483C112.895 70.65 112.743 70.7936 112.619 70.9792C112.495 71.1604 112.434 71.3548 112.434 71.5625V74.1146C112.434 74.5344 112.447 74.8261 112.473 74.9896C112.5 75.1531 112.553 75.2835 112.632 75.3807C112.716 75.4735 112.862 75.5442 113.07 75.5928V76.0303H109.868V75.5928C110.08 75.5354 110.226 75.4603 110.306 75.3675C110.39 75.2747 110.445 75.1487 110.471 74.9896C110.502 74.8305 110.518 74.5411 110.518 74.1212V71.3968C110.518 71.0698 110.511 70.8289 110.498 70.6743C110.489 70.5152 110.463 70.3892 110.418 70.2964C110.379 70.1992 110.315 70.1219 110.226 70.0644C110.142 70.0026 109.994 69.9495 109.782 69.9053V69.4546L111.598 69.4015H112.434L112.334 70.3561L112.414 70.376C112.688 70.1329 112.928 69.9429 113.136 69.8059C113.344 69.6645 113.56 69.554 113.786 69.4745C114.016 69.3905 114.256 69.3485 114.508 69.3485C114.871 69.3485 115.171 69.4015 115.41 69.5076C115.648 69.6092 115.841 69.7595 115.987 69.9584C116.137 70.1572 116.243 70.4003 116.305 70.6875C116.371 70.9748 116.404 71.3084 116.404 71.6885V74.1146C116.404 74.3091 116.406 74.4925 116.411 74.6648C116.42 74.8327 116.437 74.9675 116.464 75.0692C116.49 75.1708 116.526 75.2548 116.57 75.3211C116.618 75.3829 116.685 75.436 116.769 75.4801C116.853 75.5243 116.954 75.5619 117.074 75.5928V76.0303ZM123.274 75.2349C122.885 75.5663 122.532 75.8005 122.214 75.9375C121.895 76.0701 121.56 76.1364 121.206 76.1364C120.548 76.1364 120.055 75.9596 119.728 75.6061C119.405 75.2481 119.244 74.709 119.244 73.9887V70.2832H118.415V69.8258C118.685 69.7816 118.884 69.7153 119.012 69.6269C119.14 69.5385 119.24 69.4214 119.31 69.2756C119.381 69.1253 119.436 68.9309 119.476 68.6923C119.52 68.4536 119.553 68.1553 119.575 67.7974H121.16V69.4546H123.049V70.2832H121.16V73.2728C121.16 73.7721 121.182 74.1411 121.226 74.3798C121.275 74.6184 121.354 74.7952 121.465 74.9101C121.575 75.0205 121.712 75.0758 121.876 75.0758C121.999 75.0758 122.11 75.0647 122.207 75.0426C122.304 75.0205 122.406 74.9808 122.512 74.9233C122.622 74.8659 122.737 74.7841 122.857 74.6781L123.274 75.2349ZM128.295 75.162L128.195 75.1288C127.833 75.4824 127.48 75.7387 127.135 75.8978C126.795 76.0568 126.432 76.1364 126.048 76.1364C125.668 76.1364 125.336 76.0679 125.053 75.9309C124.775 75.7895 124.563 75.595 124.417 75.3476C124.276 75.1001 124.205 74.8151 124.205 74.4925C124.205 73.8428 124.523 73.3324 125.159 72.9612C125.8 72.5856 126.77 72.3491 128.07 72.2519V71.6222C128.07 71.2112 128.023 70.8952 127.93 70.6743C127.837 70.4489 127.718 70.292 127.572 70.2036C127.427 70.1108 127.252 70.0644 127.049 70.0644C126.845 70.0644 126.669 70.0998 126.518 70.1705C126.373 70.2412 126.24 70.376 126.121 70.5748C126.001 70.7693 125.913 71.0411 125.855 71.3902H124.603V70.1837C125.009 70.0026 125.347 69.8634 125.617 69.7661C125.886 69.6689 126.152 69.5894 126.412 69.5275C126.677 69.4612 126.914 69.4148 127.122 69.3883C127.329 69.3618 127.537 69.3485 127.745 69.3485C128.279 69.3485 128.706 69.4192 129.024 69.5606C129.347 69.7021 129.587 69.9318 129.747 70.25C129.906 70.5682 129.985 71.0079 129.985 71.5692V74.1544C129.985 74.4461 129.992 74.6714 130.005 74.8305C130.018 74.9896 130.038 75.1089 130.065 75.1885C130.096 75.2636 130.133 75.3255 130.177 75.3741C130.222 75.4183 130.275 75.4558 130.337 75.4868C130.403 75.5133 130.524 75.5486 130.701 75.5928V76.0303H128.235L128.295 75.162ZM128.076 72.9015C127.391 72.9192 126.883 73.0474 126.552 73.286C126.224 73.5247 126.061 73.8738 126.061 74.3334C126.061 74.6074 126.136 74.8173 126.286 74.9631C126.437 75.1045 126.644 75.1752 126.909 75.1752C127.113 75.1752 127.305 75.1222 127.486 75.0161C127.667 74.9057 127.811 74.7598 127.917 74.5786C128.023 74.3974 128.076 74.2052 128.076 74.0019V72.9015ZM136.855 75.2349C136.466 75.5663 136.113 75.8005 135.795 75.9375C135.477 76.0701 135.141 76.1364 134.787 76.1364C134.129 76.1364 133.636 75.9596 133.309 75.6061C132.986 75.2481 132.825 74.709 132.825 73.9887V70.2832H131.996V69.8258C132.266 69.7816 132.465 69.7153 132.593 69.6269C132.721 69.5385 132.821 69.4214 132.891 69.2756C132.962 69.1253 133.017 68.9309 133.057 68.6923C133.101 68.4536 133.134 68.1553 133.156 67.7974H134.741V69.4546H136.63V70.2832H134.741V73.2728C134.741 73.7721 134.763 74.1411 134.807 74.3798C134.856 74.6184 134.935 74.7952 135.046 74.9101C135.156 75.0205 135.293 75.0758 135.457 75.0758C135.58 75.0758 135.691 75.0647 135.788 75.0426C135.885 75.0205 135.987 74.9808 136.093 74.9233C136.203 74.8659 136.318 74.7841 136.438 74.6781L136.855 75.2349ZM140.471 66.8097V68.4337H138.654V66.8097H140.471ZM137.952 75.5928C138.168 75.5354 138.316 75.4603 138.396 75.3675C138.48 75.2747 138.535 75.1487 138.562 74.9896C138.592 74.8305 138.608 74.5411 138.608 74.1212V71.0389C138.608 70.8223 138.597 70.6478 138.575 70.5152C138.557 70.3826 138.52 70.2765 138.462 70.197C138.409 70.1175 138.334 70.0578 138.237 70.018C138.144 69.9738 138.022 69.9363 137.872 69.9053V69.4546L139.695 69.4015H140.524V74.1146C140.524 74.3621 140.526 74.5543 140.53 74.6913C140.539 74.8239 140.55 74.9277 140.563 75.0029C140.577 75.0736 140.594 75.1377 140.616 75.1951C140.643 75.2526 140.676 75.3056 140.716 75.3542C140.756 75.4028 140.813 75.447 140.888 75.4868C140.963 75.5265 141.063 75.5619 141.187 75.5928V76.0303H137.952V75.5928ZM145.412 69.4546V69.8921C145.204 69.9318 145.052 69.9915 144.954 70.0711C144.857 70.1506 144.809 70.2699 144.809 70.429C144.809 70.6411 144.866 70.9173 144.981 71.2576L145.935 74.1544L146.989 71.6156C147.078 71.4034 147.144 71.2178 147.188 71.0587C147.232 70.8952 147.255 70.7361 147.255 70.5815C147.255 70.3959 147.202 70.2434 147.095 70.1241C146.989 70.0003 146.839 69.923 146.645 69.8921V69.4546H149.223V69.8987C149.095 69.9385 148.991 69.9871 148.912 70.0445C148.837 70.102 148.764 70.1771 148.693 70.2699C148.627 70.3627 148.545 70.5019 148.448 70.6875C148.351 70.8687 148.218 71.1449 148.05 71.5161L145.982 76.0966H144.729L142.979 71.0521C142.86 70.703 142.762 70.4644 142.687 70.3362C142.612 70.2036 142.528 70.1042 142.435 70.0379C142.347 69.9672 142.237 69.9186 142.104 69.8921V69.4546H145.412ZM156.054 74.8239C155.603 75.3012 155.156 75.6392 154.715 75.8381C154.273 76.037 153.764 76.1364 153.19 76.1364C152.16 76.1364 151.385 75.8558 150.863 75.2945C150.346 74.7289 150.088 73.8914 150.088 72.7822C150.088 72.0663 150.22 71.4498 150.485 70.9328C150.755 70.4113 151.135 70.018 151.626 69.7529C152.116 69.4833 152.686 69.3485 153.336 69.3485C153.738 69.3485 154.089 69.3949 154.39 69.4877C154.695 69.5805 154.955 69.7109 155.172 69.8788C155.389 70.0423 155.567 70.2412 155.709 70.4754C155.877 70.7538 156.003 71.072 156.087 71.43C156.175 71.7967 156.222 72.2409 156.226 72.7623H152.023C152.028 73.5622 152.169 74.1522 152.448 74.5322C152.73 74.9079 153.159 75.0957 153.734 75.0957C154.069 75.0957 154.372 75.0338 154.642 74.9101C154.911 74.7819 155.203 74.5587 155.517 74.2406L156.054 74.8239ZM154.264 72.0464C154.246 71.3703 154.158 70.8665 153.999 70.5351C153.84 70.2036 153.583 70.0379 153.23 70.0379C152.889 70.0379 152.618 70.2103 152.414 70.555C152.216 70.8997 152.096 71.3968 152.056 72.0464H154.264Z" fill="#1C1B1F"/>
<line x1="174.303" x2="174.303" y2="80" stroke="#1C1B1F" stroke-width="0.484848"/>
<path d="M189.582 27.5786C189.582 27.8128 189.589 27.9918 189.602 28.1155C189.615 28.2349 189.64 28.3321 189.675 28.4072C189.71 28.4823 189.752 28.5442 189.801 28.5928C189.854 28.637 189.925 28.679 190.013 28.7188C190.106 28.7541 190.23 28.7828 190.384 28.8049V29.2424H186.818V28.8049C186.982 28.7652 187.11 28.7188 187.203 28.6657C187.3 28.6127 187.371 28.542 187.415 28.4536C187.463 28.3608 187.494 28.2437 187.508 28.1023C187.521 27.9609 187.527 27.7841 187.527 27.572V21.8646C187.527 21.6569 187.521 21.4823 187.508 21.3409C187.499 21.1995 187.47 21.0846 187.421 20.9962C187.377 20.9078 187.306 20.8371 187.209 20.7841C187.116 20.7266 186.986 20.6758 186.818 20.6316V20.1941H193.228V22.3021H192.32C192.174 21.8823 192.05 21.5994 191.949 21.4536C191.847 21.3034 191.726 21.1862 191.584 21.1023C191.443 21.0139 191.202 20.9697 190.862 20.9697H189.582V24.3438H190.431C190.639 24.3438 190.798 24.3128 190.908 24.251C191.023 24.1847 191.116 24.0764 191.186 23.9261C191.262 23.7759 191.323 23.5638 191.372 23.2898H192.121V26.1799H191.372C191.319 25.9015 191.255 25.6872 191.18 25.5369C191.105 25.3823 191.012 25.274 190.901 25.2121C190.791 25.1503 190.634 25.1193 190.431 25.1193H189.582V27.5786ZM197.789 29.2424H194.309V28.8049C194.472 28.7607 194.6 28.7143 194.693 28.6657C194.79 28.6127 194.861 28.542 194.905 28.4536C194.954 28.3608 194.985 28.2459 194.998 28.1089C195.011 27.9675 195.018 27.7907 195.018 27.5786V21.8646C195.018 21.6569 195.011 21.4823 194.998 21.3409C194.989 21.1995 194.96 21.0846 194.912 20.9962C194.868 20.9078 194.797 20.8371 194.7 20.7841C194.607 20.7266 194.477 20.6758 194.309 20.6316V20.1941H198.173C198.695 20.1941 199.137 20.2317 199.499 20.3068C199.866 20.3775 200.186 20.488 200.46 20.6383C200.69 20.762 200.884 20.9189 201.044 21.1089C201.203 21.2945 201.324 21.5133 201.408 21.7652C201.496 22.0126 201.541 22.3021 201.541 22.6335C201.541 23.0666 201.463 23.4378 201.309 23.7472C201.158 24.0565 200.953 24.315 200.692 24.5227C200.436 24.726 200.091 24.9183 199.658 25.0994V25.1657C199.985 25.3071 200.255 25.4972 200.467 25.7358C200.683 25.97 200.878 26.2683 201.05 26.6307L201.468 27.5322C201.653 27.9344 201.837 28.2371 202.018 28.4403C202.204 28.6392 202.422 28.7607 202.674 28.8049V29.2424H200.122C199.866 28.8889 199.576 28.363 199.254 27.6648L198.737 26.5313C198.582 26.1954 198.449 25.9568 198.339 25.8153C198.228 25.6739 198.114 25.5767 197.994 25.5237C197.879 25.4707 197.7 25.4441 197.457 25.4441H197.073V27.5786C197.073 27.91 197.088 28.1421 197.119 28.2746C197.15 28.4072 197.21 28.5133 197.298 28.5928C197.387 28.6724 197.55 28.7431 197.789 28.8049V29.2424ZM197.073 20.983V24.6686H197.729C198.083 24.6686 198.374 24.6222 198.604 24.5294C198.834 24.4321 199.015 24.2996 199.148 24.1316C199.285 23.9593 199.377 23.7582 199.426 23.5284C199.479 23.2986 199.506 23.0467 199.506 22.7727C199.506 22.1717 199.364 21.721 199.081 21.4205C198.799 21.12 198.379 20.9697 197.822 20.9697C197.442 20.9697 197.192 20.9741 197.073 20.983ZM209.873 20.1941V22.3021H208.965C208.819 21.8823 208.695 21.5994 208.594 21.4536C208.492 21.3034 208.371 21.1862 208.229 21.1023C208.088 21.0139 207.847 20.9697 207.507 20.9697H206.061V24.1515H206.936C207.131 24.1515 207.283 24.125 207.394 24.072C207.504 24.0145 207.595 23.9217 207.666 23.7936C207.741 23.6654 207.811 23.4665 207.878 23.197H208.627V25.8883H207.878C207.816 25.632 207.747 25.4375 207.672 25.3049C207.597 25.1679 207.507 25.0707 207.401 25.0133C207.299 24.9558 207.144 24.9271 206.936 24.9271H206.061V28.4669H207.5C207.655 28.4669 207.785 28.458 207.891 28.4403C207.997 28.4183 208.092 28.3829 208.176 28.3343C208.26 28.2857 208.34 28.2194 208.415 28.1354C208.494 28.0515 208.563 27.9609 208.62 27.8636C208.682 27.7664 208.746 27.6383 208.812 27.4792C208.879 27.3201 208.952 27.1013 209.031 26.8229H209.939L209.813 29.2424H203.297V28.8049C203.461 28.7607 203.589 28.7143 203.682 28.6657C203.779 28.6127 203.85 28.542 203.894 28.4536C203.942 28.3608 203.973 28.2459 203.987 28.1089C204 27.9675 204.007 27.7907 204.007 27.5786V21.8646C204.007 21.6569 204 21.4823 203.987 21.3409C203.978 21.1995 203.949 21.0846 203.901 20.9962C203.856 20.9078 203.786 20.8371 203.688 20.7841C203.596 20.7266 203.465 20.6758 203.297 20.6316V20.1941H209.873ZM217.722 20.1941V22.3021H216.813C216.668 21.8823 216.544 21.5994 216.442 21.4536C216.341 21.3034 216.219 21.1862 216.078 21.1023C215.936 21.0139 215.695 20.9697 215.355 20.9697H213.91V24.1515H214.785C214.979 24.1515 215.132 24.125 215.242 24.072C215.353 24.0145 215.443 23.9217 215.514 23.7936C215.589 23.6654 215.66 23.4665 215.726 23.197H216.475V25.8883H215.726C215.664 25.632 215.596 25.4375 215.521 25.3049C215.446 25.1679 215.355 25.0707 215.249 25.0133C215.147 24.9558 214.993 24.9271 214.785 24.9271H213.91V28.4669H215.348C215.503 28.4669 215.633 28.458 215.74 28.4403C215.846 28.4183 215.941 28.3829 216.025 28.3343C216.109 28.2857 216.188 28.2194 216.263 28.1354C216.343 28.0515 216.411 27.9609 216.469 27.8636C216.531 27.7664 216.595 27.6383 216.661 27.4792C216.727 27.3201 216.8 27.1013 216.88 26.8229H217.788L217.662 29.2424H211.146V28.8049C211.309 28.7607 211.437 28.7143 211.53 28.6657C211.627 28.6127 211.698 28.542 211.742 28.4536C211.791 28.3608 211.822 28.2459 211.835 28.1089C211.848 27.9675 211.855 27.7907 211.855 27.5786V21.8646C211.855 21.6569 211.848 21.4823 211.835 21.3409C211.826 21.1995 211.798 21.0846 211.749 20.9962C211.705 20.9078 211.634 20.8371 211.537 20.7841C211.444 20.7266 211.314 20.6758 211.146 20.6316V20.1941H217.722ZM227.638 22.3684C227.704 22.1828 227.755 22.0082 227.791 21.8447C227.83 21.6812 227.85 21.5088 227.85 21.3277C227.85 21.1111 227.793 20.9454 227.678 20.8305C227.567 20.7156 227.395 20.6493 227.161 20.6316V20.1941H230.018V20.6316C229.85 20.6582 229.706 20.7134 229.587 20.7974C229.472 20.8769 229.366 20.994 229.269 21.1487C229.176 21.2989 229.066 21.5464 228.937 21.8911L226.16 29.2888H224.629L222.441 21.8646C222.344 21.5332 222.262 21.2989 222.196 21.1619C222.13 21.0205 222.044 20.9078 221.937 20.8239C221.831 20.7355 221.683 20.6714 221.493 20.6316V20.1941H225.159V20.6316C224.929 20.6582 224.759 20.7222 224.649 20.8239C224.538 20.9255 224.483 21.0691 224.483 21.2547C224.483 21.4006 224.496 21.5442 224.523 21.6856C224.549 21.8226 224.604 22.0436 224.688 22.3485L226.001 27.108L227.638 22.3684ZM233.372 27.5786C233.372 27.7333 233.377 27.8769 233.385 28.0095C233.394 28.1421 233.412 28.2503 233.438 28.3343C233.465 28.4183 233.502 28.489 233.551 28.5464C233.604 28.6039 233.675 28.6547 233.763 28.6989C233.852 28.7386 233.96 28.774 234.088 28.8049V29.2424H230.608V28.8049C230.771 28.7607 230.9 28.7143 230.992 28.6657C231.09 28.6127 231.16 28.542 231.204 28.4536C231.253 28.3608 231.284 28.2459 231.297 28.1089C231.311 27.9675 231.317 27.7907 231.317 27.5786V21.858C231.317 21.6458 231.311 21.4713 231.297 21.3343C231.288 21.1973 231.26 21.0846 231.211 20.9962C231.167 20.9034 231.096 20.8305 230.999 20.7775C230.906 20.7244 230.776 20.6758 230.608 20.6316V20.1941H234.088V20.6316C233.907 20.6802 233.772 20.7333 233.684 20.7907C233.6 20.8438 233.536 20.91 233.491 20.9896C233.447 21.0691 233.416 21.173 233.399 21.3011C233.381 21.4293 233.372 21.6171 233.372 21.8646V27.5786ZM236.183 27.0085C236.293 27.5344 236.477 27.9277 236.733 28.1885C236.994 28.4448 237.374 28.5729 237.873 28.5729C238.134 28.5729 238.368 28.5287 238.576 28.4403C238.783 28.352 238.949 28.2106 239.073 28.0161C239.201 27.8172 239.265 27.5698 239.265 27.2737C239.265 26.9997 239.214 26.7633 239.113 26.5644C239.011 26.3611 238.847 26.1689 238.622 25.9877C238.397 25.8065 238.083 25.6143 237.681 25.411C237.336 25.2386 237.025 25.0597 236.746 24.8741C236.468 24.6885 236.229 24.4852 236.03 24.2642C235.836 24.0388 235.683 23.7936 235.573 23.5284C235.467 23.2633 235.414 22.965 235.414 22.6335C235.414 22.09 235.549 21.6282 235.818 21.2481C236.088 20.8681 236.477 20.5808 236.985 20.3864C237.497 20.1875 238.09 20.0881 238.761 20.0881C239.155 20.0881 239.53 20.1102 239.888 20.1544C240.246 20.1941 240.655 20.2671 241.115 20.3731V22.2955H240.206C240.122 21.9463 240.014 21.6701 239.882 21.4669C239.753 21.2592 239.592 21.1067 239.398 21.0095C239.203 20.9123 238.958 20.8636 238.662 20.8636C238.41 20.8636 238.185 20.9078 237.986 20.9962C237.787 21.0846 237.63 21.2172 237.515 21.3939C237.4 21.5663 237.343 21.7762 237.343 22.0237C237.343 22.28 237.391 22.5032 237.489 22.6932C237.59 22.8788 237.758 23.0622 237.992 23.2434C238.227 23.4201 238.567 23.6234 239.013 23.8532C239.557 24.1361 239.983 24.4145 240.293 24.6885C240.606 24.958 240.836 25.2541 240.982 25.5767C241.132 25.8949 241.207 26.2661 241.207 26.6903C241.207 27.2339 241.081 27.7068 240.829 28.1089C240.578 28.5066 240.211 28.8138 239.729 29.0303C239.247 29.2424 238.691 29.3485 238.059 29.3485C237.608 29.3485 237.137 29.322 236.647 29.2689C236.161 29.2203 235.703 29.1474 235.275 29.0502V27.0085H236.183ZM246.829 26.4385H243.998L243.779 27.0682C243.717 27.245 243.667 27.4173 243.627 27.5852C243.587 27.7487 243.567 27.9233 243.567 28.1089C243.567 28.542 243.797 28.774 244.257 28.8049V29.2424H241.426V28.8049C241.59 28.7873 241.733 28.7298 241.857 28.6326C241.981 28.5354 242.093 28.4028 242.195 28.2349C242.297 28.0669 242.405 27.8261 242.52 27.5123L245.284 20.1477H247.054L249.241 27.572C249.339 27.9034 249.42 28.1398 249.487 28.2813C249.553 28.4183 249.639 28.5309 249.745 28.6193C249.851 28.7033 249.999 28.7652 250.189 28.8049V29.2424H246.53V28.8049C246.76 28.7784 246.93 28.7143 247.041 28.6127C247.151 28.5111 247.206 28.3674 247.206 28.1818C247.206 28.0448 247.191 27.8924 247.16 27.7244C247.129 27.5565 247.078 27.3444 247.008 27.0881L246.829 26.4385ZM244.25 25.6629H246.636L245.576 21.9309L244.25 25.6629ZM259.536 28.5C259.072 28.8182 258.621 29.0391 258.184 29.1629C257.746 29.2866 257.24 29.3485 256.666 29.3485C255.782 29.3485 255.095 29.1607 254.604 28.785C254.118 28.4094 253.875 27.8769 253.875 27.1875C253.875 26.9665 253.904 26.7611 253.961 26.571C254.023 26.381 254.109 26.202 254.22 26.0341C254.33 25.8617 254.469 25.696 254.637 25.5369C254.805 25.3734 255.002 25.2165 255.227 25.0663C255.457 24.9116 255.773 24.7282 256.175 24.5161C255.923 24.1714 255.742 23.8952 255.632 23.6875C255.526 23.4798 255.444 23.2677 255.386 23.0511C255.329 22.8302 255.3 22.596 255.3 22.3485C255.3 21.9154 255.422 21.5287 255.665 21.1885C255.908 20.8438 256.259 20.5742 256.719 20.3797C257.178 20.1809 257.68 20.0814 258.223 20.0814C258.939 20.0814 259.503 20.2295 259.914 20.5256C260.325 20.8172 260.53 21.2393 260.53 21.7917C260.53 21.995 260.499 22.185 260.437 22.3618C260.38 22.5385 260.278 22.7197 260.133 22.9053C259.991 23.0865 259.801 23.2699 259.562 23.4555C259.328 23.6367 258.933 23.893 258.376 24.2244C258.654 24.5912 258.995 25.0111 259.397 25.4839C259.803 25.9523 260.15 26.3412 260.437 26.6506C260.636 26.4075 260.782 26.1733 260.875 25.9479C260.972 25.7181 261.021 25.4839 261.021 25.2453C261.021 25.0155 260.97 24.8498 260.868 24.7481C260.771 24.6465 260.614 24.589 260.398 24.5758V24.1383H262.466V24.5227C262.466 24.5802 262.446 24.7039 262.406 24.8939C262.38 25.0133 262.347 25.1326 262.307 25.2519C262.271 25.3756 262.229 25.495 262.181 25.6099C262.132 25.7292 262.077 25.8441 262.015 25.9546C261.953 26.0695 261.887 26.1821 261.816 26.2926C261.746 26.4031 261.668 26.5114 261.584 26.6174C261.496 26.7279 261.403 26.8362 261.306 26.9422C261.204 27.0483 261.1 27.1499 260.994 27.2472C261.189 27.4725 261.357 27.6515 261.498 27.7841C261.644 27.9167 261.772 28.0117 261.883 28.0691C261.993 28.1266 262.106 28.1553 262.221 28.1553C262.327 28.1553 262.426 28.1332 262.519 28.089C262.612 28.0404 262.742 27.9432 262.91 27.7974L263.341 28.3409C262.992 28.6945 262.658 28.9508 262.34 29.1099C262.022 29.2689 261.695 29.3485 261.359 29.3485C260.992 29.3485 260.674 29.28 260.404 29.143C260.135 29.006 259.845 28.7917 259.536 28.5ZM257.899 23.5748C258.336 23.3097 258.661 23.0246 258.873 22.7197C259.085 22.4148 259.191 22.1054 259.191 21.7917C259.191 21.4779 259.109 21.2304 258.946 21.0493C258.782 20.8636 258.566 20.7708 258.296 20.7708C258.111 20.7708 257.941 20.815 257.786 20.9034C257.631 20.9874 257.508 21.12 257.415 21.3011C257.322 21.4779 257.276 21.6967 257.276 21.9574C257.276 22.2314 257.322 22.4899 257.415 22.733C257.512 22.976 257.673 23.2566 257.899 23.5748ZM258.913 27.8769C258.573 27.488 258.175 27.0218 257.72 26.4782C257.269 25.9302 256.924 25.5016 256.686 25.1922C256.42 25.3999 256.224 25.632 256.096 25.8883C255.972 26.1446 255.91 26.4296 255.91 26.7434C255.91 27.2207 256.049 27.5941 256.328 27.8636C256.61 28.1332 256.995 28.268 257.481 28.268C257.773 28.268 258.025 28.2371 258.237 28.1752C258.453 28.1089 258.679 28.0095 258.913 27.8769ZM271.726 26.4385H268.896L268.677 27.0682C268.615 27.245 268.564 27.4173 268.525 27.5852C268.485 27.7487 268.465 27.9233 268.465 28.1089C268.465 28.542 268.695 28.774 269.154 28.8049V29.2424H266.324V28.8049C266.487 28.7873 266.631 28.7298 266.755 28.6326C266.878 28.5354 266.991 28.4028 267.093 28.2349C267.194 28.0669 267.303 27.8261 267.418 27.5123L270.182 20.1477H271.952L274.139 27.572C274.236 27.9034 274.318 28.1398 274.384 28.2813C274.451 28.4183 274.537 28.5309 274.643 28.6193C274.749 28.7033 274.897 28.7652 275.087 28.8049V29.2424H271.428V28.8049C271.658 28.7784 271.828 28.7143 271.938 28.6127C272.049 28.5111 272.104 28.3674 272.104 28.1818C272.104 28.0448 272.089 27.8924 272.058 27.7244C272.027 27.5565 271.976 27.3444 271.905 27.0881L271.726 26.4385ZM269.148 25.6629H271.534L270.473 21.9309L269.148 25.6629ZM279.316 20.1941C280.054 20.1941 280.671 20.2516 281.166 20.3665C281.661 20.4814 282.1 20.6626 282.485 20.91C282.869 21.1575 283.179 21.4536 283.413 21.7983C283.651 22.1386 283.828 22.5363 283.943 22.9915C284.058 23.4422 284.115 23.9527 284.115 24.5227C284.115 25.2121 284.034 25.8308 283.87 26.3788C283.711 26.9268 283.47 27.3952 283.148 27.7841C282.86 28.1332 282.507 28.4205 282.087 28.6458C281.672 28.8712 281.192 29.0303 280.649 29.1231C280.18 29.2027 279.59 29.2424 278.879 29.2424H275.869V28.8049C276.033 28.7607 276.161 28.7143 276.254 28.6657C276.351 28.6127 276.422 28.542 276.466 28.4536C276.514 28.3608 276.545 28.2459 276.559 28.1089C276.572 27.9675 276.579 27.7907 276.579 27.5786V21.8646C276.579 21.6569 276.572 21.4823 276.559 21.3409C276.55 21.1995 276.521 21.0846 276.472 20.9962C276.428 20.9078 276.358 20.8371 276.26 20.7841C276.168 20.7266 276.037 20.6758 275.869 20.6316V20.1941H279.316ZM278.633 28.4403C278.713 28.4536 278.914 28.4602 279.237 28.4602C279.723 28.4602 280.132 28.3895 280.463 28.2481C280.71 28.1421 280.92 27.9962 281.093 27.8106C281.38 27.5057 281.597 27.1102 281.742 26.6241C281.901 26.0938 281.981 25.4463 281.981 24.6818C281.981 23.8422 281.868 23.1462 281.643 22.5938C281.418 22.0369 281.099 21.6282 280.688 21.3674C280.282 21.1023 279.794 20.9697 279.223 20.9697C278.949 20.9697 278.753 20.9741 278.633 20.983V28.4403ZM295.65 20.6316C295.415 20.6979 295.256 20.7708 295.172 20.8504C295.088 20.9255 295.029 21.0294 294.993 21.1619C294.962 21.2901 294.947 21.5199 294.947 21.8513V27.5852C294.947 27.8548 294.96 28.0691 294.987 28.2282C295.013 28.3829 295.066 28.5022 295.146 28.5862C295.23 28.6657 295.398 28.7386 295.65 28.8049V29.2424H292.249V28.8049C292.443 28.7519 292.578 28.7055 292.653 28.6657C292.728 28.626 292.786 28.5751 292.826 28.5133C292.87 28.447 292.901 28.3498 292.918 28.2216C292.941 28.089 292.952 27.8725 292.952 27.572V24.3239C292.952 23.9659 292.958 23.5439 292.972 23.0578C292.985 22.5717 292.998 22.227 293.011 22.0237H292.872C292.819 22.2004 292.762 22.375 292.7 22.5474C292.642 22.7153 292.532 23.018 292.368 23.4555L290.592 28.2415H289.425L287.556 22.8655C287.445 22.5606 287.348 22.2579 287.264 21.9574H287.145C287.189 22.6866 287.211 23.5483 287.211 24.5426V27.5919C287.211 27.9189 287.227 28.1465 287.258 28.2746C287.288 28.4028 287.35 28.5088 287.443 28.5928C287.536 28.6768 287.697 28.7475 287.927 28.8049V29.2424H285.421V28.8049C285.585 28.7607 285.713 28.7121 285.806 28.6591C285.903 28.6061 285.976 28.5354 286.025 28.447C286.073 28.3586 286.102 28.2459 286.111 28.1089C286.124 27.9719 286.131 27.7974 286.131 27.5852V21.8513C286.131 21.5155 286.115 21.2857 286.084 21.1619C286.058 21.0382 286.002 20.9366 285.918 20.857C285.835 20.7775 285.669 20.7023 285.421 20.6316V20.1941H288.716L290.552 25.6364L292.541 20.1941H295.65V20.6316ZM299.7 27.5786C299.7 27.7333 299.704 27.8769 299.713 28.0095C299.722 28.1421 299.74 28.2503 299.766 28.3343C299.793 28.4183 299.83 28.489 299.879 28.5464C299.932 28.6039 300.002 28.6547 300.091 28.6989C300.179 28.7386 300.287 28.774 300.416 28.8049V29.2424H296.936V28.8049C297.099 28.7607 297.227 28.7143 297.32 28.6657C297.417 28.6127 297.488 28.542 297.532 28.4536C297.581 28.3608 297.612 28.2459 297.625 28.1089C297.638 27.9675 297.645 27.7907 297.645 27.5786V21.858C297.645 21.6458 297.638 21.4713 297.625 21.3343C297.616 21.1973 297.587 21.0846 297.539 20.9962C297.495 20.9034 297.424 20.8305 297.327 20.7775C297.234 20.7244 297.103 20.6758 296.936 20.6316V20.1941H300.416V20.6316C300.234 20.6802 300.1 20.7333 300.011 20.7907C299.927 20.8438 299.863 20.91 299.819 20.9896C299.775 21.0691 299.744 21.173 299.726 21.3011C299.709 21.4293 299.7 21.6171 299.7 21.8646V27.5786ZM302.51 27.0085C302.621 27.5344 302.804 27.9277 303.061 28.1885C303.321 28.4448 303.701 28.5729 304.201 28.5729C304.461 28.5729 304.696 28.5287 304.903 28.4403C305.111 28.352 305.277 28.2106 305.401 28.0161C305.529 27.8172 305.593 27.5698 305.593 27.2737C305.593 26.9997 305.542 26.7633 305.44 26.5644C305.339 26.3611 305.175 26.1689 304.95 25.9877C304.724 25.8065 304.411 25.6143 304.008 25.411C303.664 25.2386 303.352 25.0597 303.074 24.8741C302.795 24.6885 302.557 24.4852 302.358 24.2642C302.163 24.0388 302.011 23.7936 301.901 23.5284C301.794 23.2633 301.741 22.965 301.741 22.6335C301.741 22.09 301.876 21.6282 302.146 21.2481C302.415 20.8681 302.804 20.5808 303.312 20.3864C303.825 20.1875 304.417 20.0881 305.089 20.0881C305.482 20.0881 305.858 20.1102 306.216 20.1544C306.574 20.1941 306.983 20.2671 307.442 20.3731V22.2955H306.534C306.45 21.9463 306.342 21.6701 306.209 21.4669C306.081 21.2592 305.92 21.1067 305.725 21.0095C305.531 20.9123 305.286 20.8636 304.99 20.8636C304.738 20.8636 304.512 20.9078 304.313 20.9962C304.115 21.0846 303.958 21.2172 303.843 21.3939C303.728 21.5663 303.67 21.7762 303.67 22.0237C303.67 22.28 303.719 22.5032 303.816 22.6932C303.918 22.8788 304.086 23.0622 304.32 23.2434C304.554 23.4201 304.895 23.6234 305.341 23.8532C305.884 24.1361 306.311 24.4145 306.62 24.6885C306.934 24.958 307.164 25.2541 307.31 25.5767C307.46 25.8949 307.535 26.2661 307.535 26.6903C307.535 27.2339 307.409 27.7068 307.157 28.1089C306.905 28.5066 306.538 28.8138 306.057 29.0303C305.575 29.2424 305.018 29.3485 304.386 29.3485C303.936 29.3485 303.465 29.322 302.974 29.2689C302.488 29.2203 302.031 29.1474 301.602 29.0502V27.0085H302.51ZM309.484 27.0085C309.594 27.5344 309.778 27.9277 310.034 28.1885C310.295 28.4448 310.675 28.5729 311.174 28.5729C311.435 28.5729 311.669 28.5287 311.877 28.4403C312.085 28.352 312.25 28.2106 312.374 28.0161C312.502 27.8172 312.566 27.5698 312.566 27.2737C312.566 26.9997 312.515 26.7633 312.414 26.5644C312.312 26.3611 312.149 26.1689 311.923 25.9877C311.698 25.8065 311.384 25.6143 310.982 25.411C310.637 25.2386 310.326 25.0597 310.047 24.8741C309.769 24.6885 309.53 24.4852 309.331 24.2642C309.137 24.0388 308.984 23.7936 308.874 23.5284C308.768 23.2633 308.715 22.965 308.715 22.6335C308.715 22.09 308.85 21.6282 309.119 21.2481C309.389 20.8681 309.778 20.5808 310.286 20.3864C310.799 20.1875 311.391 20.0881 312.062 20.0881C312.456 20.0881 312.831 20.1102 313.189 20.1544C313.547 20.1941 313.956 20.2671 314.416 20.3731V22.2955H313.508C313.424 21.9463 313.315 21.6701 313.183 21.4669C313.055 21.2592 312.893 21.1067 312.699 21.0095C312.504 20.9123 312.259 20.8636 311.963 20.8636C311.711 20.8636 311.486 20.9078 311.287 20.9962C311.088 21.0846 310.931 21.2172 310.816 21.3939C310.701 21.5663 310.644 21.7762 310.644 22.0237C310.644 22.28 310.692 22.5032 310.79 22.6932C310.891 22.8788 311.059 23.0622 311.293 23.2434C311.528 23.4201 311.868 23.6234 312.314 23.8532C312.858 24.1361 313.284 24.4145 313.594 24.6885C313.907 24.958 314.137 25.2541 314.283 25.5767C314.433 25.8949 314.508 26.2661 314.508 26.6903C314.508 27.2339 314.383 27.7068 314.131 28.1089C313.879 28.5066 313.512 28.8138 313.03 29.0303C312.549 29.2424 311.992 29.3485 311.36 29.3485C310.909 29.3485 310.438 29.322 309.948 29.2689C309.462 29.2203 309.004 29.1474 308.576 29.0502V27.0085H309.484ZM318.393 27.5786C318.393 27.7333 318.397 27.8769 318.406 28.0095C318.415 28.1421 318.433 28.2503 318.459 28.3343C318.486 28.4183 318.523 28.489 318.572 28.5464C318.625 28.6039 318.696 28.6547 318.784 28.6989C318.872 28.7386 318.981 28.774 319.109 28.8049V29.2424H315.629V28.8049C315.792 28.7607 315.92 28.7143 316.013 28.6657C316.11 28.6127 316.181 28.542 316.225 28.4536C316.274 28.3608 316.305 28.2459 316.318 28.1089C316.331 27.9675 316.338 27.7907 316.338 27.5786V21.858C316.338 21.6458 316.331 21.4713 316.318 21.3343C316.309 21.1973 316.281 21.0846 316.232 20.9962C316.188 20.9034 316.117 20.8305 316.02 20.7775C315.927 20.7244 315.797 20.6758 315.629 20.6316V20.1941H319.109V20.6316C318.928 20.6802 318.793 20.7333 318.704 20.7907C318.621 20.8438 318.556 20.91 318.512 20.9896C318.468 21.0691 318.437 21.173 318.419 21.3011C318.402 21.4293 318.393 21.6171 318.393 21.8646V27.5786ZM324.346 29.3485C323.046 29.3485 322.07 28.9684 321.416 28.2083C320.766 27.4482 320.441 26.3103 320.441 24.7945C320.441 23.8002 320.598 22.9517 320.912 22.2491C321.23 21.542 321.696 21.0051 322.311 20.6383C322.925 20.2715 323.656 20.0881 324.505 20.0881C325.826 20.0881 326.818 20.4681 327.481 21.2282C328.144 21.9839 328.475 23.1086 328.475 24.6023C328.475 25.4375 328.376 26.1556 328.177 26.7566C327.983 27.3532 327.704 27.8438 327.342 28.2282C326.979 28.6127 326.544 28.8955 326.036 29.0767C325.532 29.2579 324.969 29.3485 324.346 29.3485ZM322.549 24.6155C322.549 25.9501 322.708 26.9445 323.026 27.5985C323.349 28.2481 323.84 28.5729 324.498 28.5729C324.838 28.5729 325.128 28.4823 325.366 28.3011C325.605 28.1155 325.797 27.8592 325.943 27.5322C326.093 27.2008 326.199 26.8097 326.261 26.3589C326.328 25.9082 326.361 25.4132 326.361 24.8741C326.361 23.9946 326.29 23.2588 326.149 22.6667C326.012 22.0701 325.802 21.6215 325.519 21.321C325.24 21.0161 324.883 20.8636 324.445 20.8636C323.804 20.8636 323.327 21.1708 323.013 21.785C322.704 22.3949 322.549 23.3384 322.549 24.6155ZM337.848 20.1941V20.6316C337.672 20.6891 337.546 20.7377 337.471 20.7775C337.4 20.8172 337.338 20.8703 337.285 20.9366C337.236 21.0028 337.199 21.1045 337.172 21.2415C337.146 21.3741 337.133 21.5796 337.133 21.858V29.2424H335.449L332.466 24.0852C332.064 23.387 331.768 22.839 331.578 22.4413H331.518C331.562 23.3914 331.584 24.3946 331.584 25.4508V27.5852C331.584 27.9167 331.6 28.1487 331.631 28.2813C331.666 28.4138 331.726 28.5199 331.81 28.5994C331.898 28.6746 332.061 28.7431 332.3 28.8049V29.2424H329.794V28.8049C329.958 28.7607 330.086 28.7121 330.179 28.6591C330.276 28.6061 330.347 28.5354 330.391 28.447C330.44 28.3542 330.471 28.2393 330.484 28.1023C330.497 27.9653 330.504 27.7929 330.504 27.5852V21.8513C330.504 21.5199 330.488 21.2923 330.457 21.1686C330.431 21.0404 330.371 20.9344 330.278 20.8504C330.19 20.7664 330.029 20.6935 329.794 20.6316V20.1941H332.479L334.826 24.2708C334.972 24.5272 335.162 24.8741 335.396 25.3116C335.63 25.7491 335.838 26.1623 336.019 26.5511H336.125C336.076 25.495 336.052 24.3415 336.052 23.0909V21.858C336.052 21.5707 336.041 21.363 336.019 21.2349C335.997 21.1067 335.961 21.0095 335.913 20.9432C335.869 20.8769 335.807 20.8217 335.727 20.7775C335.652 20.7333 335.524 20.6847 335.343 20.6316V20.1941H337.848Z" fill="#1C1B1F"/>
<path d="M191.531 57.9536H188.701L188.482 58.5833C188.42 58.7601 188.369 58.9324 188.329 59.1004C188.29 59.2639 188.27 59.4384 188.27 59.624C188.27 60.0571 188.5 60.2891 188.959 60.3201V60.7576H186.129V60.3201C186.292 60.3024 186.436 60.2449 186.56 60.1477C186.683 60.0505 186.796 59.9179 186.898 59.75C186.999 59.5821 187.108 59.3412 187.222 59.0275L189.987 51.6629H191.757L193.944 59.0871C194.041 59.4186 194.123 59.655 194.189 59.7964C194.256 59.9334 194.342 60.0461 194.448 60.1345C194.554 60.2184 194.702 60.2803 194.892 60.3201V60.7576H191.233V60.3201C191.463 60.2936 191.633 60.2295 191.743 60.1278C191.854 60.0262 191.909 59.8826 191.909 59.697C191.909 59.56 191.894 59.4075 191.863 59.2396C191.832 59.0716 191.781 58.8595 191.71 58.6032L191.531 57.9536ZM188.953 57.178H191.339L190.278 53.446L188.953 57.178ZM198.438 59.1004C198.438 59.392 198.449 59.5997 198.472 59.7235C198.494 59.8428 198.529 59.94 198.578 60.0151C198.631 60.0859 198.704 60.1455 198.796 60.1941C198.894 60.2427 199.042 60.2847 199.24 60.3201V60.7576H195.674V60.3201C195.838 60.2759 195.966 60.2295 196.059 60.1809C196.156 60.1278 196.227 60.0571 196.271 59.9687C196.319 59.8759 196.35 59.761 196.364 59.624C196.377 59.4826 196.383 59.3059 196.383 59.0937V53.3797C196.383 53.172 196.377 52.9975 196.364 52.8561C196.355 52.7146 196.326 52.5997 196.277 52.5114C196.233 52.423 196.163 52.3523 196.065 52.2992C195.972 52.2418 195.842 52.191 195.674 52.1468V51.7093H199.526C200.644 51.7093 201.481 51.9103 202.038 52.3125C202.595 52.7102 202.873 53.3245 202.873 54.1553C202.873 54.743 202.743 55.2535 202.482 55.6865C202.221 56.1196 201.843 56.4489 201.348 56.6742C200.853 56.8952 200.235 57.0057 199.492 57.0057C199.064 57.0057 198.712 56.9968 198.438 56.9792V59.1004ZM198.438 56.2301H199.008C199.45 56.2301 199.802 56.1682 200.062 56.0445C200.323 55.9163 200.515 55.7153 200.639 55.4413C200.767 55.1673 200.831 54.7983 200.831 54.3343C200.831 53.8747 200.767 53.5101 200.639 53.2405C200.515 52.9665 200.332 52.7721 200.089 52.6572C199.846 52.5423 199.534 52.4848 199.154 52.4848C198.845 52.4848 198.606 52.4893 198.438 52.4981V56.2301ZM206.777 59.1004C206.777 59.392 206.788 59.5997 206.811 59.7235C206.833 59.8428 206.868 59.94 206.917 60.0151C206.97 60.0859 207.043 60.1455 207.135 60.1941C207.233 60.2427 207.381 60.2847 207.579 60.3201V60.7576H204.013V60.3201C204.177 60.2759 204.305 60.2295 204.398 60.1809C204.495 60.1278 204.566 60.0571 204.61 59.9687C204.658 59.8759 204.689 59.761 204.703 59.624C204.716 59.4826 204.722 59.3059 204.722 59.0937V53.3797C204.722 53.172 204.716 52.9975 204.703 52.8561C204.694 52.7146 204.665 52.5997 204.616 52.5114C204.572 52.423 204.502 52.3523 204.404 52.2992C204.311 52.2418 204.181 52.191 204.013 52.1468V51.7093H207.865C208.983 51.7093 209.82 51.9103 210.377 52.3125C210.934 52.7102 211.212 53.3245 211.212 54.1553C211.212 54.743 211.082 55.2535 210.821 55.6865C210.56 56.1196 210.182 56.4489 209.687 56.6742C209.192 56.8952 208.574 57.0057 207.831 57.0057C207.403 57.0057 207.051 56.9968 206.777 56.9792V59.1004ZM206.777 56.2301H207.347C207.789 56.2301 208.141 56.1682 208.401 56.0445C208.662 55.9163 208.854 55.7153 208.978 55.4413C209.106 55.1673 209.17 54.7983 209.17 54.3343C209.17 53.8747 209.106 53.5101 208.978 53.2405C208.854 52.9665 208.671 52.7721 208.428 52.6572C208.185 52.5423 207.873 52.4848 207.493 52.4848C207.184 52.4848 206.945 52.4893 206.777 52.4981V56.2301ZM215.832 51.7093V52.1468C215.673 52.191 215.547 52.2396 215.454 52.2926C215.362 52.3412 215.289 52.4097 215.236 52.4981C215.187 52.5865 215.154 52.7014 215.136 52.8428C215.123 52.9798 215.116 53.1543 215.116 53.3665V59.9687H216.402C216.659 59.9687 216.864 59.929 217.019 59.8494C217.174 59.7699 217.306 59.6484 217.417 59.4848C217.532 59.3169 217.629 59.1004 217.708 58.8352C217.792 58.5656 217.859 58.3138 217.907 58.0795H218.815L218.669 60.7576H212.352V60.3201C212.516 60.2759 212.644 60.2273 212.737 60.1742C212.834 60.1212 212.905 60.0505 212.949 59.9621C212.997 59.8693 213.028 59.7544 213.042 59.6174C213.055 59.476 213.061 59.2992 213.061 59.0871V53.3797C213.061 53.172 213.055 52.9975 213.042 52.8561C213.033 52.7146 213.004 52.5997 212.955 52.5114C212.911 52.423 212.841 52.3523 212.743 52.2992C212.651 52.2418 212.52 52.191 212.352 52.1468V51.7093H215.832ZM222.594 59.0937C222.594 59.2484 222.598 59.392 222.607 59.5246C222.616 59.6572 222.633 59.7655 222.66 59.8494C222.686 59.9334 222.724 60.0041 222.773 60.0615C222.826 60.119 222.896 60.1698 222.985 60.214C223.073 60.2538 223.181 60.2891 223.31 60.3201V60.7576H219.829V60.3201C219.993 60.2759 220.121 60.2295 220.214 60.1809C220.311 60.1278 220.382 60.0571 220.426 59.9687C220.475 59.8759 220.506 59.761 220.519 59.624C220.532 59.4826 220.539 59.3059 220.539 59.0937V53.3731C220.539 53.161 220.532 52.9864 220.519 52.8494C220.51 52.7124 220.481 52.5997 220.433 52.5114C220.389 52.4186 220.318 52.3456 220.221 52.2926C220.128 52.2396 219.997 52.191 219.829 52.1468V51.7093H223.31V52.1468C223.128 52.1954 222.994 52.2484 222.905 52.3059C222.821 52.3589 222.757 52.4252 222.713 52.5047C222.669 52.5843 222.638 52.6881 222.62 52.8163C222.603 52.9444 222.594 53.1323 222.594 53.3797V59.0937ZM231.158 51.9148V53.8371H230.257C230.151 53.3377 229.983 52.971 229.753 52.7367C229.523 52.4981 229.222 52.3788 228.851 52.3788C228.153 52.3788 227.625 52.7146 227.267 53.3864C226.909 54.0537 226.73 55.0458 226.73 56.3627C226.73 57.5868 226.894 58.5148 227.221 59.1468C227.548 59.7743 228.027 60.0881 228.659 60.0881C228.982 60.0881 229.245 60.035 229.448 59.929C229.651 59.8185 229.812 59.655 229.932 59.4384C230.056 59.2219 230.162 58.917 230.25 58.5237H231.158V60.5322C230.672 60.6471 230.228 60.7311 229.826 60.7841C229.424 60.8371 229.006 60.8636 228.573 60.8636C227.654 60.8636 226.902 60.6979 226.319 60.3665C225.74 60.035 225.311 59.5357 225.033 58.8684C224.759 58.1966 224.622 57.3482 224.622 56.3229C224.622 55.3639 224.783 54.5309 225.106 53.8239C225.433 53.1124 225.913 52.5644 226.544 52.1799C227.176 51.7954 227.932 51.6032 228.811 51.6032C229.258 51.6032 229.662 51.6275 230.025 51.6761C230.387 51.7247 230.765 51.8043 231.158 51.9148ZM237.071 57.9536H234.24L234.022 58.5833C233.96 58.7601 233.909 58.9324 233.869 59.1004C233.829 59.2639 233.81 59.4384 233.81 59.624C233.81 60.0571 234.039 60.2891 234.499 60.3201V60.7576H231.669V60.3201C231.832 60.3024 231.976 60.2449 232.099 60.1477C232.223 60.0505 232.336 59.9179 232.437 59.75C232.539 59.5821 232.647 59.3412 232.762 59.0275L235.526 51.6629H237.296L239.484 59.0871C239.581 59.4186 239.663 59.655 239.729 59.7964C239.795 59.9334 239.882 60.0461 239.988 60.1345C240.094 60.2184 240.242 60.2803 240.432 60.3201V60.7576H236.773V60.3201C237.002 60.2936 237.173 60.2295 237.283 60.1278C237.394 60.0262 237.449 59.8826 237.449 59.697C237.449 59.56 237.433 59.4075 237.402 59.2396C237.371 59.0716 237.321 58.8595 237.25 58.6032L237.071 57.9536ZM234.492 57.178H236.879L235.818 53.446L234.492 57.178ZM241.99 60.7576V60.3201C242.175 60.2891 242.321 60.2494 242.427 60.2008C242.538 60.1477 242.619 60.0748 242.672 59.982C242.725 59.8892 242.758 59.7721 242.772 59.6307C242.785 59.4848 242.792 59.3059 242.792 59.0937V52.4848H242.255C241.99 52.4848 241.786 52.5158 241.645 52.5776C241.503 52.6395 241.38 52.7367 241.274 52.8693C241.172 53.0019 241.084 53.1809 241.008 53.4062C240.933 53.6272 240.871 53.8371 240.823 54.036H239.915V51.7093H247.717V54.036H246.809C246.725 53.7355 246.658 53.5145 246.61 53.3731C246.561 53.2317 246.506 53.1124 246.444 53.0151C246.387 52.9135 246.325 52.8295 246.258 52.7633C246.192 52.697 246.121 52.6439 246.046 52.6042C245.971 52.5644 245.876 52.5357 245.761 52.518C245.651 52.4959 245.505 52.4848 245.324 52.4848H244.847V59.0937C244.847 59.328 244.853 59.5069 244.866 59.6307C244.88 59.75 244.904 59.8472 244.939 59.9223C244.975 59.9975 245.017 60.0593 245.065 60.1079C245.118 60.1521 245.189 60.1941 245.277 60.2339C245.37 60.2692 245.494 60.298 245.649 60.3201V60.7576H241.99ZM251.561 59.0937C251.561 59.2484 251.566 59.392 251.575 59.5246C251.584 59.6572 251.601 59.7655 251.628 59.8494C251.654 59.9334 251.692 60.0041 251.74 60.0615C251.794 60.119 251.864 60.1698 251.953 60.214C252.041 60.2538 252.149 60.2891 252.277 60.3201V60.7576H248.797V60.3201C248.961 60.2759 249.089 60.2295 249.182 60.1809C249.279 60.1278 249.35 60.0571 249.394 59.9687C249.442 59.8759 249.473 59.761 249.487 59.624C249.5 59.4826 249.507 59.3059 249.507 59.0937V53.3731C249.507 53.161 249.5 52.9864 249.487 52.8494C249.478 52.7124 249.449 52.5997 249.401 52.5114C249.356 52.4186 249.286 52.3456 249.188 52.2926C249.096 52.2396 248.965 52.191 248.797 52.1468V51.7093H252.277V52.1468C252.096 52.1954 251.961 52.2484 251.873 52.3059C251.789 52.3589 251.725 52.4252 251.681 52.5047C251.637 52.5843 251.606 52.6881 251.588 52.8163C251.57 52.9444 251.561 53.1323 251.561 53.3797V59.0937ZM257.514 60.8636C256.215 60.8636 255.238 60.4836 254.584 59.7235C253.935 58.9634 253.61 57.8254 253.61 56.3097C253.61 55.3153 253.767 54.4668 254.08 53.7642C254.399 53.0571 254.865 52.5202 255.479 52.1534C256.093 51.7866 256.825 51.6032 257.673 51.6032C258.995 51.6032 259.987 51.9833 260.65 52.7434C261.312 53.499 261.644 54.6237 261.644 56.1174C261.644 56.9526 261.544 57.6708 261.346 58.2718C261.151 58.8684 260.873 59.3589 260.51 59.7434C260.148 60.1278 259.713 60.4107 259.204 60.5918C258.701 60.773 258.137 60.8636 257.514 60.8636ZM255.718 56.1307C255.718 57.4653 255.877 58.4596 256.195 59.1136C256.518 59.7633 257.008 60.0881 257.667 60.0881C258.007 60.0881 258.296 59.9975 258.535 59.8163C258.774 59.6307 258.966 59.3744 259.112 59.0473C259.262 58.7159 259.368 58.3248 259.43 57.874C259.496 57.4233 259.529 56.9283 259.529 56.3892C259.529 55.5098 259.459 54.774 259.317 54.1818C259.18 53.5852 258.97 53.1367 258.687 52.8362C258.409 52.5312 258.051 52.3788 257.614 52.3788C256.973 52.3788 256.496 52.6859 256.182 53.3002C255.872 53.91 255.718 54.8535 255.718 56.1307ZM271.017 51.7093V52.1468C270.84 52.2042 270.714 52.2528 270.639 52.2926C270.568 52.3324 270.507 52.3854 270.454 52.4517C270.405 52.518 270.367 52.6196 270.341 52.7566C270.314 52.8892 270.301 53.0947 270.301 53.3731V60.7576H268.617L265.634 55.6004C265.232 54.9021 264.936 54.3542 264.746 53.9564H264.686C264.731 54.9066 264.753 55.9097 264.753 56.9659V59.1004C264.753 59.4318 264.768 59.6638 264.799 59.7964C264.835 59.929 264.894 60.035 264.978 60.1146C265.067 60.1897 265.23 60.2582 265.469 60.3201V60.7576H262.963V60.3201C263.127 60.2759 263.255 60.2273 263.347 60.1742C263.445 60.1212 263.515 60.0505 263.56 59.9621C263.608 59.8693 263.639 59.7544 263.652 59.6174C263.666 59.4804 263.672 59.3081 263.672 59.1004V53.3665C263.672 53.035 263.657 52.8074 263.626 52.6837C263.599 52.5555 263.54 52.4495 263.447 52.3655C263.359 52.2816 263.197 52.2086 262.963 52.1468V51.7093H265.648L267.994 55.786C268.14 56.0423 268.33 56.3892 268.564 56.8267C268.799 57.2642 269.006 57.6774 269.187 58.0663H269.294C269.245 57.0101 269.221 55.8567 269.221 54.6061V53.3731C269.221 53.0859 269.21 52.8781 269.187 52.75C269.165 52.6218 269.13 52.5246 269.081 52.4583C269.037 52.392 268.975 52.3368 268.896 52.2926C268.821 52.2484 268.692 52.1998 268.511 52.1468V51.7093H271.017ZM281.789 51.9148V53.8371H280.887C280.781 53.3377 280.613 52.971 280.383 52.7367C280.154 52.4981 279.853 52.3788 279.482 52.3788C278.784 52.3788 278.256 52.7146 277.898 53.3864C277.54 54.0537 277.361 55.0458 277.361 56.3627C277.361 57.5868 277.524 58.5148 277.851 59.1468C278.178 59.7743 278.658 60.0881 279.29 60.0881C279.612 60.0881 279.875 60.035 280.079 59.929C280.282 59.8185 280.443 59.655 280.562 59.4384C280.686 59.2219 280.792 58.917 280.881 58.5237H281.789V60.5322C281.303 60.6471 280.859 60.7311 280.456 60.7841C280.054 60.8371 279.637 60.8636 279.204 60.8636C278.284 60.8636 277.533 60.6979 276.95 60.3665C276.371 60.035 275.942 59.5357 275.664 58.8684C275.39 58.1966 275.253 57.3482 275.253 56.3229C275.253 55.3639 275.414 54.5309 275.737 53.8239C276.064 53.1124 276.543 52.5644 277.175 52.1799C277.807 51.7954 278.563 51.6032 279.442 51.6032C279.889 51.6032 280.293 51.6275 280.655 51.6761C281.018 51.7247 281.395 51.8043 281.789 51.9148ZM289.564 51.7093V53.8172H288.656C288.51 53.3974 288.387 53.1146 288.285 52.9687C288.183 52.8185 288.062 52.7014 287.92 52.6174C287.779 52.529 287.538 52.4848 287.198 52.4848H285.753V55.6667H286.628C286.822 55.6667 286.975 55.6401 287.085 55.5871C287.196 55.5297 287.286 55.4369 287.357 55.3087C287.432 55.1805 287.503 54.9817 287.569 54.7121H288.318V57.4034H287.569C287.507 57.1471 287.439 56.9526 287.364 56.8201C287.288 56.6831 287.198 56.5859 287.092 56.5284C286.99 56.471 286.835 56.4422 286.628 56.4422H285.753V59.982H287.191C287.346 59.982 287.476 59.9732 287.582 59.9555C287.688 59.9334 287.783 59.898 287.867 59.8494C287.951 59.8008 288.031 59.7345 288.106 59.6506C288.186 59.5666 288.254 59.476 288.311 59.3788C288.373 59.2816 288.437 59.1534 288.504 58.9943C288.57 58.8352 288.643 58.6165 288.722 58.3381H289.631L289.505 60.7576H282.989V60.3201C283.152 60.2759 283.28 60.2295 283.373 60.1809C283.47 60.1278 283.541 60.0571 283.585 59.9687C283.634 59.8759 283.665 59.761 283.678 59.624C283.691 59.4826 283.698 59.3059 283.698 59.0937V53.3797C283.698 53.172 283.691 52.9975 283.678 52.8561C283.669 52.7146 283.64 52.5997 283.592 52.5114C283.548 52.423 283.477 52.3523 283.38 52.2992C283.287 52.2418 283.157 52.191 282.989 52.1468V51.7093H289.564ZM298.871 51.7093V52.1468C298.694 52.2042 298.568 52.2528 298.493 52.2926C298.423 52.3324 298.361 52.3854 298.308 52.4517C298.259 52.518 298.222 52.6196 298.195 52.7566C298.169 52.8892 298.155 53.0947 298.155 53.3731V60.7576H296.472L293.489 55.6004C293.086 54.9021 292.79 54.3542 292.6 53.9564H292.541C292.585 54.9066 292.607 55.9097 292.607 56.9659V59.1004C292.607 59.4318 292.622 59.6638 292.653 59.7964C292.689 59.929 292.748 60.035 292.832 60.1146C292.921 60.1897 293.084 60.2582 293.323 60.3201V60.7576H290.817V60.3201C290.981 60.2759 291.109 60.2273 291.202 60.1742C291.299 60.1212 291.37 60.0505 291.414 59.9621C291.462 59.8693 291.493 59.7544 291.507 59.6174C291.52 59.4804 291.526 59.3081 291.526 59.1004V53.3665C291.526 53.035 291.511 52.8074 291.48 52.6837C291.454 52.5555 291.394 52.4495 291.301 52.3655C291.213 52.2816 291.051 52.2086 290.817 52.1468V51.7093H293.502L295.848 55.786C295.994 56.0423 296.184 56.3892 296.419 56.8267C296.653 57.2642 296.86 57.6774 297.042 58.0663H297.148C297.099 57.0101 297.075 55.8567 297.075 54.6061V53.3731C297.075 53.0859 297.064 52.8781 297.042 52.75C297.02 52.6218 296.984 52.5246 296.936 52.4583C296.891 52.392 296.829 52.3368 296.75 52.2926C296.675 52.2484 296.547 52.1998 296.365 52.1468V51.7093H298.871ZM301.94 60.7576V60.3201C302.126 60.2891 302.272 60.2494 302.378 60.2008C302.488 60.1477 302.57 60.0748 302.623 59.982C302.676 59.8892 302.709 59.7721 302.722 59.6307C302.736 59.4848 302.742 59.3059 302.742 59.0937V52.4848H302.205C301.94 52.4848 301.737 52.5158 301.596 52.5776C301.454 52.6395 301.33 52.7367 301.224 52.8693C301.123 53.0019 301.034 53.1809 300.959 53.4062C300.884 53.6272 300.822 53.8371 300.774 54.036H299.865V51.7093H307.668V54.036H306.759C306.675 53.7355 306.609 53.5145 306.561 53.3731C306.512 53.2317 306.457 53.1124 306.395 53.0151C306.337 52.9135 306.276 52.8295 306.209 52.7633C306.143 52.697 306.072 52.6439 305.997 52.6042C305.922 52.5644 305.827 52.5357 305.712 52.518C305.602 52.4959 305.456 52.4848 305.275 52.4848H304.797V59.0937C304.797 59.328 304.804 59.5069 304.817 59.6307C304.83 59.75 304.855 59.8472 304.89 59.9223C304.925 59.9975 304.967 60.0593 305.016 60.1079C305.069 60.1521 305.14 60.1941 305.228 60.2339C305.321 60.2692 305.445 60.298 305.599 60.3201V60.7576H301.94ZM312.228 60.7576H308.748V60.3201C308.912 60.2759 309.04 60.2295 309.133 60.1809C309.23 60.1278 309.3 60.0571 309.345 59.9687C309.393 59.8759 309.424 59.761 309.437 59.624C309.451 59.4826 309.457 59.3059 309.457 59.0937V53.3797C309.457 53.172 309.451 52.9975 309.437 52.8561C309.429 52.7146 309.4 52.5997 309.351 52.5114C309.307 52.423 309.236 52.3523 309.139 52.2992C309.046 52.2418 308.916 52.191 308.748 52.1468V51.7093H312.613C313.134 51.7093 313.576 51.7468 313.938 51.822C314.305 51.8927 314.626 52.0031 314.9 52.1534C315.129 52.2771 315.324 52.434 315.483 52.624C315.642 52.8097 315.764 53.0284 315.847 53.2803C315.936 53.5278 315.98 53.8172 315.98 54.1487C315.98 54.5817 315.903 54.953 315.748 55.2623C315.598 55.5716 315.392 55.8302 315.132 56.0379C314.875 56.2412 314.531 56.4334 314.097 56.6146V56.6809C314.424 56.8223 314.694 57.0123 314.906 57.2509C315.123 57.4852 315.317 57.7835 315.49 58.1458L315.907 59.0473C316.093 59.4495 316.276 59.7522 316.457 59.9555C316.643 60.1543 316.862 60.2759 317.114 60.3201V60.7576H314.561C314.305 60.404 314.016 59.8781 313.693 59.1799L313.176 58.0464C313.021 57.7105 312.889 57.4719 312.778 57.3305C312.668 57.1891 312.553 57.0918 312.434 57.0388C312.319 56.9858 312.14 56.9593 311.897 56.9593H311.512V59.0937C311.512 59.4252 311.528 59.6572 311.559 59.7898C311.59 59.9223 311.649 60.0284 311.738 60.1079C311.826 60.1875 311.99 60.2582 312.228 60.3201V60.7576ZM311.512 52.4981V56.1837H312.168C312.522 56.1837 312.814 56.1373 313.043 56.0445C313.273 55.9473 313.454 55.8147 313.587 55.6468C313.724 55.4744 313.817 55.2734 313.865 55.0436C313.918 54.8138 313.945 54.5619 313.945 54.2879C313.945 53.6869 313.804 53.2361 313.521 52.9356C313.238 52.6351 312.818 52.4848 312.261 52.4848C311.881 52.4848 311.632 52.4893 311.512 52.4981ZM324.312 51.7093V53.8172H323.404C323.258 53.3974 323.135 53.1146 323.033 52.9687C322.931 52.8185 322.81 52.7014 322.668 52.6174C322.527 52.529 322.286 52.4848 321.946 52.4848H320.501V55.6667H321.376C321.57 55.6667 321.723 55.6401 321.833 55.5871C321.944 55.5297 322.034 55.4369 322.105 55.3087C322.18 55.1805 322.251 54.9817 322.317 54.7121H323.066V57.4034H322.317C322.255 57.1471 322.187 56.9526 322.112 56.8201C322.037 56.6831 321.946 56.5859 321.84 56.5284C321.738 56.471 321.584 56.4422 321.376 56.4422H320.501V59.982H321.939C322.094 59.982 322.224 59.9732 322.33 59.9555C322.436 59.9334 322.531 59.898 322.615 59.8494C322.699 59.8008 322.779 59.7345 322.854 59.6506C322.934 59.5666 323.002 59.476 323.06 59.3788C323.121 59.2816 323.186 59.1534 323.252 58.9943C323.318 58.8352 323.391 58.6165 323.471 58.3381H324.379L324.253 60.7576H317.737V60.3201C317.9 60.2759 318.028 60.2295 318.121 60.1809C318.218 60.1278 318.289 60.0571 318.333 59.9687C318.382 59.8759 318.413 59.761 318.426 59.624C318.439 59.4826 318.446 59.3059 318.446 59.0937V53.3797C318.446 53.172 318.439 52.9975 318.426 52.8561C318.417 52.7146 318.389 52.5997 318.34 52.5114C318.296 52.423 318.225 52.3523 318.128 52.2992C318.035 52.2418 317.905 52.191 317.737 52.1468V51.7093H324.312Z" fill="#1C1B1F"/>
</svg>
