<svg width="22" height="23" viewBox="0 0 22 23" fill="none" xmlns="http://www.w3.org/2000/svg">
<path d="M21.3726 15.6637L16.56 13.6011C16.3544 13.5135 16.1259 13.495 15.909 13.5485C15.692 13.602 15.4982 13.7245 15.3569 13.8976L13.2256 16.5016C9.88073 14.9245 7.18889 12.2327 5.61182 8.88779L8.21577 6.75651C8.38923 6.61543 8.512 6.42168 8.5655 6.20458C8.619 5.98749 8.60031 5.75888 8.51226 5.55336L6.44972 0.740774C6.35309 0.519227 6.18218 0.338341 5.96647 0.229307C5.75075 0.120273 5.50375 0.0899259 5.26806 0.143498L0.799233 1.17477C0.571997 1.22724 0.369256 1.35519 0.224101 1.53772C0.0789458 1.72026 -5.23459e-05 1.94661 2.60232e-08 2.17982C2.60232e-08 13.2015 8.93336 22.1177 19.9379 22.1177C20.1711 22.1178 20.3976 22.0389 20.5802 21.8937C20.7628 21.7485 20.8908 21.5458 20.9433 21.3184L21.9746 16.8496C22.0278 16.6128 21.9968 16.3648 21.887 16.1483C21.7771 15.9319 21.5952 15.7605 21.3726 15.6637Z" fill="#007FFF"/>
</svg>
