<svg width="21" height="21" viewBox="0 0 21 21" fill="none" xmlns="http://www.w3.org/2000/svg">
<path d="M19.0714 8.35714H12.6429V1.92857C12.6429 1.13973 12.0031 0.5 11.2143 0.5H9.78571C8.99687 0.5 8.35714 1.13973 8.35714 1.92857V8.35714H1.92857C1.13973 8.35714 0.5 8.99687 0.5 9.78571V11.2143C0.5 12.0031 1.13973 12.6429 1.92857 12.6429H8.35714V19.0714C8.35714 19.8603 8.99687 20.5 9.78571 20.5H11.2143C12.0031 20.5 12.6429 19.8603 12.6429 19.0714V12.6429H19.0714C19.8603 12.6429 20.5 12.0031 20.5 11.2143V9.78571C20.5 8.99687 19.8603 8.35714 19.0714 8.35714Z" fill="#005EBD"/>
</svg>
