<svg width="30" height="30" viewBox="0 0 30 30" fill="none" xmlns="http://www.w3.org/2000/svg">
<path d="M15 0C6.71371 0 0 6.71371 0 15C0 23.2863 6.71371 30 15 30C23.2863 30 30 23.2863 30 15C30 6.71371 23.2863 0 15 0ZM18.4536 21.1754L13.119 17.2984C12.9315 17.1593 12.8226 16.9415 12.8226 16.7117V6.53226C12.8226 6.13306 13.1492 5.80645 13.5484 5.80645H16.4516C16.8508 5.80645 17.1774 6.13306 17.1774 6.53226V14.8609L21.0181 17.6552C21.3448 17.8911 21.4113 18.3448 21.1754 18.6714L19.4698 21.0181C19.2339 21.3387 18.7802 21.4113 18.4536 21.1754Z" fill="#005EBD"/>
</svg>
