<svg width="25" height="25" viewBox="0 0 25 25" fill="none" xmlns="http://www.w3.org/2000/svg">
<path d="M22.3225 0H2.67969C1.20089 0 0.00111389 1.19978 0.00111389 2.67857V22.3214C0.00111389 23.8002 1.20089 25 2.67969 25H22.3225C23.8013 25 25.0011 23.8002 25.0011 22.3214V2.67857C25.0011 1.19978 23.8013 0 22.3225 0ZM19.5937 8.86161C19.6049 9.01786 19.6049 9.17969 19.6049 9.33594C19.6049 14.1741 15.9219 19.7489 9.19196 19.7489C7.11607 19.7489 5.19085 19.1462 3.57254 18.1083C3.8683 18.1417 4.1529 18.1529 4.45424 18.1529C6.16741 18.1529 7.74107 17.5725 8.99665 16.5904C7.38951 16.5569 6.03906 15.5022 5.57589 14.0513C6.13951 14.135 6.64732 14.135 7.22768 13.9844C5.55357 13.644 4.29799 12.1708 4.29799 10.3906V10.346C4.78348 10.6194 5.35268 10.7868 5.94977 10.8092C5.44778 10.4752 5.03626 10.0223 4.75193 9.4906C4.46761 8.95895 4.31932 8.36518 4.32031 7.76228C4.32031 7.08147 4.49888 6.45647 4.81696 5.91518C6.61942 8.13616 9.32589 9.58705 12.3616 9.7433C11.8426 7.26005 13.7009 5.24554 15.933 5.24554C16.9877 5.24554 17.9364 5.68638 18.606 6.40067C19.4319 6.24442 20.2243 5.9375 20.9275 5.51897C20.654 6.36719 20.0792 7.08147 19.3203 7.53348C20.0569 7.45536 20.7712 7.24888 21.4297 6.96429C20.933 7.69531 20.308 8.34263 19.5937 8.86161Z" fill="#1C1B1F"/>
</svg>
