<svg width="36" height="25" viewBox="0 0 36 25" fill="none" xmlns="http://www.w3.org/2000/svg">
<path d="M34.8137 3.91165C34.4048 2.37194 33.2 1.15931 31.6702 0.747786C28.8975 0 17.7789 0 17.7789 0C17.7789 0 6.66041 0 3.88756 0.747786C2.3578 1.15937 1.15299 2.37194 0.744067 3.91165C0.00109863 6.70247 0.00109863 12.5253 0.00109863 12.5253C0.00109863 12.5253 0.00109863 18.348 0.744067 21.1389C1.15299 22.6786 2.3578 23.8407 3.88756 24.2522C6.66041 25 17.7789 25 17.7789 25C17.7789 25 28.8974 25 31.6702 24.2522C33.2 23.8407 34.4048 22.6786 34.8137 21.1389C35.5567 18.348 35.5567 12.5253 35.5567 12.5253C35.5567 12.5253 35.5567 6.70247 34.8137 3.91165ZM14.1425 17.8119V7.23861L23.4354 12.5254L14.1425 17.8119Z" fill="#1C1B1F"/>
</svg>
