<svg width="25" height="21" viewBox="0 0 25 21" fill="none" xmlns="http://www.w3.org/2000/svg">
<path d="M24.5264 6.72184C24.7168 6.56038 25 6.71143 25 6.96663V17.6177C25 18.9979 23.9502 20.1177 22.6562 20.1177H2.34375C1.0498 20.1177 0 18.9979 0 17.6177V6.97184C0 6.71143 0.27832 6.56559 0.473633 6.72705C1.56738 7.6333 3.01758 8.78434 7.99805 12.6437C9.02832 13.4458 10.7666 15.1333 12.5 15.1229C14.2432 15.1385 16.0156 13.4146 17.0068 12.6437C21.9873 8.78434 23.4326 7.62809 24.5264 6.72184ZM12.5 13.451C13.6328 13.4718 15.2637 11.9302 16.084 11.2948C22.5635 6.27913 23.0566 5.84163 24.5508 4.59163C24.834 4.35726 25 3.99268 25 3.60726V2.61768C25 1.23747 23.9502 0.117676 22.6562 0.117676H2.34375C1.0498 0.117676 0 1.23747 0 2.61768V3.60726C0 3.99268 0.166016 4.35205 0.449219 4.59163C1.94336 5.83643 2.43652 6.27913 8.91602 11.2948C9.73633 11.9302 11.3672 13.4718 12.5 13.451Z" fill="#005EBD"/>
</svg>
