<svg width="366" height="81" viewBox="0 0 366 81" fill="none" xmlns="http://www.w3.org/2000/svg">
<rect y="1.79013" width="25.34" height="25.34" fill="#005EBD"/>
<rect x="28.236" y="1.79013" width="25.34" height="25.34" fill="#CECEBF"/>
<rect x="0.00195312" y="32.9483" width="25.3382" height="25.3382" fill="#DA241C"/>
<rect x="28.236" y="32.9483" width="25.3382" height="25.3382" fill="#005EBD"/>
<path d="M63.5132 25.7779V24.7898H65.0114V4.45318H63.5132V3.46504H69.9521C70.579 3.46504 71.1899 3.55535 71.7849 3.73598C72.3906 3.91661 72.9377 4.2088 73.4265 4.61255C73.9153 5.00569 74.3031 5.53163 74.59 6.19039C74.8875 6.83853 75.0362 7.62479 75.0362 8.54918C75.0362 9.46294 74.8981 10.2492 74.6218 10.908C74.3562 11.5667 74.0109 12.1139 73.5859 12.5496C73.1715 12.9746 72.7359 13.3039 72.279 13.5377C71.8221 13.7608 71.3971 13.899 71.004 13.9521C71.3971 13.9627 71.8434 14.0636 72.3427 14.2549C72.8527 14.4461 73.3468 14.7543 73.825 15.1793C74.3137 15.5937 74.7122 16.1515 75.0203 16.8528C75.339 17.554 75.4984 18.42 75.4984 19.4506C75.4984 20.9063 75.2487 22.1016 74.7493 23.0366C74.2606 23.961 73.6284 24.6516 72.8527 25.1085C72.0877 25.5548 71.2749 25.7779 70.4143 25.7779H63.5132ZM68.7727 24.7898H69.5536C69.883 24.7898 70.1965 24.5932 70.494 24.2001C70.7915 23.8069 71.0358 23.2172 71.2271 22.431C71.4183 21.6447 71.514 20.6619 71.514 19.4825C71.514 18.165 71.413 17.1449 71.2112 16.4224C71.0199 15.6999 70.7702 15.1952 70.4621 14.9083C70.154 14.6108 69.8352 14.4621 69.5058 14.4621H68.7727V24.7898ZM68.7727 13.4899H69.5058C69.8671 13.4899 70.1752 13.3305 70.4302 13.0118C70.6958 12.693 70.8924 12.1724 71.0199 11.4499C71.158 10.7273 71.2271 9.76045 71.2271 8.54918C71.2271 7.45479 71.1368 6.6154 70.9562 6.03101C70.7862 5.436 70.563 5.02694 70.2868 4.80381C70.0105 4.57005 69.7236 4.45318 69.4261 4.45318H68.7727V13.4899ZM89.2166 26.0488C88.2603 26.0488 87.5537 25.8363 87.0969 25.4113C86.64 24.9863 86.3425 24.4019 86.2044 23.6582C86.0662 22.9038 85.9972 22.0378 85.9972 21.0603C85.9972 20.4653 86.0131 19.8915 86.045 19.339C86.0769 18.7759 86.0928 18.2925 86.0928 17.8887C86.0928 17.0812 86.0343 16.4543 85.9175 16.008C85.8006 15.5618 85.5987 15.2483 85.3118 15.0677C85.025 14.8765 84.6159 14.7808 84.0846 14.7808H83.3993V24.7898H84.9771V25.7779H77.9645V24.7898H79.6221V4.45318H77.9645V3.46504H85.0728C86.0078 3.46504 86.8525 3.64566 87.6069 4.00692C88.3613 4.35755 88.9616 4.91537 89.4078 5.68038C89.8541 6.43477 90.0772 7.42291 90.0772 8.64481C90.0772 9.57982 89.9338 10.3873 89.6469 11.0673C89.3707 11.7474 89.0041 12.3105 88.5472 12.7567C88.1009 13.203 87.6122 13.5483 87.0809 13.7927C86.5497 14.0371 86.0343 14.1965 85.535 14.2708C86.725 14.324 87.6334 14.5365 88.2603 14.9083C88.8872 15.2802 89.3175 15.8487 89.5513 16.6137C89.7957 17.3681 89.9178 18.3562 89.9178 19.5781C89.9178 20.1094 89.9019 20.6353 89.87 21.1559C89.8382 21.6766 89.8222 22.1653 89.8222 22.6222C89.8222 22.941 89.8328 23.2757 89.8541 23.6263C89.886 23.9663 89.9444 24.2532 90.0294 24.4869C90.1144 24.7101 90.2313 24.8216 90.38 24.8216C90.5075 24.8216 90.6032 24.7738 90.6669 24.6782C90.7307 24.5719 90.7679 24.4551 90.7785 24.3276H91.7029C91.6498 24.7313 91.5116 25.0607 91.2885 25.3157C91.0654 25.5707 90.7732 25.7566 90.4119 25.8735C90.0613 25.9904 89.6628 26.0488 89.2166 26.0488ZM83.3993 13.8086H84.2121C84.669 13.8086 85.0409 13.5855 85.3278 13.1393C85.6147 12.693 85.8272 12.0874 85.9653 11.3223C86.114 10.5467 86.1884 9.67545 86.1884 8.70856C86.1884 7.79479 86.1194 7.02447 85.9812 6.39758C85.8537 5.76007 85.6465 5.27663 85.3597 4.94725C85.0728 4.61787 84.7062 4.45318 84.2599 4.45318H83.3993V13.8086ZM94.3799 25.7779V24.7898H95.9259V4.45318H94.3799V3.46504H101.297V4.45318H99.7191V24.7898H101.297V25.7779H94.3799ZM106.521 25.7779V24.7898H108.29V4.45318H107.828C107.18 4.45318 106.68 4.61787 106.33 4.94725C105.99 5.266 105.751 5.74945 105.613 6.39758C105.485 7.03509 105.421 7.83198 105.421 8.78824H104.433V3.46504H115.94V8.78824H114.952C114.952 7.83198 114.888 7.03509 114.761 6.39758C114.633 5.74945 114.394 5.266 114.044 4.94725C113.704 4.61787 113.21 4.45318 112.561 4.45318H112.099V24.7898H113.916V25.7779H106.521ZM119.108 25.7779V24.7898H120.654V4.45318H119.108V3.46504H126.025V4.45318H124.447V24.7898H126.025V25.7779H119.108ZM134.102 26.2082C133.55 26.2082 133.093 26.1445 132.732 26.017C132.381 25.8895 132.089 25.7407 131.855 25.5707C131.632 25.4007 131.441 25.2519 131.281 25.1244C131.133 24.9969 130.984 24.9332 130.835 24.9332C130.559 24.9332 130.421 25.2148 130.421 25.7779H129.496V20.3272H130.484C130.495 20.5609 130.553 20.8797 130.66 21.2834C130.766 21.6766 130.915 22.0963 131.106 22.5425C131.308 22.9888 131.552 23.4138 131.839 23.8175C132.126 24.2107 132.455 24.5347 132.827 24.7898C133.199 25.0448 133.619 25.1723 134.086 25.1723C134.533 25.1723 134.889 25.0766 135.154 24.8854C135.42 24.6941 135.611 24.4126 135.728 24.0407C135.845 23.6582 135.903 23.196 135.903 22.6541C135.903 22.006 135.76 21.3472 135.473 20.6778C135.186 20.0084 134.793 19.3125 134.294 18.59C133.794 17.8568 133.22 17.0759 132.572 16.2471C131.754 15.1846 131.117 14.2124 130.66 13.3305C130.213 12.4486 129.9 11.6199 129.719 10.8442C129.549 10.058 129.464 9.27169 129.464 8.48543C129.464 7.29541 129.666 6.30196 130.07 5.50507C130.474 4.70818 130.994 4.11317 131.632 3.72004C132.28 3.31628 132.955 3.11441 133.656 3.11441C134.262 3.11441 134.734 3.21003 135.074 3.40128C135.425 3.58191 135.707 3.76785 135.919 3.95911C136.132 4.13973 136.328 4.23005 136.509 4.23005C136.647 4.23005 136.748 4.17692 136.812 4.07067C136.886 3.96442 136.923 3.76254 136.923 3.46504H137.864V8.88387H136.875C136.854 8.54387 136.769 8.10824 136.62 7.57698C136.482 7.04572 136.286 6.51977 136.031 5.99914C135.776 5.46788 135.452 5.02694 135.059 4.6763C134.676 4.31505 134.224 4.13442 133.704 4.13442C133.151 4.13442 132.721 4.34161 132.413 4.75599C132.105 5.15975 131.951 5.76007 131.951 6.55696C131.951 7.14134 132.078 7.75229 132.333 8.3898C132.588 9.01669 132.96 9.68607 133.449 10.398C133.948 11.1098 134.554 11.8908 135.266 12.7408C135.988 13.5908 136.589 14.4249 137.067 15.243C137.555 16.0505 137.917 16.8846 138.15 17.7453C138.395 18.6059 138.517 19.5144 138.517 20.4706C138.517 21.5756 138.384 22.5 138.119 23.2438C137.853 23.9769 137.502 24.5613 137.067 24.9969C136.642 25.4219 136.169 25.7301 135.648 25.9213C135.128 26.1126 134.612 26.2082 134.102 26.2082ZM141.621 25.7779V24.7898H143.119V4.45318H141.621V3.46504H147.964V4.45318H146.928V13.8086H149.924V4.45318H148.92V3.46504H155.168V4.45318H153.638V24.7898H155.168V25.7779H148.92V24.7898H149.924V14.7808H146.928V24.7898H147.964V25.7779H141.621Z" fill="#005EBD"/>
<path d="M81.3604 49.6301H72.8401L71.8262 51.9781C71.4942 52.7607 71.3282 53.407 71.3282 53.9169C71.3282 54.5929 71.6009 55.0909 72.1464 55.4111C72.4666 55.6008 73.2552 55.7431 74.5122 55.838V56.4962H66.4899V55.838C67.3556 55.7076 68.0671 55.3518 68.6245 54.7708C69.1818 54.1778 69.8696 52.9623 70.6878 51.1243L79.3148 31.878H79.6528L88.351 51.6579C89.1811 53.5315 89.8629 54.7115 90.3966 55.1977C90.7998 55.5653 91.369 55.7787 92.1042 55.838V56.4962H80.4355V55.838H80.9157C81.8526 55.838 82.5107 55.7076 82.8902 55.4467C83.1511 55.2569 83.2815 54.9842 83.2815 54.6284C83.2815 54.415 83.2459 54.1956 83.1748 53.9703C83.1511 53.8636 82.9732 53.4189 82.6411 52.6362L81.3604 49.6301ZM80.7556 48.3138L77.1625 40.007L73.4627 48.3138H80.7556ZM97.0278 32.3761H109.479V33.0342H108.857C107.92 33.0342 107.274 33.135 106.918 33.3366C106.574 33.5263 106.325 33.7932 106.171 34.1371C106.028 34.4809 105.957 35.3407 105.957 36.7163V48.5273C105.957 50.6855 106.117 52.1145 106.437 52.8141C106.77 53.5138 107.309 54.0948 108.056 54.5573C108.803 55.0198 109.746 55.251 110.884 55.251C112.189 55.251 113.298 54.9605 114.211 54.3794C115.136 53.7865 115.823 52.9742 116.274 51.9425C116.737 50.9108 116.968 49.1143 116.968 46.5528V36.7163C116.968 35.6371 116.855 34.8663 116.63 34.4039C116.405 33.9414 116.12 33.6212 115.776 33.4433C115.242 33.1706 114.489 33.0342 113.517 33.0342V32.3761H121.859V33.0342H121.361C120.685 33.0342 120.122 33.1706 119.672 33.4433C119.221 33.7161 118.895 34.1252 118.693 34.6707C118.539 35.0502 118.462 35.732 118.462 36.7163V45.8769C118.462 48.7111 118.272 50.7567 117.893 52.0137C117.525 53.2707 116.618 54.4269 115.171 55.4823C113.725 56.5377 111.75 57.0654 109.248 57.0654C107.161 57.0654 105.548 56.7867 104.41 56.2293C102.856 55.4704 101.759 54.498 101.119 53.3122C100.479 52.1263 100.158 50.5314 100.158 48.5273V36.7163C100.158 35.3288 100.081 34.4691 99.9272 34.1371C99.773 33.7932 99.5062 33.5204 99.1268 33.3188C98.7473 33.1172 98.0476 33.0224 97.0278 33.0342V32.3761ZM150.458 31.8247V40.1849H149.765C149.243 38.0029 148.271 36.3309 146.848 35.1687C145.425 34.0066 143.812 33.4255 142.009 33.4255C140.503 33.4255 139.122 33.8584 137.865 34.724C136.608 35.5897 135.689 36.7222 135.108 38.1215C134.361 39.9121 133.987 41.9043 133.987 44.0981C133.987 46.2564 134.26 48.2249 134.805 50.0037C135.351 51.7706 136.205 53.1106 137.367 54.0237C138.529 54.9249 140.035 55.3755 141.885 55.3755C143.403 55.3755 144.79 55.0435 146.047 54.3794C147.316 53.7153 148.65 52.571 150.049 50.9464V53.0276C148.697 54.4387 147.286 55.4645 145.816 56.1048C144.357 56.7333 142.65 57.0476 140.693 57.0476C138.12 57.0476 135.831 56.5317 133.827 55.5C131.835 54.4684 130.293 52.9861 129.202 51.0531C128.123 49.1202 127.583 47.0628 127.583 44.8808C127.583 42.5803 128.182 40.3983 129.38 38.3349C130.59 36.2716 132.214 34.6707 134.254 33.5323C136.305 32.3939 138.481 31.8247 140.782 31.8247C142.478 31.8247 144.268 32.1923 146.154 32.9275C147.245 33.3544 147.939 33.5678 148.235 33.5678C148.614 33.5678 148.941 33.4315 149.213 33.1587C149.498 32.8741 149.682 32.4294 149.765 31.8247H150.458Z" fill="#DA241C"/>
<path d="M5.6179 66C7.15199 65.9432 8.39725 66.3906 9.35369 67.3423C10.3149 68.294 10.7955 69.4848 10.7955 70.9147C10.7955 72.1363 10.438 73.2111 9.72301 74.1392C8.77604 75.3702 7.43845 75.9858 5.71023 75.9858C3.97727 75.9858 2.63731 75.3986 1.69034 74.2244C0.942235 73.2964 0.568182 72.1955 0.568182 70.9218C0.568182 69.4919 1.0535 68.3011 2.02415 67.3494C2.99953 66.393 4.19744 65.9432 5.6179 66ZM5.70312 66.4545C4.82244 66.4545 4.15246 66.9043 3.69318 67.8039C3.31913 68.5426 3.1321 69.6032 3.1321 70.9858C3.1321 72.6288 3.42093 73.8432 3.99858 74.6292C4.40104 75.1785 4.96449 75.4531 5.68892 75.4531C6.17661 75.4531 6.58381 75.3347 6.91051 75.098C7.32718 74.795 7.65151 74.312 7.88352 73.6491C8.11553 72.9815 8.23153 72.1127 8.23153 71.0426C8.23153 69.7689 8.11316 68.8172 7.87642 68.1875C7.63968 67.553 7.33665 67.1056 6.96733 66.8451C6.60275 66.5847 6.18134 66.4545 5.70312 66.4545ZM15.4503 69.821V74.4304C15.4503 74.8754 15.4976 75.1548 15.5923 75.2684C15.7438 75.4436 16.0232 75.5241 16.4304 75.5099V75.7656H12.517V75.5099C12.8153 75.5052 13.026 75.472 13.1491 75.4105C13.277 75.3442 13.3646 75.2542 13.4119 75.1406C13.4593 75.027 13.483 74.7902 13.483 74.4304V69.821H12.517V69.125H13.483V68.6349L13.4759 68.3011C13.4759 67.6193 13.7244 67.0511 14.2216 66.5966C14.7235 66.142 15.4006 65.9147 16.2528 65.9147C16.8352 65.9147 17.2661 66.0236 17.5455 66.2414C17.8295 66.4593 17.9716 66.7007 17.9716 66.9659C17.9716 67.1789 17.884 67.3636 17.7088 67.5199C17.5336 67.6761 17.3016 67.7542 17.0128 67.7542C16.7666 67.7542 16.5701 67.6903 16.4233 67.5625C16.2812 67.4346 16.2102 67.2926 16.2102 67.1363C16.2102 67.0937 16.2244 67.0061 16.2528 66.8735C16.2718 66.7931 16.2812 66.7173 16.2812 66.6463C16.2812 66.5468 16.2528 66.4735 16.196 66.4261C16.1203 66.3551 16.0279 66.3196 15.919 66.3196C15.7817 66.3196 15.6657 66.3764 15.571 66.49C15.4811 66.6037 15.4361 66.786 15.4361 67.0369L15.4503 68.2798V69.125H16.4304V69.821H15.4503ZM21.0213 69.821V74.4304C21.0213 74.8754 21.0687 75.1548 21.1634 75.2684C21.3149 75.4436 21.5942 75.5241 22.0014 75.5099V75.7656H18.0881V75.5099C18.3864 75.5052 18.5971 75.472 18.7202 75.4105C18.848 75.3442 18.9356 75.2542 18.983 75.1406C19.0303 75.027 19.054 74.7902 19.054 74.4304V69.821H18.0881V69.125H19.054V68.6349L19.0469 68.3011C19.0469 67.6193 19.2955 67.0511 19.7926 66.5966C20.2945 66.142 20.9716 65.9147 21.8239 65.9147C22.4062 65.9147 22.8371 66.0236 23.1165 66.2414C23.4006 66.4593 23.5426 66.7007 23.5426 66.9659C23.5426 67.1789 23.455 67.3636 23.2798 67.5199C23.1046 67.6761 22.8726 67.7542 22.5838 67.7542C22.3376 67.7542 22.1411 67.6903 21.9943 67.5625C21.8523 67.4346 21.7812 67.2926 21.7812 67.1363C21.7812 67.0937 21.7955 67.0061 21.8239 66.8735C21.8428 66.7931 21.8523 66.7173 21.8523 66.6463C21.8523 66.5468 21.8239 66.4735 21.767 66.4261C21.6913 66.3551 21.599 66.3196 21.4901 66.3196C21.3527 66.3196 21.2367 66.3764 21.142 66.49C21.0521 66.6037 21.0071 66.786 21.0071 67.0369L21.0213 68.2798V69.125H22.0014V69.821H21.0213ZM25.2784 65.9076C25.5862 65.9076 25.8466 66.0165 26.0597 66.2343C26.2727 66.4474 26.3793 66.7055 26.3793 67.0085C26.3793 67.3115 26.2704 67.5696 26.0526 67.7826C25.8395 67.9957 25.5814 68.1022 25.2784 68.1022C24.9754 68.1022 24.7173 67.9957 24.5043 67.7826C24.2912 67.5696 24.1847 67.3115 24.1847 67.0085C24.1847 66.7055 24.2912 66.4474 24.5043 66.2343C24.7173 66.0165 24.9754 65.9076 25.2784 65.9076ZM26.2727 69.125V74.3878C26.2727 74.8565 26.3272 75.1572 26.4361 75.2897C26.545 75.4176 26.758 75.491 27.0753 75.5099V75.7656H23.4886V75.5099C23.7822 75.5004 24 75.4152 24.142 75.2542C24.2367 75.1453 24.2841 74.8565 24.2841 74.3878V70.5099C24.2841 70.0412 24.2296 69.7429 24.1207 69.615C24.0118 69.4825 23.8011 69.4067 23.4886 69.3878V69.125H26.2727ZM33.875 74.0539L34.0952 74.2244C33.7827 74.8115 33.392 75.2495 32.9233 75.5383C32.4593 75.8224 31.9645 75.9645 31.4389 75.9645C30.5535 75.9645 29.8456 75.6307 29.3153 74.963C28.785 74.2954 28.5199 73.4929 28.5199 72.5554C28.5199 71.651 28.7614 70.8556 29.2443 70.169C29.8267 69.3404 30.6293 68.9261 31.652 68.9261C32.3385 68.9261 32.883 69.0989 33.2855 69.4446C33.6927 69.7902 33.8963 70.1761 33.8963 70.6022C33.8963 70.8721 33.8134 71.0876 33.6477 71.2485C33.4867 71.4095 33.2737 71.49 33.0085 71.49C32.7292 71.49 32.4972 71.3977 32.3125 71.213C32.1326 71.0284 32.0213 70.6993 31.9787 70.2258C31.9503 69.9275 31.8816 69.7192 31.7727 69.6008C31.6638 69.4825 31.536 69.4233 31.3892 69.4233C31.1619 69.4233 30.9678 69.544 30.8068 69.7855C30.5606 70.1501 30.4375 70.7088 30.4375 71.4616C30.4375 72.0866 30.5369 72.6856 30.7358 73.2585C30.9347 73.8267 31.2069 74.2504 31.5526 74.5298C31.813 74.7334 32.1207 74.8352 32.4759 74.8352C32.7079 74.8352 32.928 74.7807 33.1364 74.6718C33.3447 74.5629 33.5909 74.357 33.875 74.0539ZM37.2443 65.9076C37.5521 65.9076 37.8125 66.0165 38.0256 66.2343C38.2386 66.4474 38.3452 66.7055 38.3452 67.0085C38.3452 67.3115 38.2363 67.5696 38.0185 67.7826C37.8054 67.9957 37.5473 68.1022 37.2443 68.1022C36.9413 68.1022 36.6832 67.9957 36.4702 67.7826C36.2571 67.5696 36.1506 67.3115 36.1506 67.0085C36.1506 66.7055 36.2571 66.4474 36.4702 66.2343C36.6832 66.0165 36.9413 65.9076 37.2443 65.9076ZM38.2386 69.125V74.3878C38.2386 74.8565 38.2931 75.1572 38.402 75.2897C38.5109 75.4176 38.724 75.491 39.0412 75.5099V75.7656H35.4545V75.5099C35.7481 75.5004 35.9659 75.4152 36.108 75.2542C36.2027 75.1453 36.25 74.8565 36.25 74.3878V70.5099C36.25 70.0412 36.1955 69.7429 36.0866 69.615C35.9777 69.4825 35.767 69.4067 35.4545 69.3878V69.125H38.2386ZM44.0866 74.7855C43.277 75.5004 42.5502 75.8579 41.9062 75.8579C41.5275 75.8579 41.2126 75.7348 40.9616 75.4886C40.7107 75.2377 40.5852 74.9252 40.5852 74.5511C40.5852 74.0445 40.803 73.5899 41.2386 73.1875C41.6742 72.7803 42.6236 72.2405 44.0866 71.5682V70.9005C44.0866 70.3986 44.0582 70.0838 44.0014 69.9559C43.9493 69.8234 43.8475 69.7097 43.696 69.615C43.5445 69.5156 43.3741 69.4659 43.1847 69.4659C42.8769 69.4659 42.6236 69.5345 42.4247 69.6718C42.3016 69.7571 42.2401 69.8565 42.2401 69.9701C42.2401 70.0696 42.3063 70.1927 42.4389 70.3395C42.6188 70.5431 42.7088 70.7396 42.7088 70.9289C42.7088 71.161 42.6212 71.3598 42.446 71.5255C42.2756 71.6865 42.0507 71.767 41.7713 71.767C41.473 71.767 41.2221 71.6771 41.0185 71.4971C40.8196 71.3172 40.7202 71.1065 40.7202 70.865C40.7202 70.5241 40.8551 70.1998 41.125 69.892C41.3949 69.5795 41.7713 69.3404 42.2543 69.1747C42.7372 69.009 43.2391 68.9261 43.7599 68.9261C44.3897 68.9261 44.8868 69.061 45.2514 69.3309C45.6207 69.5961 45.8598 69.8849 45.9687 70.1974C46.035 70.3963 46.0682 70.8532 46.0682 71.5682V74.1463C46.0682 74.4493 46.08 74.6411 46.1037 74.7216C46.1274 74.7973 46.1629 74.8541 46.2102 74.892C46.2576 74.9299 46.312 74.9488 46.3736 74.9488C46.4967 74.9488 46.6222 74.8612 46.75 74.686L46.9631 74.8565C46.7263 75.2069 46.4801 75.4626 46.2244 75.6235C45.9735 75.7798 45.687 75.8579 45.3651 75.8579C44.9863 75.8579 44.6903 75.7703 44.4773 75.5951C44.2642 75.4152 44.134 75.1453 44.0866 74.7855ZM44.0866 74.267V72.044C43.5137 72.3802 43.0876 72.74 42.8082 73.1235C42.6236 73.3792 42.5312 73.6373 42.5312 73.8977C42.5312 74.1155 42.6094 74.3073 42.7656 74.473C42.884 74.6008 43.0497 74.6647 43.2628 74.6647C43.4995 74.6647 43.7741 74.5322 44.0866 74.267ZM51.0213 66.1349V74.3878C51.0213 74.8565 51.0758 75.1572 51.1847 75.2897C51.2936 75.4176 51.5066 75.491 51.8239 75.5099V75.7656H48.2372V75.5099C48.5308 75.5004 48.7486 75.4152 48.8906 75.2542C48.9853 75.1453 49.0327 74.8565 49.0327 74.3878V67.5128C49.0327 67.0487 48.9782 66.7528 48.8693 66.625C48.7604 66.4924 48.5497 66.4166 48.2372 66.3977V66.1349H51.0213ZM60.9347 71.3764V74.0753C60.9347 74.5961 60.9654 74.9252 61.027 75.0625C61.0933 75.195 61.2069 75.3016 61.3679 75.3821C61.5289 75.4626 61.8295 75.5028 62.2699 75.5028V75.7656H57.3409V75.5028C57.786 75.5028 58.0866 75.4626 58.2429 75.3821C58.4039 75.2968 58.5152 75.1879 58.5767 75.0554C58.643 74.9228 58.6761 74.5961 58.6761 74.0753V67.8253C58.6761 67.3044 58.643 66.9777 58.5767 66.8451C58.5152 66.7078 58.4039 66.5989 58.2429 66.5184C58.0819 66.4379 57.7812 66.3977 57.3409 66.3977V66.1349H61.8153C62.9801 66.1349 63.8324 66.2154 64.3722 66.3764C64.9119 66.5374 65.3523 66.8357 65.6932 67.2713C66.0341 67.7021 66.2045 68.2088 66.2045 68.7912C66.2045 69.5014 65.9489 70.0885 65.4375 70.5525C65.1108 70.8461 64.6539 71.0663 64.0668 71.213L66.3821 74.473C66.6851 74.8944 66.9006 75.1572 67.0284 75.2613C67.2225 75.4081 67.4474 75.4886 67.7031 75.5028V75.7656H64.6705L61.5668 71.3764H60.9347ZM60.9347 66.6534V70.8721H61.3395C61.9976 70.8721 62.4901 70.8129 62.8168 70.6946C63.1435 70.5715 63.3991 70.3537 63.5838 70.0412C63.7732 69.7239 63.8679 69.312 63.8679 68.8054C63.8679 68.0715 63.6951 67.5293 63.3494 67.1789C63.0085 66.8286 62.4569 66.6534 61.6946 66.6534H60.9347ZM74.4247 72.2074H70.7812C70.8239 73.088 71.0582 73.7841 71.4844 74.2954C71.8111 74.6884 72.2041 74.8849 72.6633 74.8849C72.9474 74.8849 73.2055 74.8068 73.4375 74.6505C73.6695 74.4896 73.9181 74.2031 74.1832 73.7912L74.4247 73.9474C74.0649 74.6813 73.6671 75.2021 73.2315 75.5099C72.7959 75.8129 72.2917 75.9645 71.7187 75.9645C70.7339 75.9645 69.9882 75.5857 69.4815 74.8281C69.0743 74.2173 68.8707 73.4597 68.8707 72.5554C68.8707 71.4474 69.169 70.5667 69.7656 69.9133C70.3669 69.2552 71.0701 68.9261 71.875 68.9261C72.5473 68.9261 73.1297 69.2031 73.6222 69.7571C74.1193 70.3063 74.3868 71.1231 74.4247 72.2074ZM72.6776 71.7315C72.6776 70.9692 72.6349 70.446 72.5497 70.1619C72.4692 69.8778 72.3414 69.6624 72.1662 69.5156C72.0668 69.4304 71.9342 69.3878 71.7685 69.3878C71.5222 69.3878 71.321 69.5085 71.1648 69.75C70.8854 70.1714 70.7457 70.749 70.7457 71.4829V71.7315H72.6776ZM78.5611 75.0909V77.5625C78.5611 77.9034 78.5871 78.1354 78.6392 78.2585C78.696 78.3816 78.7812 78.4716 78.8949 78.5284C79.0085 78.5852 79.2311 78.6136 79.5625 78.6136V78.8764H75.777V78.6136C76.0705 78.6041 76.2884 78.5213 76.4304 78.365C76.5251 78.2561 76.5724 77.9744 76.5724 77.5199V70.5099C76.5724 70.0412 76.518 69.7429 76.4091 69.615C76.3002 69.4825 76.0895 69.4067 75.777 69.3878V69.125H78.5611V69.9985C78.7931 69.6576 79.0298 69.4114 79.2713 69.2599C79.617 69.0374 79.9934 68.9261 80.4006 68.9261C80.8883 68.9261 81.331 69.08 81.7287 69.3878C82.1312 69.6955 82.4366 70.1217 82.6449 70.6662C82.8532 71.2059 82.9574 71.7883 82.9574 72.4133C82.9574 73.0857 82.8485 73.7012 82.6307 74.2599C82.4176 74.8139 82.1051 75.2377 81.6932 75.5312C81.286 75.82 80.8314 75.9645 80.3295 75.9645C79.965 75.9645 79.6241 75.884 79.3068 75.723C79.0701 75.5999 78.8215 75.3892 78.5611 75.0909ZM78.5611 74.3735C78.9683 74.9512 79.4039 75.24 79.8679 75.24C80.1236 75.24 80.3343 75.1051 80.5 74.8352C80.7462 74.4375 80.8693 73.6799 80.8693 72.5625C80.8693 71.4166 80.7344 70.633 80.4645 70.2116C80.2846 69.9323 80.0431 69.7926 79.7401 69.7926C79.2618 69.7926 78.8688 70.1382 78.5611 70.8295V74.3735ZM87.5696 69.125V70.6307C88.0099 69.9441 88.3958 69.4896 88.7273 69.267C89.0587 69.0397 89.3783 68.9261 89.6861 68.9261C89.9512 68.9261 90.1619 69.009 90.3182 69.1747C90.4792 69.3357 90.5597 69.5653 90.5597 69.8636C90.5597 70.1808 90.4815 70.4271 90.3253 70.6022C90.1738 70.7774 89.9891 70.865 89.7713 70.865C89.5204 70.865 89.3026 70.7845 89.1179 70.6235C88.9332 70.4626 88.8243 70.3726 88.7912 70.3537C88.7438 70.3253 88.6894 70.311 88.6278 70.311C88.4905 70.311 88.3603 70.3631 88.2372 70.4673C88.0431 70.6283 87.8963 70.8579 87.7969 71.1562C87.6454 71.6155 87.5696 72.1221 87.5696 72.6761V74.2031L87.5767 74.6008C87.5767 74.8707 87.5933 75.0435 87.6264 75.1193C87.6832 75.2471 87.7661 75.3418 87.875 75.4034C87.9886 75.4602 88.178 75.4957 88.4432 75.5099V75.7656H84.8565V75.5099C85.1454 75.4862 85.3395 75.4081 85.4389 75.2755C85.5431 75.1382 85.5952 74.7807 85.5952 74.2031V70.5312C85.5952 70.1524 85.5762 69.911 85.5383 69.8068C85.491 69.6742 85.4223 69.5771 85.3324 69.5156C85.2424 69.454 85.0838 69.4114 84.8565 69.3878V69.125H87.5696ZM97.3594 72.2074H93.7159C93.7585 73.088 93.9929 73.7841 94.419 74.2954C94.7457 74.6884 95.1387 74.8849 95.598 74.8849C95.8821 74.8849 96.1401 74.8068 96.3722 74.6505C96.6042 74.4896 96.8527 74.2031 97.1179 73.7912L97.3594 73.9474C96.9995 74.6813 96.6018 75.2021 96.1662 75.5099C95.7306 75.8129 95.2263 75.9645 94.6534 75.9645C93.6686 75.9645 92.9228 75.5857 92.4162 74.8281C92.009 74.2173 91.8054 73.4597 91.8054 72.5554C91.8054 71.4474 92.1037 70.5667 92.7003 69.9133C93.3016 69.2552 94.0047 68.9261 94.8097 68.9261C95.482 68.9261 96.0644 69.2031 96.5568 69.7571C97.054 70.3063 97.3215 71.1231 97.3594 72.2074ZM95.6122 71.7315C95.6122 70.9692 95.5696 70.446 95.4844 70.1619C95.4039 69.8778 95.276 69.6624 95.1009 69.5156C95.0014 69.4304 94.8688 69.3878 94.7031 69.3878C94.4569 69.3878 94.2557 69.5085 94.0994 69.75C93.8201 70.1714 93.6804 70.749 93.6804 71.4829V71.7315H95.6122ZM103.122 68.9403L103.229 71.2059H102.987C102.698 70.5336 102.398 70.0743 102.085 69.8281C101.777 69.5819 101.47 69.4588 101.162 69.4588C100.968 69.4588 100.802 69.5251 100.665 69.6576C100.527 69.7855 100.459 69.9346 100.459 70.1051C100.459 70.2329 100.506 70.356 100.601 70.4744C100.752 70.6685 101.176 71.0023 101.872 71.4758C102.568 71.9446 103.025 72.3447 103.243 72.6761C103.465 73.0028 103.577 73.3698 103.577 73.777C103.577 74.1463 103.484 74.5085 103.3 74.8636C103.115 75.2187 102.855 75.491 102.518 75.6804C102.182 75.8698 101.811 75.9645 101.403 75.9645C101.086 75.9645 100.662 75.865 100.132 75.6662C99.9901 75.6141 99.893 75.588 99.8409 75.588C99.6847 75.588 99.5544 75.7064 99.4503 75.9432H99.2159L99.1023 73.5568H99.3437C99.5568 74.1818 99.848 74.6505 100.217 74.963C100.591 75.2755 100.944 75.4318 101.276 75.4318C101.503 75.4318 101.687 75.3631 101.83 75.2258C101.976 75.0838 102.05 74.9133 102.05 74.7145C102.05 74.4872 101.979 74.2907 101.837 74.125C101.695 73.9592 101.377 73.7083 100.885 73.3721C100.161 72.8702 99.6918 72.4867 99.4787 72.2216C99.1662 71.8333 99.0099 71.4048 99.0099 70.936C99.0099 70.4247 99.1851 69.963 99.5355 69.5511C99.8906 69.1344 100.402 68.9261 101.07 68.9261C101.429 68.9261 101.777 69.0137 102.114 69.1889C102.241 69.2599 102.346 69.2954 102.426 69.2954C102.511 69.2954 102.58 69.2789 102.632 69.2457C102.684 69.2078 102.767 69.106 102.881 68.9403H103.122ZM110.945 72.2074H107.301C107.344 73.088 107.578 73.7841 108.004 74.2954C108.331 74.6884 108.724 74.8849 109.183 74.8849C109.467 74.8849 109.725 74.8068 109.957 74.6505C110.189 74.4896 110.438 74.2031 110.703 73.7912L110.945 73.9474C110.585 74.6813 110.187 75.2021 109.751 75.5099C109.316 75.8129 108.812 75.9645 108.239 75.9645C107.254 75.9645 106.508 75.5857 106.001 74.8281C105.594 74.2173 105.391 73.4597 105.391 72.5554C105.391 71.4474 105.689 70.5667 106.286 69.9133C106.887 69.2552 107.59 68.9261 108.395 68.9261C109.067 68.9261 109.65 69.2031 110.142 69.7571C110.639 70.3063 110.907 71.1231 110.945 72.2074ZM109.197 71.7315C109.197 70.9692 109.155 70.446 109.07 70.1619C108.989 69.8778 108.861 69.6624 108.686 69.5156C108.587 69.4304 108.454 69.3878 108.288 69.3878C108.042 69.3878 107.841 69.5085 107.685 69.75C107.405 70.1714 107.266 70.749 107.266 71.4829V71.7315H109.197ZM115.223 69.125V69.9843C115.564 69.615 115.891 69.3475 116.203 69.1818C116.516 69.0113 116.852 68.9261 117.212 68.9261C117.643 68.9261 118 69.0468 118.284 69.2883C118.568 69.5251 118.758 69.821 118.852 70.1761C118.928 70.446 118.966 70.9645 118.966 71.7315V74.3167C118.966 74.8281 119.011 75.1477 119.101 75.2755C119.196 75.3986 119.39 75.4768 119.683 75.5099V75.7656H116.324V75.5099C116.575 75.4768 116.755 75.3726 116.864 75.1974C116.939 75.079 116.977 74.7855 116.977 74.3167V71.3622C116.977 70.8177 116.956 70.4744 116.913 70.3324C116.871 70.1903 116.797 70.0814 116.693 70.0057C116.594 69.9252 116.482 69.8849 116.359 69.8849C115.952 69.8849 115.573 70.1761 115.223 70.7585V74.3167C115.223 74.8139 115.268 75.1288 115.358 75.2613C115.453 75.3939 115.625 75.4768 115.876 75.5099V75.7656H112.517V75.5099C112.796 75.4815 112.995 75.3915 113.114 75.24C113.194 75.1359 113.234 74.8281 113.234 74.3167V70.5667C113.234 70.0648 113.187 69.7523 113.092 69.6292C113.002 69.5061 112.811 69.4256 112.517 69.3878V69.125H115.223ZM123.969 66.696V69.125H125.545V69.8281H123.969V73.9261C123.969 74.3096 123.985 74.5582 124.018 74.6718C124.056 74.7807 124.12 74.8707 124.21 74.9417C124.3 75.008 124.383 75.0412 124.459 75.0412C124.767 75.0412 125.058 74.8068 125.332 74.338L125.545 74.4943C125.162 75.4034 124.539 75.8579 123.678 75.8579C123.256 75.8579 122.899 75.7419 122.605 75.5099C122.316 75.2732 122.132 75.0104 122.051 74.7216C122.004 74.5606 121.98 74.125 121.98 73.4147V69.8281H121.114V69.5795C121.71 69.1581 122.217 68.7154 122.634 68.2514C123.055 67.7874 123.422 67.2689 123.734 66.696H123.969ZM130.57 74.7855C129.76 75.5004 129.033 75.8579 128.389 75.8579C128.01 75.8579 127.696 75.7348 127.445 75.4886C127.194 75.2377 127.068 74.9252 127.068 74.5511C127.068 74.0445 127.286 73.5899 127.722 73.1875C128.157 72.7803 129.107 72.2405 130.57 71.5682V70.9005C130.57 70.3986 130.541 70.0838 130.484 69.9559C130.432 69.8234 130.33 69.7097 130.179 69.615C130.027 69.5156 129.857 69.4659 129.668 69.4659C129.36 69.4659 129.107 69.5345 128.908 69.6718C128.785 69.7571 128.723 69.8565 128.723 69.9701C128.723 70.0696 128.789 70.1927 128.922 70.3395C129.102 70.5431 129.192 70.7396 129.192 70.9289C129.192 71.161 129.104 71.3598 128.929 71.5255C128.759 71.6865 128.534 71.767 128.254 71.767C127.956 71.767 127.705 71.6771 127.501 71.4971C127.303 71.3172 127.203 71.1065 127.203 70.865C127.203 70.5241 127.338 70.1998 127.608 69.892C127.878 69.5795 128.254 69.3404 128.737 69.1747C129.22 69.009 129.722 68.9261 130.243 68.9261C130.873 68.9261 131.37 69.061 131.734 69.3309C132.104 69.5961 132.343 69.8849 132.452 70.1974C132.518 70.3963 132.551 70.8532 132.551 71.5682V74.1463C132.551 74.4493 132.563 74.6411 132.587 74.7216C132.61 74.7973 132.646 74.8541 132.693 74.892C132.741 74.9299 132.795 74.9488 132.857 74.9488C132.98 74.9488 133.105 74.8612 133.233 74.686L133.446 74.8565C133.209 75.2069 132.963 75.4626 132.707 75.6235C132.456 75.7798 132.17 75.8579 131.848 75.8579C131.469 75.8579 131.173 75.7703 130.96 75.5951C130.747 75.4152 130.617 75.1453 130.57 74.7855ZM130.57 74.267V72.044C129.997 72.3802 129.571 72.74 129.291 73.1235C129.107 73.3792 129.014 73.6373 129.014 73.8977C129.014 74.1155 129.092 74.3073 129.249 74.473C129.367 74.6008 129.533 74.6647 129.746 74.6647C129.982 74.6647 130.257 74.5322 130.57 74.267ZM137.54 66.696V69.125H139.116V69.8281H137.54V73.9261C137.54 74.3096 137.556 74.5582 137.589 74.6718C137.627 74.7807 137.691 74.8707 137.781 74.9417C137.871 75.008 137.954 75.0412 138.03 75.0412C138.338 75.0412 138.629 74.8068 138.903 74.338L139.116 74.4943C138.733 75.4034 138.11 75.8579 137.249 75.8579C136.827 75.8579 136.47 75.7419 136.176 75.5099C135.887 75.2732 135.703 75.0104 135.622 74.7216C135.575 74.5606 135.551 74.125 135.551 73.4147V69.8281H134.685V69.5795C135.281 69.1581 135.788 68.7154 136.205 68.2514C136.626 67.7874 136.993 67.2689 137.305 66.696H137.54ZM142.074 65.9076C142.382 65.9076 142.642 66.0165 142.855 66.2343C143.068 66.4474 143.175 66.7055 143.175 67.0085C143.175 67.3115 143.066 67.5696 142.848 67.7826C142.635 67.9957 142.377 68.1022 142.074 68.1022C141.771 68.1022 141.513 67.9957 141.3 67.7826C141.087 67.5696 140.98 67.3115 140.98 67.0085C140.98 66.7055 141.087 66.4474 141.3 66.2343C141.513 66.0165 141.771 65.9076 142.074 65.9076ZM143.068 69.125V74.3878C143.068 74.8565 143.123 75.1572 143.232 75.2897C143.34 75.4176 143.554 75.491 143.871 75.5099V75.7656H140.284V75.5099C140.578 75.5004 140.795 75.4152 140.937 75.2542C141.032 75.1453 141.08 74.8565 141.08 74.3878V70.5099C141.08 70.0412 141.025 69.7429 140.916 69.615C140.807 69.4825 140.597 69.4067 140.284 69.3878V69.125H143.068ZM148.249 75.9645L146.011 70.8153C145.741 70.195 145.531 69.8021 145.379 69.6363C145.27 69.5132 145.109 69.4304 144.896 69.3878V69.125H148.426V69.3878C148.204 69.3878 148.052 69.428 147.972 69.5085C147.858 69.6127 147.801 69.7358 147.801 69.8778C147.801 70.053 147.905 70.3821 148.114 70.865L149.207 73.3579L150.081 71.2059C150.332 70.5904 150.457 70.1548 150.457 69.8991C150.457 69.7523 150.403 69.634 150.294 69.544C150.19 69.4493 150.003 69.3972 149.733 69.3878V69.125H151.906V69.3878C151.698 69.4162 151.527 69.4943 151.395 69.6221C151.262 69.75 151.063 70.1264 150.798 70.7514L148.582 75.9645H148.249ZM158.876 72.2074H155.233C155.276 73.088 155.51 73.7841 155.936 74.2954C156.263 74.6884 156.656 74.8849 157.115 74.8849C157.399 74.8849 157.657 74.8068 157.889 74.6505C158.121 74.4896 158.37 74.2031 158.635 73.7912L158.876 73.9474C158.517 74.6813 158.119 75.2021 157.683 75.5099C157.248 75.8129 156.743 75.9645 156.17 75.9645C155.186 75.9645 154.44 75.5857 153.933 74.8281C153.526 74.2173 153.322 73.4597 153.322 72.5554C153.322 71.4474 153.621 70.5667 154.217 69.9133C154.819 69.2552 155.522 68.9261 156.327 68.9261C156.999 68.9261 157.581 69.2031 158.074 69.7571C158.571 70.3063 158.839 71.1231 158.876 72.2074ZM157.129 71.7315C157.129 70.9692 157.087 70.446 157.001 70.1619C156.921 69.8778 156.793 69.6624 156.618 69.5156C156.518 69.4304 156.386 69.3878 156.22 69.3878C155.974 69.3878 155.773 69.5085 155.616 69.75C155.337 70.1714 155.197 70.749 155.197 71.4829V71.7315H157.129Z" fill="#1C1B1F"/>
<line x1="174.303" y1="0.235291" x2="174.303" y2="80.2353" stroke="#1C1B1F" stroke-width="0.484848"/>
<path d="M190.18 19.401V23.357H190.457C190.884 23.357 191.232 23.2931 191.501 23.1652C191.771 23.0374 191.999 22.8219 192.183 22.5189C192.373 22.2159 192.496 21.8063 192.553 21.2902H192.801V26.1269H192.553C192.463 25.213 192.216 24.6117 191.814 24.3229C191.416 24.0293 190.964 23.8826 190.457 23.8826H190.18V26.83C190.18 27.3224 190.207 27.6302 190.259 27.7533C190.315 27.8764 190.422 27.9853 190.578 28.08C190.739 28.17 190.955 28.2149 191.224 28.2149H191.544V28.4777H186.509V28.2149H186.828C187.108 28.2149 187.332 28.1652 187.503 28.0658C187.626 27.9995 187.721 27.8859 187.787 27.7249C187.839 27.6112 187.865 27.3129 187.865 26.83V20.4948C187.865 20.0023 187.839 19.6946 187.787 19.5715C187.735 19.4484 187.628 19.3418 187.467 19.2519C187.311 19.1572 187.098 19.1098 186.828 19.1098H186.509V18.847H194.634V21.6098H194.342C194.276 20.9612 194.106 20.4806 193.831 20.1681C193.561 19.8556 193.168 19.6354 192.652 19.5076C192.368 19.4365 191.842 19.401 191.075 19.401H190.18ZM198.938 24.0885V26.7874C198.938 27.3082 198.968 27.6373 199.03 27.7746C199.096 27.9072 199.21 28.0137 199.371 28.0942C199.532 28.1747 199.832 28.2149 200.273 28.2149V28.4777H195.344V28.2149C195.789 28.2149 196.09 28.1747 196.246 28.0942C196.407 28.009 196.518 27.9001 196.58 27.7675C196.646 27.6349 196.679 27.3082 196.679 26.7874V20.5374C196.679 20.0165 196.646 19.6898 196.58 19.5573C196.518 19.42 196.407 19.3111 196.246 19.2306C196.085 19.1501 195.784 19.1098 195.344 19.1098V18.847H199.818C200.983 18.847 201.835 18.9275 202.375 19.0885C202.915 19.2495 203.355 19.5478 203.696 19.9834C204.037 20.4143 204.207 20.9209 204.207 21.5033C204.207 22.2135 203.952 22.8006 203.44 23.2647C203.114 23.5582 202.657 23.7784 202.07 23.9252L204.385 27.1851C204.688 27.6065 204.903 27.8693 205.031 27.9735C205.225 28.1202 205.45 28.2007 205.706 28.2149V28.4777H202.673L199.57 24.0885H198.938ZM198.938 19.3655V23.5843H199.342C200.001 23.5843 200.493 23.5251 200.82 23.4067C201.146 23.2836 201.402 23.0658 201.587 22.7533C201.776 22.4361 201.871 22.0241 201.871 21.5175C201.871 20.7836 201.698 20.2415 201.352 19.8911C201.011 19.5407 200.46 19.3655 199.698 19.3655H198.938ZM209.548 19.401V23.3215H209.74C210.351 23.3215 210.794 23.1297 211.068 22.7462C211.343 22.3627 211.518 21.7969 211.594 21.0487H211.864V26.0914H211.594C211.537 25.5421 211.416 25.0923 211.232 24.7419C211.052 24.3915 210.841 24.1572 210.599 24.0388C210.358 23.9157 210.008 23.8541 209.548 23.8541V26.5672C209.548 27.0975 209.57 27.4219 209.612 27.5402C209.66 27.6586 209.745 27.7557 209.868 27.8314C209.991 27.9072 210.19 27.9451 210.465 27.9451H211.04C211.939 27.9451 212.659 27.7367 213.199 27.3201C213.743 26.9034 214.134 26.2689 214.371 25.4166H214.634L214.2 28.4777H205.876V28.2149H206.196C206.475 28.2149 206.7 28.1652 206.871 28.0658C206.994 27.9995 207.089 27.8859 207.155 27.7249C207.207 27.6112 207.233 27.3129 207.233 26.83V20.4948C207.233 20.0592 207.221 19.7916 207.198 19.6922C207.15 19.5265 207.063 19.3987 206.935 19.3087C206.755 19.1761 206.509 19.1098 206.196 19.1098H205.876V18.847H213.938V21.6951H213.668C213.53 20.999 213.336 20.4995 213.085 20.1965C212.839 19.8934 212.489 19.6709 212.034 19.5289C211.769 19.4436 211.272 19.401 210.543 19.401H209.548ZM219.25 19.401V23.3215H219.442C220.053 23.3215 220.495 23.1297 220.77 22.7462C221.045 22.3627 221.22 21.7969 221.296 21.0487H221.565V26.0914H221.296C221.239 25.5421 221.118 25.0923 220.933 24.7419C220.753 24.3915 220.543 24.1572 220.301 24.0388C220.06 23.9157 219.709 23.8541 219.25 23.8541V26.5672C219.25 27.0975 219.271 27.4219 219.314 27.5402C219.361 27.6586 219.447 27.7557 219.57 27.8314C219.693 27.9072 219.892 27.9451 220.166 27.9451H220.742C221.641 27.9451 222.361 27.7367 222.901 27.3201C223.445 26.9034 223.836 26.2689 224.073 25.4166H224.335L223.902 28.4777H215.578V28.2149H215.898C216.177 28.2149 216.402 28.1652 216.573 28.0658C216.696 27.9995 216.79 27.8859 216.857 27.7249C216.909 27.6112 216.935 27.3129 216.935 26.83V20.4948C216.935 20.0592 216.923 19.7916 216.899 19.6922C216.852 19.5265 216.764 19.3987 216.636 19.3087C216.457 19.1761 216.21 19.1098 215.898 19.1098H215.578V18.847H223.639V21.6951H223.369C223.232 20.999 223.038 20.4995 222.787 20.1965C222.541 19.8934 222.19 19.6709 221.736 19.5289C221.471 19.4436 220.974 19.401 220.244 19.401H219.25ZM238.71 18.847V19.1098C238.36 19.1666 238.047 19.3537 237.773 19.6709C237.574 19.9076 237.278 20.464 236.885 21.3399L233.568 28.6979H233.334L230.031 21.0416C229.634 20.1183 229.366 19.5762 229.229 19.4152C229.096 19.2542 228.843 19.1524 228.469 19.1098V18.847H233.085V19.1098H232.929C232.512 19.1098 232.228 19.1619 232.077 19.2661C231.968 19.3371 231.913 19.4413 231.913 19.5786C231.913 19.6638 231.932 19.7656 231.97 19.884C232.008 19.9976 232.136 20.3077 232.354 20.8144L234.406 25.6084L236.31 21.3399C236.537 20.8238 236.677 20.4782 236.729 20.303C236.781 20.1278 236.807 19.9787 236.807 19.8556C236.807 19.7135 236.769 19.588 236.693 19.4791C236.617 19.3702 236.506 19.2874 236.359 19.2306C236.156 19.1501 235.886 19.1098 235.55 19.1098V18.847H238.71ZM244.193 28.2149V28.4777H239.158V28.2149H239.477C239.757 28.2149 239.982 28.1652 240.152 28.0658C240.275 27.9995 240.37 27.8859 240.436 27.7249C240.488 27.6112 240.514 27.3129 240.514 26.83V20.4948C240.514 20.0023 240.488 19.6946 240.436 19.5715C240.384 19.4484 240.278 19.3418 240.117 19.2519C239.96 19.1572 239.747 19.1098 239.477 19.1098H239.158V18.847H244.193V19.1098H243.874C243.594 19.1098 243.369 19.1595 243.199 19.259C243.076 19.3253 242.979 19.4389 242.908 19.5999C242.856 19.7135 242.83 20.0118 242.83 20.4948V26.83C242.83 27.3224 242.856 27.6302 242.908 27.7533C242.965 27.8764 243.071 27.9853 243.227 28.08C243.388 28.17 243.604 28.2149 243.874 28.2149H244.193ZM251.367 18.6269L251.445 21.8371H251.153C251.016 21.0322 250.678 20.3859 250.138 19.8982C249.603 19.4058 249.023 19.1595 248.398 19.1595C247.915 19.1595 247.531 19.2897 247.247 19.5502C246.968 19.8058 246.828 20.1018 246.828 20.4379C246.828 20.651 246.878 20.8404 246.977 21.0061C247.115 21.2287 247.335 21.4488 247.638 21.6666C247.86 21.8229 248.374 22.0999 249.179 22.4976C250.306 23.0516 251.066 23.5748 251.459 24.0672C251.847 24.5596 252.041 25.1231 252.041 25.7576C252.041 26.5625 251.726 27.2561 251.097 27.8385C250.472 28.4162 249.676 28.705 248.71 28.705C248.407 28.705 248.121 28.6742 247.851 28.6127C247.581 28.5511 247.242 28.4351 246.835 28.2647C246.608 28.17 246.421 28.1226 246.274 28.1226C246.151 28.1226 246.021 28.17 245.884 28.2647C245.746 28.3594 245.635 28.5038 245.55 28.6979H245.287V25.0615H245.55C245.758 26.0843 246.158 26.8655 246.75 27.4053C247.347 27.9403 247.988 28.2078 248.675 28.2078C249.205 28.2078 249.626 28.0634 249.939 27.7746C250.256 27.4858 250.415 27.1496 250.415 26.7661C250.415 26.5388 250.353 26.3186 250.23 26.1056C250.112 25.8925 249.93 25.6913 249.683 25.5019C249.437 25.3077 249.001 25.0568 248.376 24.749C247.501 24.3182 246.871 23.9512 246.487 23.6482C246.104 23.3451 245.808 23.0066 245.599 22.6326C245.396 22.2585 245.294 21.8466 245.294 21.3968C245.294 20.6297 245.576 19.9763 246.139 19.4365C246.703 18.8968 247.413 18.6269 248.27 18.6269C248.582 18.6269 248.885 18.6647 249.179 18.7405C249.402 18.7973 249.671 18.9039 249.989 19.0601C250.311 19.2116 250.536 19.2874 250.663 19.2874C250.787 19.2874 250.884 19.2495 250.955 19.1737C251.026 19.098 251.092 18.9157 251.153 18.6269H251.367ZM258.682 25.7362H255.28L254.875 26.6737C254.742 26.9862 254.676 27.2443 254.676 27.4479C254.676 27.7178 254.785 27.9166 255.003 28.0445C255.131 28.1202 255.446 28.1771 255.948 28.2149V28.4777H252.744V28.2149C253.09 28.1629 253.374 28.0208 253.597 27.7888C253.819 27.5521 254.094 27.0667 254.421 26.3328L257.865 18.6482H258L261.473 26.5459C261.805 27.294 262.077 27.7651 262.29 27.9593C262.451 28.106 262.678 28.1913 262.972 28.2149V28.4777H258.313V28.2149H258.504C258.878 28.2149 259.141 28.1629 259.293 28.0587C259.397 27.9829 259.449 27.874 259.449 27.732C259.449 27.6468 259.435 27.5592 259.406 27.4692C259.397 27.4266 259.326 27.249 259.193 26.9365L258.682 25.7362ZM258.44 25.2107L257.006 21.8939L255.528 25.2107H258.44ZM274.25 22.7178H277.205V22.9948C276.873 23.0421 276.613 23.1415 276.423 23.2931C276.234 23.4398 275.988 23.7855 275.685 24.33C275.382 24.8745 274.956 25.4829 274.406 26.1553C274.889 26.5909 275.282 26.8939 275.585 27.0644C275.798 27.1827 276.007 27.2419 276.21 27.2419C276.561 27.2419 276.878 27.0123 277.162 26.553L277.453 26.7093C277.065 27.4716 276.651 28.0137 276.21 28.3357C275.874 28.5772 275.491 28.6979 275.06 28.6979C274.69 28.6979 274.338 28.6198 274.001 28.4635C273.67 28.3025 273.265 28.0042 272.787 27.5686C272.195 27.9664 271.639 28.2552 271.118 28.4351C270.597 28.6103 270.055 28.6979 269.492 28.6979C268.592 28.6979 267.877 28.454 267.347 27.9664C266.816 27.4787 266.551 26.9058 266.551 26.2476C266.551 25.5374 266.805 24.9195 267.311 24.3939C267.818 23.8683 268.554 23.4138 269.52 23.0303C269.397 22.7225 269.305 22.4219 269.243 22.1283C269.181 21.8347 269.151 21.5506 269.151 21.276C269.151 20.5184 269.416 19.8887 269.946 19.3868C270.481 18.8802 271.163 18.6269 271.992 18.6269C272.659 18.6269 273.187 18.795 273.575 19.1311C273.968 19.4626 274.165 19.8508 274.165 20.2959C274.165 20.8309 273.964 21.2902 273.561 21.6737C273.163 22.0525 272.531 22.4005 271.665 22.7178C272.2 23.66 272.983 24.6756 274.016 25.7647C274.712 24.9834 275.06 24.3134 275.06 23.7547C275.06 23.5558 274.991 23.3878 274.854 23.2504C274.716 23.1084 274.515 23.0232 274.25 22.9948V22.7178ZM271.423 22.2916C271.921 22.107 272.254 21.9105 272.425 21.7022C272.595 21.4891 272.68 21.2334 272.68 20.9351C272.68 20.4048 272.541 19.9574 272.261 19.5928C272.077 19.3513 271.849 19.2306 271.58 19.2306C271.357 19.2306 271.165 19.3182 271.004 19.4933C270.848 19.6685 270.77 19.9053 270.77 20.2036C270.77 20.4356 270.808 20.6842 270.884 20.9493C270.959 21.2145 271.139 21.6619 271.423 22.2916ZM269.719 23.4848C269.34 23.6458 269.073 23.8163 268.916 23.9962C268.694 24.2613 268.582 24.5573 268.582 24.884C268.582 25.329 268.71 25.7718 268.966 26.2121C269.226 26.6524 269.539 26.9933 269.903 27.2348C270.268 27.4763 270.633 27.597 270.997 27.597C271.177 27.597 271.378 27.5592 271.601 27.4834C271.828 27.4029 272.074 27.2845 272.34 27.1283C271.198 25.9588 270.325 24.7443 269.719 23.4848ZM286.963 25.7362H283.561L283.156 26.6737C283.024 26.9862 282.957 27.2443 282.957 27.4479C282.957 27.7178 283.066 27.9166 283.284 28.0445C283.412 28.1202 283.727 28.1771 284.229 28.2149V28.4777H281.026V28.2149C281.371 28.1629 281.655 28.0208 281.878 27.7888C282.1 27.5521 282.375 27.0667 282.702 26.3328L286.146 18.6482H286.281L289.754 26.5459C290.086 27.294 290.358 27.7651 290.571 27.9593C290.732 28.106 290.959 28.1913 291.253 28.2149V28.4777H286.594V28.2149H286.786C287.16 28.2149 287.422 28.1629 287.574 28.0587C287.678 27.9829 287.73 27.874 287.73 27.732C287.73 27.6468 287.716 27.5592 287.688 27.4692C287.678 27.4266 287.607 27.249 287.474 26.9365L286.963 25.7362ZM286.722 25.2107L285.287 21.8939L283.81 25.2107H286.722ZM291.615 28.4777V28.2149H291.935C292.214 28.2149 292.427 28.1723 292.574 28.0871C292.725 27.9971 292.837 27.8764 292.908 27.7249C292.95 27.6254 292.972 27.3272 292.972 26.83V20.4948C292.972 20.0023 292.946 19.6946 292.894 19.5715C292.841 19.4484 292.735 19.3418 292.574 19.2519C292.418 19.1572 292.205 19.1098 291.935 19.1098H291.615V18.847H295.926C297.077 18.847 298.002 19.0033 298.703 19.3158C299.56 19.6993 300.209 20.2793 300.649 21.0558C301.094 21.8324 301.317 22.7107 301.317 23.6908C301.317 24.3679 301.208 24.9929 300.99 25.5658C300.772 26.134 300.491 26.6051 300.145 26.9791C299.799 27.3485 299.399 27.6468 298.945 27.874C298.495 28.0966 297.943 28.2694 297.29 28.3925C297.001 28.4493 296.546 28.4777 295.926 28.4777H291.615ZM295.287 19.3939V26.9081C295.287 27.3058 295.306 27.5497 295.344 27.6397C295.382 27.7296 295.446 27.7983 295.536 27.8456C295.663 27.9166 295.848 27.9522 296.09 27.9522C296.88 27.9522 297.484 27.6823 297.901 27.1425C298.469 26.4133 298.753 25.2817 298.753 23.7476C298.753 22.5118 298.559 21.5246 298.171 20.786C297.863 20.2083 297.467 19.8153 296.984 19.607C296.644 19.4602 296.078 19.3892 295.287 19.3939ZM308.867 25.1965L311.48 18.847H315.401V19.1098H315.088C314.804 19.1098 314.577 19.1595 314.406 19.259C314.288 19.3253 314.193 19.4365 314.122 19.5928C314.07 19.7064 314.044 20.0023 314.044 20.4806V26.83C314.044 27.3224 314.07 27.6302 314.122 27.7533C314.174 27.8764 314.281 27.9853 314.442 28.08C314.603 28.17 314.818 28.2149 315.088 28.2149H315.401V28.4777H310.372V28.2149H310.685C310.969 28.2149 311.196 28.1652 311.367 28.0658C311.485 27.9995 311.58 27.8859 311.651 27.7249C311.703 27.6112 311.729 27.3129 311.729 26.83V19.6922L308.036 28.4777H307.865L304.115 19.7561V26.5388C304.115 27.0123 304.127 27.3035 304.151 27.4124C304.212 27.6491 304.345 27.8433 304.548 27.9948C304.757 28.1415 305.081 28.2149 305.521 28.2149V28.4777H302.226V28.2149H302.325C302.538 28.2197 302.737 28.1865 302.922 28.1155C303.107 28.0397 303.246 27.9403 303.341 27.8172C303.436 27.6941 303.509 27.5213 303.561 27.2987C303.571 27.2467 303.575 27.0052 303.575 26.5743V20.4806C303.575 19.9929 303.549 19.6898 303.497 19.5715C303.445 19.4484 303.339 19.3418 303.178 19.2519C303.017 19.1572 302.801 19.1098 302.531 19.1098H302.226V18.847H306.161L308.867 25.1965ZM320.997 28.2149V28.4777H315.962V28.2149H316.281C316.561 28.2149 316.786 28.1652 316.956 28.0658C317.079 27.9995 317.174 27.8859 317.24 27.7249C317.292 27.6112 317.318 27.3129 317.318 26.83V20.4948C317.318 20.0023 317.292 19.6946 317.24 19.5715C317.188 19.4484 317.082 19.3418 316.921 19.2519C316.764 19.1572 316.551 19.1098 316.281 19.1098H315.962V18.847H320.997V19.1098H320.678C320.398 19.1098 320.173 19.1595 320.003 19.259C319.88 19.3253 319.783 19.4389 319.712 19.5999C319.66 19.7135 319.634 20.0118 319.634 20.4948V26.83C319.634 27.3224 319.66 27.6302 319.712 27.7533C319.769 27.8764 319.875 27.9853 320.031 28.08C320.192 28.17 320.408 28.2149 320.678 28.2149H320.997ZM328.171 18.6269L328.249 21.8371H327.957C327.82 21.0322 327.482 20.3859 326.942 19.8982C326.407 19.4058 325.827 19.1595 325.202 19.1595C324.719 19.1595 324.335 19.2897 324.051 19.5502C323.772 19.8058 323.632 20.1018 323.632 20.4379C323.632 20.651 323.682 20.8404 323.781 21.0061C323.919 21.2287 324.139 21.4488 324.442 21.6666C324.664 21.8229 325.178 22.0999 325.983 22.4976C327.11 23.0516 327.87 23.5748 328.263 24.0672C328.651 24.5596 328.845 25.1231 328.845 25.7576C328.845 26.5625 328.53 27.2561 327.901 27.8385C327.276 28.4162 326.48 28.705 325.514 28.705C325.211 28.705 324.925 28.6742 324.655 28.6127C324.385 28.5511 324.046 28.4351 323.639 28.2647C323.412 28.17 323.225 28.1226 323.078 28.1226C322.955 28.1226 322.825 28.17 322.688 28.2647C322.55 28.3594 322.439 28.5038 322.354 28.6979H322.091V25.0615H322.354C322.562 26.0843 322.962 26.8655 323.554 27.4053C324.151 27.9403 324.792 28.2078 325.479 28.2078C326.009 28.2078 326.43 28.0634 326.743 27.7746C327.06 27.4858 327.219 27.1496 327.219 26.7661C327.219 26.5388 327.157 26.3186 327.034 26.1056C326.916 25.8925 326.733 25.6913 326.487 25.5019C326.241 25.3077 325.805 25.0568 325.18 24.749C324.305 24.3182 323.675 23.9512 323.291 23.6482C322.908 23.3451 322.612 23.0066 322.403 22.6326C322.2 22.2585 322.098 21.8466 322.098 21.3968C322.098 20.6297 322.38 19.9763 322.943 19.4365C323.507 18.8968 324.217 18.6269 325.074 18.6269C325.386 18.6269 325.689 18.6647 325.983 18.7405C326.206 18.7973 326.475 18.9039 326.793 19.0601C327.115 19.2116 327.34 19.2874 327.467 19.2874C327.591 19.2874 327.688 19.2495 327.759 19.1737C327.83 19.098 327.896 18.9157 327.957 18.6269H328.171ZM336.267 18.6269L336.345 21.8371H336.054C335.917 21.0322 335.578 20.3859 335.038 19.8982C334.503 19.4058 333.923 19.1595 333.298 19.1595C332.815 19.1595 332.432 19.2897 332.148 19.5502C331.868 19.8058 331.729 20.1018 331.729 20.4379C331.729 20.651 331.778 20.8404 331.878 21.0061C332.015 21.2287 332.235 21.4488 332.538 21.6666C332.761 21.8229 333.275 22.0999 334.08 22.4976C335.207 23.0516 335.966 23.5748 336.359 24.0672C336.748 24.5596 336.942 25.1231 336.942 25.7576C336.942 26.5625 336.627 27.2561 335.997 27.8385C335.372 28.4162 334.577 28.705 333.611 28.705C333.308 28.705 333.021 28.6742 332.751 28.6127C332.482 28.5511 332.143 28.4351 331.736 28.2647C331.509 28.17 331.322 28.1226 331.175 28.1226C331.052 28.1226 330.921 28.17 330.784 28.2647C330.647 28.3594 330.536 28.5038 330.45 28.6979H330.188V25.0615H330.45C330.659 26.0843 331.059 26.8655 331.651 27.4053C332.247 27.9403 332.889 28.2078 333.575 28.2078C334.106 28.2078 334.527 28.0634 334.84 27.7746C335.157 27.4858 335.315 27.1496 335.315 26.7661C335.315 26.5388 335.254 26.3186 335.131 26.1056C335.012 25.8925 334.83 25.6913 334.584 25.5019C334.338 25.3077 333.902 25.0568 333.277 24.749C332.401 24.3182 331.771 23.9512 331.388 23.6482C331.004 23.3451 330.708 23.0066 330.5 22.6326C330.296 22.2585 330.195 21.8466 330.195 21.3968C330.195 20.6297 330.476 19.9763 331.04 19.4365C331.603 18.8968 332.314 18.6269 333.171 18.6269C333.483 18.6269 333.786 18.6647 334.08 18.7405C334.302 18.7973 334.572 18.9039 334.889 19.0601C335.211 19.2116 335.436 19.2874 335.564 19.2874C335.687 19.2874 335.784 19.2495 335.855 19.1737C335.926 19.098 335.992 18.9157 336.054 18.6269H336.267ZM342.858 28.2149V28.4777H337.823V28.2149H338.142C338.421 28.2149 338.646 28.1652 338.817 28.0658C338.94 27.9995 339.035 27.8859 339.101 27.7249C339.153 27.6112 339.179 27.3129 339.179 26.83V20.4948C339.179 20.0023 339.153 19.6946 339.101 19.5715C339.049 19.4484 338.942 19.3418 338.781 19.2519C338.625 19.1572 338.412 19.1098 338.142 19.1098H337.823V18.847H342.858V19.1098H342.538C342.259 19.1098 342.034 19.1595 341.864 19.259C341.741 19.3253 341.644 19.4389 341.573 19.5999C341.52 19.7135 341.494 20.0118 341.494 20.4948V26.83C341.494 27.3224 341.52 27.6302 341.573 27.7533C341.629 27.8764 341.736 27.9853 341.892 28.08C342.053 28.17 342.269 28.2149 342.538 28.2149H342.858ZM348.817 18.7121C350.351 18.6553 351.596 19.1027 352.553 20.0544C353.514 21.0061 353.994 22.1969 353.994 23.6269C353.994 24.8485 353.637 25.9233 352.922 26.8513C351.975 28.0824 350.637 28.6979 348.909 28.6979C347.176 28.6979 345.836 28.1108 344.889 26.9365C344.141 26.0085 343.767 24.9076 343.767 23.634C343.767 22.204 344.252 21.0132 345.223 20.0615C346.198 19.1051 347.396 18.6553 348.817 18.7121ZM348.902 19.1666C348.021 19.1666 347.351 19.6165 346.892 20.5161C346.518 21.2547 346.331 22.3153 346.331 23.6979C346.331 25.3409 346.62 26.5554 347.198 27.3414C347.6 27.8906 348.163 28.1652 348.888 28.1652C349.376 28.1652 349.783 28.0469 350.109 27.8101C350.526 27.5071 350.85 27.0241 351.082 26.3612C351.314 25.6936 351.43 24.8248 351.43 23.7547C351.43 22.481 351.312 21.5293 351.075 20.8996C350.839 20.2651 350.536 19.8177 350.166 19.5573C349.802 19.2969 349.38 19.1666 348.902 19.1666ZM358.142 18.847L362.894 24.8201V20.6794C362.894 20.1018 362.811 19.7112 362.645 19.5076C362.418 19.2329 362.037 19.1004 361.501 19.1098V18.847H364.683V19.1098C364.276 19.1619 364.001 19.2306 363.859 19.3158C363.722 19.3963 363.613 19.5312 363.533 19.7206C363.457 19.9053 363.419 20.2249 363.419 20.6794V28.6979H363.178L356.665 20.6794V26.8016C356.665 27.3556 356.79 27.7296 357.041 27.9237C357.297 28.1179 357.588 28.2149 357.915 28.2149H358.142V28.4777H354.726V28.2149C355.256 28.2102 355.626 28.1013 355.834 27.8882C356.042 27.6752 356.146 27.3129 356.146 26.8016V20.0047L355.94 19.749C355.737 19.4933 355.557 19.3253 355.401 19.2448C355.244 19.1643 355.019 19.1193 354.726 19.1098V18.847H358.142Z" fill="#1C1B1F"/>
<path d="M192.233 58.2514H188.831L188.426 59.1889C188.294 59.5014 188.227 59.7594 188.227 59.963C188.227 60.2329 188.336 60.4318 188.554 60.5596C188.682 60.6354 188.997 60.6922 189.499 60.7301V60.9929H186.296V60.7301C186.641 60.678 186.925 60.5359 187.148 60.3039C187.37 60.0672 187.645 59.5819 187.972 58.848L191.416 51.1633H191.551L195.024 59.061C195.356 59.8091 195.628 60.2803 195.841 60.4744C196.002 60.6212 196.229 60.7064 196.523 60.7301V60.9929H191.864V60.7301H192.055C192.43 60.7301 192.692 60.678 192.844 60.5738C192.948 60.4981 193 60.3892 193 60.2471C193 60.1619 192.986 60.0743 192.957 59.9843C192.948 59.9417 192.877 59.7642 192.744 59.4517L192.233 58.2514ZM191.992 57.7258L190.557 54.4091L189.08 57.7258H191.992ZM200.621 56.6321V59.3025C200.621 59.8234 200.652 60.1524 200.713 60.2897C200.779 60.4223 200.893 60.5288 201.054 60.6093C201.22 60.6898 201.52 60.7301 201.956 60.7301V60.9929H197.063V60.7301C197.508 60.7301 197.808 60.6898 197.965 60.6093C198.126 60.5241 198.237 60.4152 198.298 60.2826C198.365 60.1501 198.398 59.8234 198.398 59.3025V53.0525C198.398 52.5317 198.365 52.205 198.298 52.0724C198.237 51.9351 198.126 51.8262 197.965 51.7457C197.804 51.6652 197.503 51.625 197.063 51.625V51.3622H201.26C202.643 51.3622 203.635 51.6084 204.236 52.1008C204.837 52.5932 205.138 53.2088 205.138 53.9474C205.138 54.5724 204.944 55.1074 204.555 55.5525C204.167 55.9976 203.632 56.3006 202.95 56.4616C202.491 56.5752 201.715 56.6321 200.621 56.6321ZM200.621 51.9162V56.0781C200.777 56.0876 200.895 56.0923 200.976 56.0923C201.554 56.0923 201.999 55.9218 202.311 55.5809C202.624 55.2353 202.78 54.7026 202.78 53.9829C202.78 53.268 202.624 52.7448 202.311 52.4133C201.999 52.0819 201.532 51.9162 200.912 51.9162H200.621ZM209.513 56.6321V59.3025C209.513 59.8234 209.544 60.1524 209.605 60.2897C209.671 60.4223 209.785 60.5288 209.946 60.6093C210.112 60.6898 210.412 60.7301 210.848 60.7301V60.9929H205.955V60.7301C206.4 60.7301 206.7 60.6898 206.857 60.6093C207.018 60.5241 207.129 60.4152 207.19 60.2826C207.257 60.1501 207.29 59.8234 207.29 59.3025V53.0525C207.29 52.5317 207.257 52.205 207.19 52.0724C207.129 51.9351 207.018 51.8262 206.857 51.7457C206.696 51.6652 206.395 51.625 205.955 51.625V51.3622H210.152C211.535 51.3622 212.527 51.6084 213.128 52.1008C213.729 52.5932 214.03 53.2088 214.03 53.9474C214.03 54.5724 213.836 55.1074 213.448 55.5525C213.059 55.9976 212.524 56.3006 211.842 56.4616C211.383 56.5752 210.607 56.6321 209.513 56.6321ZM209.513 51.9162V56.0781C209.669 56.0876 209.787 56.0923 209.868 56.0923C210.446 56.0923 210.891 55.9218 211.203 55.5809C211.516 55.2353 211.672 54.7026 211.672 53.9829C211.672 53.268 211.516 52.7448 211.203 52.4133C210.891 52.0819 210.424 51.9162 209.804 51.9162H209.513ZM223.661 57.6122L223.298 60.9929H214.747V60.7301H215.067C215.346 60.7301 215.571 60.6804 215.742 60.5809C215.865 60.5146 215.959 60.401 216.026 60.24C216.078 60.1264 216.104 59.8281 216.104 59.3451V53.0099C216.104 52.5175 216.078 52.2097 216.026 52.0866C215.974 51.9635 215.867 51.857 215.706 51.767C215.55 51.6723 215.337 51.625 215.067 51.625H214.747V51.3622H219.882V51.625H219.463C219.184 51.625 218.959 51.6747 218.788 51.7741C218.665 51.8404 218.568 51.954 218.497 52.115C218.445 52.2287 218.419 52.527 218.419 53.0099V59.1463C218.419 59.6387 218.448 59.9536 218.504 60.0909C218.561 60.2234 218.672 60.3229 218.838 60.3892C218.957 60.4318 219.243 60.4531 219.698 60.4531H220.5C221.011 60.4531 221.438 60.3631 221.778 60.1832C222.119 60.0033 222.413 59.7192 222.659 59.3309C222.91 58.9427 223.147 58.3698 223.369 57.6122H223.661ZM229.506 60.7301V60.9929H224.47V60.7301H224.79C225.069 60.7301 225.294 60.6804 225.465 60.5809C225.588 60.5146 225.682 60.401 225.749 60.24C225.801 60.1264 225.827 59.8281 225.827 59.3451V53.0099C225.827 52.5175 225.801 52.2097 225.749 52.0866C225.697 51.9635 225.59 51.857 225.429 51.767C225.273 51.6723 225.06 51.625 224.79 51.625H224.47V51.3622H229.506V51.625H229.186C228.907 51.625 228.682 51.6747 228.511 51.7741C228.388 51.8404 228.291 51.954 228.22 52.115C228.168 52.2287 228.142 52.527 228.142 53.0099V59.3451C228.142 59.8376 228.168 60.1453 228.22 60.2684C228.277 60.3915 228.384 60.5004 228.54 60.5951C228.701 60.6851 228.916 60.7301 229.186 60.7301H229.506ZM239.555 51.142V54.4801H239.278C239.07 53.6089 238.682 52.9412 238.114 52.4772C237.546 52.0132 236.902 51.7812 236.182 51.7812C235.581 51.7812 235.029 51.954 234.527 52.2997C234.025 52.6453 233.658 53.0975 233.426 53.6562C233.128 54.3712 232.979 55.1666 232.979 56.0426C232.979 56.9043 233.088 57.6903 233.305 58.4005C233.523 59.106 233.864 59.6411 234.328 60.0056C234.792 60.3655 235.394 60.5454 236.132 60.5454C236.738 60.5454 237.292 60.4128 237.794 60.1477C238.301 59.8825 238.833 59.4256 239.392 58.7769V59.6079C238.852 60.1714 238.289 60.5809 237.702 60.8366C237.119 61.0876 236.438 61.213 235.656 61.213C234.629 61.213 233.715 61.0071 232.915 60.5951C232.119 60.1832 231.504 59.5913 231.068 58.8196C230.637 58.0478 230.422 57.2263 230.422 56.3551C230.422 55.4365 230.661 54.5653 231.139 53.7414C231.622 52.9176 232.271 52.2784 233.085 51.8238C233.904 51.3693 234.773 51.142 235.692 51.142C236.369 51.142 237.084 51.2888 237.837 51.5823C238.272 51.7528 238.549 51.838 238.668 51.838C238.819 51.838 238.949 51.7836 239.058 51.6747C239.172 51.561 239.245 51.3835 239.278 51.142H239.555ZM246.409 58.2514H243.007L242.602 59.1889C242.47 59.5014 242.403 59.7594 242.403 59.963C242.403 60.2329 242.512 60.4318 242.73 60.5596C242.858 60.6354 243.173 60.6922 243.675 60.7301V60.9929H240.472V60.7301C240.817 60.678 241.101 60.5359 241.324 60.3039C241.546 60.0672 241.821 59.5819 242.148 58.848L245.592 51.1633H245.727L249.2 59.061C249.532 59.8091 249.804 60.2803 250.017 60.4744C250.178 60.6212 250.405 60.7064 250.699 60.7301V60.9929H246.04V60.7301H246.232C246.606 60.7301 246.868 60.678 247.02 60.5738C247.124 60.4981 247.176 60.3892 247.176 60.2471C247.176 60.1619 247.162 60.0743 247.134 59.9843C247.124 59.9417 247.053 59.7642 246.921 59.4517L246.409 58.2514ZM246.168 57.7258L244.733 54.4091L243.256 57.7258H246.168ZM258.966 51.3622V53.9687H258.71C258.559 53.3674 258.391 52.9365 258.206 52.6761C258.021 52.4109 257.768 52.2002 257.446 52.044C257.266 51.9588 256.951 51.9162 256.501 51.9162H255.784V59.3451C255.784 59.8376 255.81 60.1453 255.862 60.2684C255.919 60.3915 256.026 60.5004 256.182 60.5951C256.343 60.6851 256.561 60.7301 256.835 60.7301H257.155V60.9929H252.112V60.7301H252.432C252.711 60.7301 252.936 60.6804 253.107 60.5809C253.23 60.5146 253.327 60.401 253.398 60.24C253.45 60.1264 253.476 59.8281 253.476 59.3451V51.9162H252.78C252.131 51.9162 251.66 52.0535 251.367 52.3281C250.955 52.7116 250.694 53.2585 250.585 53.9687H250.315V51.3622H258.966ZM264.818 60.7301V60.9929H259.783V60.7301H260.102C260.382 60.7301 260.607 60.6804 260.777 60.5809C260.9 60.5146 260.995 60.401 261.061 60.24C261.113 60.1264 261.139 59.8281 261.139 59.3451V53.0099C261.139 52.5175 261.113 52.2097 261.061 52.0866C261.009 51.9635 260.903 51.857 260.742 51.767C260.585 51.6723 260.372 51.625 260.102 51.625H259.783V51.3622H264.818V51.625H264.499C264.219 51.625 263.994 51.6747 263.824 51.7741C263.701 51.8404 263.604 51.954 263.533 52.115C263.481 52.2287 263.455 52.527 263.455 53.0099V59.3451C263.455 59.8376 263.481 60.1453 263.533 60.2684C263.59 60.3915 263.696 60.5004 263.852 60.5951C264.013 60.6851 264.229 60.7301 264.499 60.7301H264.818ZM270.777 51.2272C272.311 51.1704 273.556 51.6179 274.513 52.5696C275.474 53.5213 275.955 54.7121 275.955 56.142C275.955 57.3636 275.597 58.4384 274.882 59.3664C273.935 60.5975 272.598 61.213 270.869 61.213C269.136 61.213 267.796 60.6259 266.849 59.4517C266.101 58.5236 265.727 57.4228 265.727 56.1491C265.727 54.7192 266.213 53.5284 267.183 52.5767C268.159 51.6202 269.357 51.1704 270.777 51.2272ZM270.862 51.6818C269.982 51.6818 269.312 52.1316 268.852 53.0312C268.478 53.7698 268.291 54.8305 268.291 56.213C268.291 57.856 268.58 59.0705 269.158 59.8565C269.56 60.4057 270.124 60.6804 270.848 60.6804C271.336 60.6804 271.743 60.562 272.07 60.3252C272.486 60.0222 272.811 59.5393 273.043 58.8764C273.275 58.2088 273.391 57.3399 273.391 56.2698C273.391 54.9962 273.272 54.0445 273.036 53.4147C272.799 52.7803 272.496 52.3328 272.126 52.0724C271.762 51.812 271.341 51.6818 270.862 51.6818ZM280.102 51.3622L284.854 57.3352V53.1946C284.854 52.6169 284.771 52.2263 284.605 52.0227C284.378 51.7481 283.997 51.6155 283.462 51.625V51.3622H286.644V51.625C286.236 51.677 285.962 51.7457 285.82 51.8309C285.682 51.9114 285.573 52.0464 285.493 52.2358C285.417 52.4204 285.379 52.74 285.379 53.1946V61.213H285.138L278.625 53.1946V59.3167C278.625 59.8707 278.751 60.2448 279.001 60.4389C279.257 60.633 279.548 60.7301 279.875 60.7301H280.102V60.9929H276.686V60.7301C277.216 60.7253 277.586 60.6164 277.794 60.4034C278.002 60.1903 278.107 59.8281 278.107 59.3167V52.5198L277.901 52.2642C277.697 52.0085 277.517 51.8404 277.361 51.7599C277.205 51.6794 276.98 51.6344 276.686 51.625V51.3622H280.102ZM300.337 51.142V54.4801H300.06C299.851 53.6089 299.463 52.9412 298.895 52.4772C298.327 52.0132 297.683 51.7812 296.963 51.7812C296.362 51.7812 295.81 51.954 295.308 52.2997C294.806 52.6453 294.439 53.0975 294.207 53.6562C293.909 54.3712 293.76 55.1666 293.76 56.0426C293.76 56.9043 293.869 57.6903 294.087 58.4005C294.305 59.106 294.645 59.6411 295.109 60.0056C295.573 60.3655 296.175 60.5454 296.913 60.5454C297.519 60.5454 298.073 60.4128 298.575 60.1477C299.082 59.8825 299.615 59.4256 300.173 58.7769V59.6079C299.634 60.1714 299.07 60.5809 298.483 60.8366C297.901 61.0876 297.219 61.213 296.438 61.213C295.41 61.213 294.496 61.0071 293.696 60.5951C292.901 60.1832 292.285 59.5913 291.849 58.8196C291.419 58.0478 291.203 57.2263 291.203 56.3551C291.203 55.4365 291.442 54.5653 291.921 53.7414C292.403 52.9176 293.052 52.2784 293.867 51.8238C294.686 51.3693 295.555 51.142 296.473 51.142C297.15 51.142 297.865 51.2888 298.618 51.5823C299.054 51.7528 299.331 51.838 299.449 51.838C299.6 51.838 299.731 51.7836 299.84 51.6747C299.953 51.561 300.027 51.3835 300.06 51.142H300.337ZM305.102 51.9162V55.8366H305.294C305.905 55.8366 306.348 55.6448 306.622 55.2613C306.897 54.8778 307.072 54.312 307.148 53.5639H307.418V58.6065H307.148C307.091 58.0573 306.97 57.6074 306.786 57.2571C306.606 56.9067 306.395 56.6723 306.153 56.5539C305.912 56.4308 305.562 56.3693 305.102 56.3693V59.0823C305.102 59.6127 305.124 59.937 305.166 60.0554C305.214 60.1737 305.299 60.2708 305.422 60.3466C305.545 60.4223 305.744 60.4602 306.019 60.4602H306.594C307.493 60.4602 308.213 60.2519 308.753 59.8352C309.297 59.4185 309.688 58.7841 309.925 57.9318H310.188L309.754 60.9929H301.43V60.7301H301.75C302.029 60.7301 302.254 60.6804 302.425 60.5809C302.548 60.5146 302.643 60.401 302.709 60.24C302.761 60.1264 302.787 59.8281 302.787 59.3451V53.0099C302.787 52.5743 302.775 52.3068 302.751 52.2073C302.704 52.0416 302.617 51.9138 302.489 51.8238C302.309 51.6912 302.063 51.625 301.75 51.625H301.43V51.3622H309.492V54.2102H309.222C309.084 53.5142 308.89 53.0146 308.639 52.7116C308.393 52.4086 308.043 52.186 307.588 52.044C307.323 51.9588 306.826 51.9162 306.097 51.9162H305.102ZM314.463 51.3622L319.215 57.3352V53.1946C319.215 52.6169 319.132 52.2263 318.966 52.0227C318.739 51.7481 318.358 51.6155 317.823 51.625V51.3622H321.004V51.625C320.597 51.677 320.323 51.7457 320.18 51.8309C320.043 51.9114 319.934 52.0464 319.854 52.2358C319.778 52.4204 319.74 52.74 319.74 53.1946V61.213H319.499L312.986 53.1946V59.3167C312.986 59.8707 313.111 60.2448 313.362 60.4389C313.618 60.633 313.909 60.7301 314.236 60.7301H314.463V60.9929H311.047V60.7301C311.577 60.7253 311.947 60.6164 312.155 60.4034C312.363 60.1903 312.467 59.8281 312.467 59.3167V52.5198L312.261 52.2642C312.058 52.0085 311.878 51.8404 311.722 51.7599C311.565 51.6794 311.34 51.6344 311.047 51.625V51.3622H314.463ZM330.528 51.3622V53.9687H330.273C330.121 53.3674 329.953 52.9365 329.769 52.6761C329.584 52.4109 329.331 52.2002 329.009 52.044C328.829 51.9588 328.514 51.9162 328.064 51.9162H327.347V59.3451C327.347 59.8376 327.373 60.1453 327.425 60.2684C327.482 60.3915 327.588 60.5004 327.744 60.5951C327.905 60.6851 328.123 60.7301 328.398 60.7301H328.717V60.9929H323.675V60.7301H323.994C324.274 60.7301 324.499 60.6804 324.669 60.5809C324.792 60.5146 324.889 60.401 324.96 60.24C325.012 60.1264 325.038 59.8281 325.038 59.3451V51.9162H324.342C323.694 51.9162 323.223 52.0535 322.929 52.3281C322.517 52.7116 322.257 53.2585 322.148 53.9687H321.878V51.3622H330.528ZM334.918 56.6037V59.3025C334.918 59.8234 334.948 60.1524 335.01 60.2897C335.076 60.4223 335.19 60.5288 335.351 60.6093C335.512 60.6898 335.813 60.7301 336.253 60.7301V60.9929H331.324V60.7301C331.769 60.7301 332.07 60.6898 332.226 60.6093C332.387 60.5241 332.498 60.4152 332.56 60.2826C332.626 60.1501 332.659 59.8234 332.659 59.3025V53.0525C332.659 52.5317 332.626 52.205 332.56 52.0724C332.498 51.9351 332.387 51.8262 332.226 51.7457C332.065 51.6652 331.764 51.625 331.324 51.625V51.3622H335.798C336.963 51.3622 337.815 51.4427 338.355 51.6037C338.895 51.7646 339.335 52.0629 339.676 52.4985C340.017 52.9294 340.188 53.436 340.188 54.0184C340.188 54.7287 339.932 55.3158 339.421 55.7798C339.094 56.0734 338.637 56.2935 338.05 56.4403L340.365 59.7002C340.668 60.1216 340.884 60.3844 341.011 60.4886C341.206 60.6354 341.43 60.7159 341.686 60.7301V60.9929H338.653L335.55 56.6037H334.918ZM334.918 51.8806V56.0994H335.322C335.981 56.0994 336.473 56.0402 336.8 55.9218C337.126 55.7987 337.382 55.5809 337.567 55.2684C337.756 54.9512 337.851 54.5393 337.851 54.0326C337.851 53.2987 337.678 52.7566 337.332 52.4062C336.992 52.0558 336.44 51.8806 335.678 51.8806H334.918ZM345.528 51.9162V55.8366H345.72C346.331 55.8366 346.774 55.6448 347.048 55.2613C347.323 54.8778 347.498 54.312 347.574 53.5639H347.844V58.6065H347.574C347.517 58.0573 347.396 57.6074 347.212 57.2571C347.032 56.9067 346.821 56.6723 346.58 56.5539C346.338 56.4308 345.988 56.3693 345.528 56.3693V59.0823C345.528 59.6127 345.55 59.937 345.592 60.0554C345.64 60.1737 345.725 60.2708 345.848 60.3466C345.971 60.4223 346.17 60.4602 346.445 60.4602H347.02C347.92 60.4602 348.639 60.2519 349.179 59.8352C349.724 59.4185 350.114 58.7841 350.351 57.9318H350.614L350.18 60.9929H341.857V60.7301H342.176C342.456 60.7301 342.68 60.6804 342.851 60.5809C342.974 60.5146 343.069 60.401 343.135 60.24C343.187 60.1264 343.213 59.8281 343.213 59.3451V53.0099C343.213 52.5743 343.201 52.3068 343.178 52.2073C343.13 52.0416 343.043 51.9138 342.915 51.8238C342.735 51.6912 342.489 51.625 342.176 51.625H341.857V51.3622H349.918V54.2102H349.648C349.51 53.5142 349.316 53.0146 349.065 52.7116C348.819 52.4086 348.469 52.186 348.014 52.044C347.749 51.9588 347.252 51.9162 346.523 51.9162H345.528Z" fill="#1C1B1F"/>
</svg>
