<svg width="28" height="34" viewBox="0 0 28 34" fill="none" xmlns="http://www.w3.org/2000/svg">
<mask id="mask0_75_200" style="mask-type:luminance" maskUnits="userSpaceOnUse" x="0" y="0" width="28" height="34">
<path d="M24.5 2H3.5C3.10218 2 2.72064 2.15804 2.43934 2.43934C2.15804 2.72064 2 3.10218 2 3.5V30.5C2 30.8978 2.15804 31.2794 2.43934 31.5607C2.72064 31.842 3.10218 32 3.5 32H24.5C24.8978 32 25.2794 31.842 25.5607 31.5607C25.842 31.2794 26 30.8978 26 30.5V3.5C26 3.10218 25.842 2.72064 25.5607 2.43934C25.2794 2.15804 24.8978 2 24.5 2Z" fill="white" stroke="white" stroke-width="2.5" stroke-linecap="round" stroke-linejoin="round"/>
<path d="M8.75 21.5H19.25M8.75 26H14M18.5 8.75L12.5 14.75L9.5 11.75" stroke="black" stroke-width="2.5" stroke-linecap="round" stroke-linejoin="round"/>
</mask>
<g mask="url(#mask0_75_200)">
<path d="M-4 -1H32V35H-4V-1Z" fill="#007FFF"/>
</g>
</svg>
