<svg width="22" height="22" viewBox="0 0 22 22" fill="none" xmlns="http://www.w3.org/2000/svg">
<path d="M16.7519 0H5.12812C2.29594 0 0 2.29594 0 5.12812V16.7519C0 19.5841 2.29594 21.88 5.12812 21.88H16.7519C19.5841 21.88 21.88 19.5841 21.88 16.7519V5.12812C21.88 2.29594 19.5841 0 16.7519 0Z" fill="url(#paint0_radial_219_711)"/>
<path d="M16.7519 0H5.12812C2.29594 0 0 2.29594 0 5.12812V16.7519C0 19.5841 2.29594 21.88 5.12812 21.88H16.7519C19.5841 21.88 21.88 19.5841 21.88 16.7519V5.12812C21.88 2.29594 19.5841 0 16.7519 0Z" fill="url(#paint1_radial_219_711)"/>
<path d="M10.9407 2.39307C8.61955 2.39307 8.32819 2.40324 7.41658 2.44469C6.50668 2.4864 5.88558 2.63041 5.34217 2.84178C4.77995 3.06006 4.30312 3.35211 3.82809 3.82732C3.35262 4.30244 3.06058 4.77927 2.84161 5.34123C2.62964 5.88481 2.48546 6.50616 2.44452 7.41564C2.40375 8.32733 2.39307 8.61878 2.39307 10.94C2.39307 13.2613 2.40332 13.5517 2.44469 14.4633C2.48657 15.3732 2.63058 15.9943 2.84178 16.5377C3.06024 17.0999 3.35228 17.5768 3.82749 18.0518C4.30244 18.5273 4.77927 18.82 5.34105 19.0383C5.88489 19.2496 6.50608 19.3937 7.41581 19.4354C8.3275 19.4768 8.61861 19.487 10.9397 19.487C13.2611 19.487 13.5515 19.4768 14.4631 19.4354C15.373 19.3937 15.9948 19.2496 16.5387 19.0383C17.1006 18.82 17.5768 18.5273 18.0516 18.0518C18.5271 17.5768 18.819 17.0999 19.0381 16.538C19.2482 15.9943 19.3925 15.373 19.4352 14.4635C19.4761 13.5519 19.4868 13.2613 19.4868 10.94C19.4868 8.61878 19.4761 8.3275 19.4352 7.41581C19.3925 6.50591 19.2482 5.88489 19.0381 5.34148C18.819 4.77927 18.5271 4.30244 18.0516 3.82732C17.5762 3.35194 17.1008 3.05989 16.5381 2.84186C15.9933 2.63041 15.3718 2.48631 14.4619 2.44469C13.5502 2.40324 13.26 2.39307 10.9381 2.39307H10.9407ZM10.174 3.9333C10.4016 3.93296 10.6555 3.9333 10.9407 3.9333C13.2228 3.9333 13.4932 3.9415 14.3944 3.98244C15.2277 4.02056 15.68 4.15979 15.9813 4.2768C16.3802 4.43167 16.6646 4.61688 16.9635 4.9161C17.2627 5.21524 17.4478 5.50011 17.6031 5.89899C17.7201 6.19984 17.8595 6.65215 17.8974 7.48547C17.9384 8.38648 17.9473 8.65707 17.9473 10.9381C17.9473 13.2191 17.9384 13.4897 17.8974 14.3907C17.8593 15.224 17.7201 15.6763 17.6031 15.9772C17.4482 16.3761 17.2627 16.6601 16.9635 16.9591C16.6644 17.2582 16.3804 17.4433 15.9813 17.5983C15.6804 17.7158 15.2277 17.8547 14.3944 17.8928C13.4934 17.9338 13.2228 17.9427 10.9407 17.9427C8.65852 17.9427 8.38802 17.9338 7.48709 17.8928C6.65377 17.8544 6.20147 17.7151 5.89993 17.5981C5.50114 17.4432 5.21618 17.258 4.91704 16.9589C4.6179 16.6598 4.43278 16.3756 4.27748 15.9765C4.16047 15.6756 4.02108 15.2233 3.98313 14.39C3.94219 13.489 3.93398 13.2184 3.93398 10.9359C3.93398 8.65357 3.94219 8.38434 3.98313 7.48333C4.02125 6.65001 4.16047 6.19771 4.27748 5.89643C4.43244 5.49755 4.6179 5.21268 4.91713 4.91354C5.21627 4.6144 5.50114 4.42919 5.90002 4.27398C6.2013 4.15646 6.65377 4.01757 7.48709 3.97928C8.27554 3.94364 8.58109 3.93296 10.174 3.93116V3.9333ZM15.503 5.35242C14.9368 5.35242 14.4774 5.81139 14.4774 6.37771C14.4774 6.94394 14.9368 7.40333 15.503 7.40333C16.0693 7.40333 16.5287 6.94394 16.5287 6.37771C16.5287 5.81147 16.0693 5.35208 15.503 5.35208V5.35242ZM10.9407 6.55078C8.51682 6.55078 6.55155 8.51605 6.55155 10.94C6.55155 13.364 8.51682 15.3283 10.9407 15.3283C13.3647 15.3283 15.3293 13.364 15.3293 10.94C15.3293 8.51613 13.3645 6.55078 10.9405 6.55078H10.9407ZM10.9407 8.09101C12.5141 8.09101 13.7897 9.36646 13.7897 10.94C13.7897 12.5134 12.5141 13.789 10.9407 13.789C9.36723 13.789 8.09178 12.5134 8.09178 10.94C8.09178 9.36646 9.36723 8.09101 10.9407 8.09101Z" fill="white"/>
<defs>
<radialGradient id="paint0_radial_219_711" cx="0" cy="0" r="1" gradientUnits="userSpaceOnUse" gradientTransform="translate(5.81187 23.5652) rotate(-90) scale(21.6847 20.1685)">
<stop stop-color="#FFDD55"/>
<stop offset="0.1" stop-color="#FFDD55"/>
<stop offset="0.5" stop-color="#FF543E"/>
<stop offset="1" stop-color="#C837AB"/>
</radialGradient>
<radialGradient id="paint1_radial_219_711" cx="0" cy="0" r="1" gradientUnits="userSpaceOnUse" gradientTransform="translate(-3.66499 1.57613) rotate(78.681) scale(9.69318 39.9556)">
<stop stop-color="#3771C8"/>
<stop offset="0.128" stop-color="#3771C8"/>
<stop offset="1" stop-color="#6600FF" stop-opacity="0"/>
</radialGradient>
</defs>
</svg>
