<svg width="23" height="41" viewBox="0 0 23 41" fill="none" xmlns="http://www.w3.org/2000/svg">
<path fill-rule="evenodd" clip-rule="evenodd" d="M21.8918 0.889428C22.035 1.03232 22.1487 1.20207 22.2262 1.38896C22.3038 1.57584 22.3437 1.77619 22.3437 1.97853C22.3437 2.18087 22.3038 2.38122 22.2262 2.5681C22.1487 2.75499 22.035 2.92474 21.8918 3.06763L4.51844 20.4379L21.8918 37.8082C22.1806 38.097 22.3429 38.4888 22.3429 38.8973C22.3429 39.3058 22.1806 39.6975 21.8918 39.9864C21.6029 40.2752 21.2112 40.4375 20.8027 40.4375C20.3942 40.4375 20.0024 40.2752 19.7136 39.9864L1.2542 21.527C1.11095 21.3841 0.997292 21.2144 0.919742 21.0275C0.842193 20.8406 0.802277 20.6402 0.802277 20.4379C0.802277 20.2356 0.842193 20.0352 0.919742 19.8483C0.997292 19.6614 1.11095 19.4917 1.2542 19.3488L19.7136 0.889428C19.8565 0.746173 20.0262 0.632516 20.2131 0.554967C20.4 0.477418 20.6003 0.4375 20.8027 0.4375C21.005 0.4375 21.2054 0.477418 21.3923 0.554967C21.5791 0.632516 21.7489 0.746173 21.8918 0.889428Z" fill="#1C1B1F"/>
</svg>
