<svg width="23" height="23" viewBox="0 0 23 23" fill="none" xmlns="http://www.w3.org/2000/svg">
<path d="M20.6566 0.9375H1.90167C1.0423 0.9375 0.344055 1.64551 0.344055 2.51465V21.2354C0.344055 22.1045 1.0423 22.8125 1.90167 22.8125H20.6566C21.5159 22.8125 22.2191 22.1045 22.2191 21.2354V2.51465C22.2191 1.64551 21.5159 0.9375 20.6566 0.9375ZM6.95538 19.6875H3.7132V9.24805H6.96027V19.6875H6.95538ZM5.33429 7.82227C4.29425 7.82227 3.45441 6.97754 3.45441 5.94238C3.45441 4.90723 4.29425 4.0625 5.33429 4.0625C6.36945 4.0625 7.21417 4.90723 7.21417 5.94238C7.21417 6.98242 6.37433 7.82227 5.33429 7.82227ZM19.1087 19.6875H15.8665V14.6094C15.8665 13.3984 15.8421 11.8408 14.1819 11.8408C12.4925 11.8408 12.2337 13.1592 12.2337 14.5215V19.6875H8.99152V9.24805H12.1019V10.6738H12.1458C12.5804 9.85352 13.64 8.98926 15.2171 8.98926C18.4984 8.98926 19.1087 11.1523 19.1087 13.9648V19.6875Z" fill="#005EBD"/>
</svg>
