<svg width="22" height="41" viewBox="0 0 22 41" fill="none" xmlns="http://www.w3.org/2000/svg">
<path fill-rule="evenodd" clip-rule="evenodd" d="M0.795677 0.889428C0.93857 0.746173 1.10832 0.632516 1.29521 0.554967C1.48209 0.477418 1.68244 0.4375 1.88478 0.4375C2.08712 0.4375 2.28747 0.477418 2.47435 0.554967C2.66124 0.632516 2.83099 0.746173 2.97388 0.889428L21.4333 19.3488C21.5765 19.4917 21.6902 19.6614 21.7677 19.8483C21.8453 20.0352 21.8852 20.2356 21.8852 20.4379C21.8852 20.6402 21.8453 20.8406 21.7677 21.0275C21.6902 21.2144 21.5765 21.3841 21.4333 21.527L2.97388 39.9864C2.68504 40.2752 2.29327 40.4375 1.88478 40.4375C1.47629 40.4375 1.08453 40.2752 0.795677 39.9864C0.506829 39.6975 0.344555 39.3058 0.344555 38.8973C0.344555 38.4888 0.506829 38.097 0.795677 37.8082L18.169 20.4379L0.795677 3.06763C0.652422 2.92474 0.538765 2.75499 0.461216 2.5681C0.383666 2.38122 0.34375 2.18087 0.34375 1.97853C0.34375 1.77619 0.383666 1.57584 0.461216 1.38896C0.538765 1.20207 0.652422 1.03232 0.795677 0.889428Z" fill="black"/>
</svg>
