<svg width="218" height="70" viewBox="0 0 218 70" fill="none" xmlns="http://www.w3.org/2000/svg">
<path d="M53.7786 31.6207C53.7786 29.6896 51.8476 27.6379 48.1062 28C45.5717 28.2414 43.0372 29.5689 40.3821 30.7758L40.7441 29.0862L41.7097 24.5C42.3131 21.7241 42.7959 20.7586 43.3993 20.7586C43.7614 20.7586 44.0028 21 44.2441 21.4827C44.4855 21.9655 44.8476 22.5689 45.6924 22.5689C46.5373 22.5689 47.02 21.8448 47.02 20.8793C47.02 19.6724 45.9338 18.5862 44.6062 18.5862C41.4683 18.5862 39.0545 22.0862 37.6062 28.8448L36.8821 32.2241C35.7959 32.8276 34.951 33.0689 33.9855 33.0689C33.5028 33.0689 32.8993 32.9483 32.5372 32.8276C32.5372 32.5862 32.7786 31.9827 32.7786 31.1379C32.7786 29.2069 31.6924 28.7241 30.8476 28.8448C29.8821 28.8448 28.5545 29.3276 28.5545 31.5C28.5545 32.5862 29.2786 33.5517 30.4855 34.1551C30.3648 34.3965 30.3648 34.3965 30.3648 34.6379C29.3993 37.0517 24.9338 45.7414 24.3304 44.7758C21.3131 40.5517 24.5717 30.0517 24.5717 30.0517C24.2097 29.931 21.6752 28.6034 18.8993 28.6034C15.8821 28.6034 14.4338 31.1379 14.1924 33.431C14.0717 34.8793 14.5545 35.7241 15.52 35.8448C16.3648 35.9655 17.089 35.2414 17.2097 34.1551C17.3304 33.3103 16.8476 32.8276 16.4855 32.5862C16.2441 32.3448 16.1235 32.2241 16.1235 31.9827C16.1235 31.5 16.7269 31.0172 17.2097 31.1379C17.3304 31.1379 17.451 31.2586 17.8131 31.2586C18.6579 31.5 20.7097 32.3448 21.4338 31.5C18.6579 37.2931 19.5028 47.1896 24.2097 46.7069C26.9855 46.3448 29.7614 39.9483 32.2959 34.3965C32.2959 34.2758 33.1407 34.8793 36.2786 34.6379C36.3993 34.6379 36.3993 34.6379 36.52 34.6379L34.1062 45.862C33.6235 47.9138 33.02 50.4483 31.9338 50.4483C31.5717 50.4483 31.3304 50.0862 31.089 49.6034C30.8476 49.1207 30.3648 48.3965 29.52 48.3965C28.6752 48.3965 28.0717 49.1207 28.0717 50.0862C28.0717 51.6552 29.3993 52.5 30.7269 52.5C33.9855 52.5 36.3993 48.8793 37.9683 41.5172L39.5373 33.9138C41.4683 33.3103 43.1579 32.1034 44.4855 31.3793C44.2441 31.9827 44.1235 32.9483 44.1235 33.5517C44.1235 35.4827 45.2097 37.0517 46.2959 38.862C47.1407 40.3103 47.9855 41.6379 47.9855 42.6034C47.9855 43.5689 47.02 44.4138 46.0545 44.4138C45.2097 44.4138 44.8476 43.6896 44.6062 42.9655C44.2441 42.2414 43.8821 41.3965 42.9166 41.3965C42.0717 41.3965 41.4683 42.2414 41.4683 43.3276C41.4683 45.0172 43.0372 46.3448 45.089 46.3448C48.1062 46.3448 50.1579 44.1724 50.1579 41.1551C50.1579 38.862 48.8303 36.931 47.6235 35.1207C46.7786 33.9138 46.1752 32.8276 46.0545 31.9827C46.0545 30.4138 48.3476 29.3276 49.5545 29.3276C50.0373 29.3276 50.52 29.4483 50.8821 29.5689C50.1579 29.931 49.7959 30.5345 49.7959 31.5C49.7959 32.7069 50.7614 33.1896 51.4855 33.1896C53.1752 33.5517 53.7786 32.5862 53.7786 31.6207Z" fill="#003060"/>
<path d="M55.7097 42.4827C55.7097 41.2758 54.9855 40.3103 53.8993 40.3103C52.9338 40.3103 52.089 41.1551 52.089 42.4827C52.089 43.6896 52.9338 44.4137 53.8993 44.4137C55.1062 44.5344 55.7097 43.6896 55.7097 42.4827Z" fill="#003060"/>
<path d="M36.2786 2.05172C18.0545 2.05172 3.20967 16.7759 3.20967 35C3.20967 53.2241 18.0545 67.9483 36.158 67.9483C54.3821 67.9483 69.1062 53.2241 69.1062 35C69.1062 16.7759 54.3821 2.05172 36.2786 2.05172ZM36.2786 69.6379C17.089 69.6379 1.52002 53.9483 1.52002 35C1.52002 16.0517 17.089 0.362061 36.2786 0.362061C55.3476 0.362061 70.7959 15.931 70.7959 34.8793C70.7959 53.8276 55.3476 69.6379 36.2786 69.6379Z" fill="#003060"/>
<path d="M127.641 44.7759C128.486 44.7759 129.089 44.1725 129.089 43.2069C129.089 42.3621 128.365 41.7587 127.641 41.7587C126.796 41.7587 126.072 42.3621 126.072 43.2069C126.072 44.0518 126.796 44.7759 127.641 44.7759Z" fill="#003060"/>
<path d="M91.3132 44.5345H91.6752L98.3131 28.8448H95.8994L92.5201 37.2931C92.0373 38.3793 91.5545 40.069 91.5545 40.069C91.5545 40.069 91.0718 38.2586 90.589 37.2931L87.089 28.8448H84.4338L91.3132 44.5345Z" fill="#003060"/>
<path d="M101.33 44.2931H103.744V38.6207H110.382V36.3276H103.744V30.8966H111.106V28.8448H101.33V44.2931Z" fill="#003060"/>
<path d="M118.348 44.5344C121.365 44.5344 123.417 42.9655 123.417 40.3103C123.417 37.7758 121.968 36.5689 119.434 35.4827L118.348 34.9999C116.779 34.2758 116.055 33.793 116.055 32.5862C116.055 31.4999 116.899 30.7758 118.106 30.7758C119.313 30.7758 120.037 31.2586 120.641 32.3448L122.572 31.1379C121.606 29.4482 120.158 28.6034 118.227 28.6034C115.572 28.6034 113.882 30.293 113.882 32.4655C113.882 34.8793 115.33 35.9655 117.503 37.0517L118.589 37.5344C120.279 38.2586 121.244 38.862 121.244 40.3103C121.244 41.6379 120.037 42.4827 118.468 42.4827C116.537 42.4827 115.572 41.5172 114.968 40.3103L112.675 41.2758C113.52 43.0862 115.33 44.5344 118.348 44.5344Z" fill="#003060"/>
<path d="M138.865 44.5344C141.882 44.5344 143.934 43.4482 144.899 42.4827V36.4482H138.503V38.6206H142.606V41.3965C141.761 41.9999 140.313 42.4827 138.744 42.4827C135.244 42.4827 132.951 39.9482 132.951 36.6896C132.951 33.431 135.244 30.8965 138.503 30.8965C140.434 30.8965 141.52 31.4999 142.365 32.4655L144.054 30.7758C142.727 29.3275 140.917 28.6034 138.503 28.6034C133.917 28.6034 130.417 31.862 130.417 36.5689C130.537 41.1551 134.037 44.5344 138.865 44.5344Z" fill="#003060"/>
<path d="M148.158 44.2931H157.813V42.1207H150.572V28.8448H148.158V44.2931Z" fill="#003060"/>
<path d="M174.348 36.4483C174.348 31.8621 170.848 28.3621 166.261 28.3621C161.675 28.3621 158.175 31.6207 158.175 36.4483C158.175 41.0345 161.675 44.5345 166.261 44.5345C170.848 44.5345 174.348 41.1552 174.348 36.4483ZM171.934 36.4483C171.934 39.7069 169.641 42.2414 166.382 42.2414C163.244 42.2414 160.83 39.7069 160.83 36.4483C160.83 33.1896 163.244 30.6552 166.382 30.6552C169.641 30.6552 171.934 33.1896 171.934 36.4483Z" fill="#003060"/>
<path d="M187.382 32.7069C187.382 30.5345 185.813 28.8448 183.037 28.8448H177.365V44.4138H183.399C186.658 44.4138 188.468 42.3621 188.468 39.7069C188.468 37.6552 187.382 36.3276 185.33 35.8449C186.658 35.1207 187.382 34.1552 187.382 32.7069ZM179.779 36.8104H183.158C185.089 36.8104 186.054 37.8966 186.054 39.4655C186.054 41.0345 185.089 42.1207 183.279 42.1207H179.779V36.8104ZM185.089 32.8276C185.089 34.0345 184.365 34.8793 182.916 34.8793H179.779V31.0173H182.916C184.365 30.8966 185.089 31.6207 185.089 32.8276Z" fill="#003060"/>
<path d="M204.279 44.293L197.399 28.6034H197.158L190.52 44.293H192.934L194.382 40.793H200.417L201.865 44.293H204.279ZM199.33 38.6206H195.106L196.555 35.2413C196.917 34.2758 197.279 32.8275 197.279 32.8275C197.279 32.8275 197.641 34.2758 198.123 35.2413L199.33 38.6206Z" fill="#003060"/>
<path d="M206.813 44.2931H216.589V42.1207H209.348V28.8448H206.813V44.2931Z" fill="#003060"/>
</svg>
